#N canvas 1096 235 851 492 10;
#X obj 200 450 phasor~;
#X obj 200 570 -~ 0.25;
#X obj 200 600 cos~;
#X obj 300 570 -~ 0.25;
#X obj 300 600 cos~;
#X obj 400 570 -~ 0.25;
#X obj 400 600 cos~;
#X obj 500 570 -~ 0.25;
#X obj 500 600 cos~;
#X obj 600 570 -~ 0.25;
#X obj 600 600 cos~;
#X obj 200 630 *~;
#X obj 300 630 *~;
#X obj 400 630 *~;
#X obj 500 630 *~;
#X obj 600 630 *~;
#X obj 1232 439 t b b;
#X obj 1232 523 unpack f f;
#X msg 1289 544 1000 \$1;
#X obj 1289 565 /;
#X obj 1232 579 lop~;
#X obj 200 800 /~ 4;
#X obj 700 570 -~ 0.25;
#X obj 700 600 cos~;
#X obj 700 630 *~;
#X obj 540 650 pow~ 8;
#X msg 1250 350 1000 \$1;
#X obj 1250 371 /;
#X obj 1250 413 t b f;
#X obj 1232 502 pack f f;
#X obj 200 390 t f f;
#X obj 200 200 inlet;
#X obj 400 260 > 0;
#X obj 200 300 list prepend;
#X obj 200 330 route 1;
#X obj 200 360 pipe 2;
#X obj 1200 700 sel 1;
#X obj 1270 740 del 2;
#X msg 1230 760 1 0;
#X msg 1200 760 0 1;
#X obj 1200 790 line~;
#X obj 1400 300 sel 0;
#X obj 1400 400 - 1;
#X obj 1400 420 / 126;
#X msg 1400 440 1 \$1;
#X obj 1400 460 -;
#X obj 1400 500 + 100;
#X obj 1400 520 dbtorms;
#X obj 1400 540 pipe 2;
#X obj 200 850 *~;
#X obj 200 900 *~;
#X obj 1200 840 env~;
#X obj 1200 870 change;
#X obj 1200 900 sel 0;
#X msg 1200 930 0;
#X msg 1230 930 1;
#X obj 1200 970 switch~;
#X obj 200 420 / 1;
#X obj 200 540 *~ 1;
#X obj 300 540 *~ 2;
#X obj 400 540 *~ 3;
#X obj 500 540 *~ 4;
#X obj 600 540 *~ 5;
#X obj 700 540 *~ 9;
#X obj 500 670 /~ 2;
#X obj 300 670 /~ 8;
#X obj 400 670 /~ 8;
#X obj 600 670 /~ 8;
#X obj 700 670 /~ 4;
#X obj 800 570 -~ 0.25;
#X obj 800 600 cos~;
#X obj 800 630 *~;
#X obj 800 540 *~ 10;
#X obj 440 650 pow~ 20;
#X obj 340 650 pow~ 20;
#X obj 840 650 pow~ 32;
#X obj 900 570 -~ 0.25;
#X obj 900 600 cos~;
#X obj 900 630 *~;
#X obj 900 540 *~ 16;
#X obj 1000 560 -~ 0.25;
#X obj 1000 580 cos~;
#X obj 1000 540 *~ 21;
#X obj 1000 600 /~ 2;
#X obj 940 650 pow~ 128;
#X msg 350 430 0;
#X obj 740 650 pow~ 32;
#X obj 640 650 pow~ 32;
#X obj 1232 481 del 3;
#X msg 1259 460 1 3;
#X obj 900 670 /~ 40;
#X obj 800 670 /~ 16;
#X obj 200 1000 outlet~;
#X obj 1400 480 * -15;
#X obj 1250 392 * 768;
#X obj 400 200 inlet;
#X obj 400 230 clip 0 127;
#X obj 1007 1598 f;
#X text 200 100 original patch from here:https://github.com/MikeMorenoDSP/pd-mkmr/blob/master/instruments/marimba~.pd
;
#X connect 0 0 58 0;
#X connect 0 0 59 0;
#X connect 0 0 60 0;
#X connect 0 0 61 0;
#X connect 0 0 62 0;
#X connect 0 0 63 0;
#X connect 0 0 72 0;
#X connect 0 0 79 0;
#X connect 0 0 82 0;
#X connect 1 0 2 0;
#X connect 2 0 11 0;
#X connect 3 0 4 0;
#X connect 4 0 12 0;
#X connect 5 0 6 0;
#X connect 6 0 13 0;
#X connect 7 0 8 0;
#X connect 8 0 14 0;
#X connect 9 0 10 0;
#X connect 10 0 15 0;
#X connect 11 0 21 0;
#X connect 12 0 65 0;
#X connect 13 0 66 0;
#X connect 14 0 64 0;
#X connect 15 0 67 0;
#X connect 16 0 88 0;
#X connect 16 1 89 0;
#X connect 17 0 20 0;
#X connect 17 1 18 0;
#X connect 18 0 19 0;
#X connect 19 0 20 1;
#X connect 20 0 11 1;
#X connect 20 0 25 0;
#X connect 20 0 73 0;
#X connect 20 0 74 0;
#X connect 20 0 75 0;
#X connect 20 0 84 0;
#X connect 20 0 86 0;
#X connect 20 0 87 0;
#X connect 21 0 49 0;
#X connect 22 0 23 0;
#X connect 23 0 24 0;
#X connect 24 0 68 0;
#X connect 25 0 14 1;
#X connect 26 0 27 0;
#X connect 27 0 94 0;
#X connect 28 0 16 0;
#X connect 28 1 29 1;
#X connect 29 0 17 0;
#X connect 30 0 57 0;
#X connect 30 1 26 0;
#X connect 31 0 33 0;
#X connect 32 0 33 1;
#X connect 32 0 36 0;
#X connect 33 0 34 0;
#X connect 34 0 35 0;
#X connect 35 0 30 0;
#X connect 36 0 37 0;
#X connect 36 0 39 0;
#X connect 37 0 38 0;
#X connect 37 0 55 0;
#X connect 37 0 85 0;
#X connect 38 0 40 0;
#X connect 39 0 40 0;
#X connect 40 0 50 1;
#X connect 41 1 42 0;
#X connect 42 0 43 0;
#X connect 43 0 44 0;
#X connect 44 0 45 0;
#X connect 45 0 93 0;
#X connect 46 0 47 0;
#X connect 47 0 48 0;
#X connect 48 0 49 1;
#X connect 49 0 50 0;
#X connect 50 0 51 0;
#X connect 50 0 92 0;
#X connect 51 0 52 0;
#X connect 52 0 53 0;
#X connect 53 0 54 0;
#X connect 54 0 56 0;
#X connect 55 0 56 0;
#X connect 57 0 0 0;
#X connect 58 0 1 0;
#X connect 59 0 3 0;
#X connect 60 0 5 0;
#X connect 61 0 7 0;
#X connect 62 0 9 0;
#X connect 63 0 22 0;
#X connect 64 0 21 0;
#X connect 65 0 21 0;
#X connect 66 0 21 0;
#X connect 67 0 21 0;
#X connect 68 0 21 0;
#X connect 69 0 70 0;
#X connect 70 0 71 0;
#X connect 71 0 91 0;
#X connect 72 0 69 0;
#X connect 73 0 13 1;
#X connect 74 0 12 1;
#X connect 75 0 71 1;
#X connect 76 0 77 0;
#X connect 77 0 78 0;
#X connect 78 0 90 0;
#X connect 79 0 76 0;
#X connect 80 0 81 0;
#X connect 81 0 83 0;
#X connect 82 0 80 0;
#X connect 83 0 77 0;
#X connect 84 0 78 1;
#X connect 85 0 0 1;
#X connect 86 0 24 1;
#X connect 87 0 15 1;
#X connect 88 0 29 0;
#X connect 89 0 17 0;
#X connect 90 0 21 0;
#X connect 91 0 21 0;
#X connect 93 0 46 0;
#X connect 94 0 28 0;
#X connect 95 0 96 0;
#X connect 96 0 32 0;
#X connect 96 0 41 0;
