#N canvas 80 69 1240 1346 12;
#X obj 200 1500 outlet~;
#X obj 700 1300 *~ 0.1;
#X obj 700 540 random 8;
#X obj 700 600 select 1 2 3 4 5 6 7 8;
#X obj 700 800 mtof;
#X obj 700 400 tgl 15 0 empty empty empty 17 7 0 10 #fcfcfc #000000
#000000 0 1;
#X obj 700 480 metro;
#X msg 700 650 60;
#X msg 740 650 62;
#X msg 780 650 64;
#X msg 860 650 67;
#X msg 900 650 69;
#X msg 940 650 71;
#X floatatom 700 700 5 0 0 0 - - -, f 5;
#X obj 200 540 random 8;
#X obj 200 600 select 1 2 3 4 5 6 7 8;
#X obj 200 800 mtof;
#X obj 200 400 tgl 15 0 empty empty empty 17 7 0 10 #fcfcfc #000000
#000000 0 1;
#X obj 200 480 metro;
#X msg 200 650 60;
#X floatatom 200 750 5 0 0 0 - - -, f 5;
#X obj 200 300 tgl 15 0 empty empty empty 17 7 0 10 #fcfcfc #000000
#000000 0 1;
#X obj 200 200 loadbang;
#X text 200 150 I couldn't figure out the reverb being used in the
original patch \, so I'll go with no reverb for now;
#X msg 800 400 250;
#X msg 300 400 2000;
#X msg 820 650 48;
#X msg 980 650 48;
#X msg 280 650 57;
#X msg 240 650 60;
#X msg 320 650 48;
#X msg 360 650 65;
#X msg 400 650 65;
#X msg 440 650 67;
#X msg 480 650 48;
#X obj 200 700 - 24;
#X obj 700 1000 * 1;
#X obj 740 1000 * 2;
#X obj 780 1000 * 3;
#X obj 820 1000 * 4;
#X obj 860 1000 * 5;
#X obj 900 1000 * 6;
#X obj 940 1000 * 7;
#X obj 980 1000 * 8;
#X obj 1020 1000 * 9;
#X obj 1060 1000 * 10;
#X floatatom 700 840 5 0 0 0 - - -, f 5;
#X floatatom 700 1050 5 0 0 0 - - -, f 5;
#X floatatom 740 1050 5 0 0 0 - - -, f 5;
#X floatatom 780 1050 5 0 0 0 - - -, f 5;
#X floatatom 820 1050 5 0 0 0 - - -, f 5;
#X floatatom 860 1050 5 0 0 0 - - -, f 5;
#X floatatom 900 1050 5 0 0 0 - - -, f 5;
#X floatatom 940 1050 5 0 0 0 - - -, f 5;
#X floatatom 980 1050 5 0 0 0 - - -, f 5;
#X floatatom 1020 1050 5 0 0 0 - - -, f 5;
#X floatatom 1060 1050 5 0 0 0 - - -, f 5;
#X obj 700 1100 osc~;
#X obj 700 1200 *~;
#X obj 740 1100 osc~;
#X obj 740 1200 *~;
#X obj 780 1100 osc~;
#X obj 780 1200 *~;
#X obj 820 1100 osc~;
#X obj 820 1200 *~;
#X obj 860 1100 osc~;
#X obj 860 1200 *~;
#X obj 900 1100 osc~;
#X obj 900 1200 *~;
#X obj 940 1100 osc~;
#X obj 940 1200 *~;
#X obj 980 1100 osc~;
#X obj 980 1200 *~;
#X obj 1020 1100 osc~;
#X obj 1020 1200 *~;
#X obj 1060 1100 osc~;
#X obj 1060 1200 *~;
#X msg 750 1160 1;
#X msg 790 1160 0;
#X msg 830 1160 0;
#X msg 870 1160 0;
#X msg 910 1160 0.4;
#X msg 950 1160 0.2;
#X msg 990 1160 0;
#X msg 1030 1160 0.3;
#X msg 1071 1160 0.2;
#X msg 1110 1160 0.3;
#X obj 200 1000 * 1;
#X obj 240 1000 * 2;
#X obj 280 1000 * 3;
#X obj 320 1000 * 4;
#X obj 360 1000 * 5;
#X obj 400 1000 * 6;
#X obj 440 1000 * 7;
#X obj 480 1000 * 8;
#X obj 520 1000 * 9;
#X obj 560 1000 * 10;
#X floatatom 200 1050 5 0 0 0 - - -, f 5;
#X floatatom 240 1050 5 0 0 0 - - -, f 5;
#X floatatom 280 1050 5 0 0 0 - - -, f 5;
#X floatatom 320 1050 5 0 0 0 - - -, f 5;
#X floatatom 360 1050 5 0 0 0 - - -, f 5;
#X floatatom 400 1050 5 0 0 0 - - -, f 5;
#X floatatom 440 1050 5 0 0 0 - - -, f 5;
#X floatatom 480 1050 5 0 0 0 - - -, f 5;
#X floatatom 520 1050 5 0 0 0 - - -, f 5;
#X floatatom 560 1050 5 0 0 0 - - -, f 5;
#X obj 200 1100 osc~;
#X obj 200 1200 *~;
#X obj 240 1100 osc~;
#X obj 240 1200 *~;
#X obj 280 1100 osc~;
#X obj 280 1200 *~;
#X obj 320 1100 osc~;
#X obj 320 1200 *~;
#X obj 360 1100 osc~;
#X obj 360 1200 *~;
#X obj 400 1100 osc~;
#X obj 400 1200 *~;
#X obj 440 1100 osc~;
#X obj 440 1200 *~;
#X obj 480 1100 osc~;
#X obj 480 1200 *~;
#X obj 520 1100 osc~;
#X obj 520 1200 *~;
#X obj 560 1100 osc~;
#X obj 560 1200 *~;
#X msg 250 1160 1;
#X msg 490 1160 0;
#X msg 290 1160 0.6;
#X msg 330 1160 0.4;
#X msg 370 1160 0.2;
#X msg 410 1160 0.3;
#X msg 450 1160 0;
#X msg 530 1160 0;
#X msg 571 1160 0;
#X obj 200 1300 *~ 0.1;
#X obj 600 1400 *~;
#X obj 100 1400 *~;
#X text 200 100 from here:https://www.youtube.com/watch?v=8zeXBNfV88g
;
#X text 1150 1160 <- Adjust hadmonics by tweaking numbers in this row
;
#X msg 610 1160 0;
#X floatatom 200 840 5 0 0 0 - - -, f 5;
#X text 850 400 Melody Notes;
#X text 360 400 Bass Notes;
#X obj 610 1100 loadbang;
#X obj 1110 1100 loadbang;
#X connect 1 0 137 0;
#X connect 2 0 3 0;
#X connect 3 0 7 0;
#X connect 3 1 8 0;
#X connect 3 2 9 0;
#X connect 3 3 26 0;
#X connect 3 4 10 0;
#X connect 3 5 11 0;
#X connect 3 6 12 0;
#X connect 3 7 27 0;
#X connect 4 0 46 0;
#X connect 5 0 6 0;
#X connect 5 0 137 1;
#X connect 6 0 2 0;
#X connect 7 0 13 0;
#X connect 8 0 13 0;
#X connect 9 0 13 0;
#X connect 11 0 13 0;
#X connect 12 0 13 0;
#X connect 13 0 4 0;
#X connect 14 0 15 0;
#X connect 15 0 19 0;
#X connect 15 1 29 0;
#X connect 15 2 28 0;
#X connect 15 3 30 0;
#X connect 15 4 31 0;
#X connect 15 5 32 0;
#X connect 15 6 33 0;
#X connect 15 7 34 0;
#X connect 16 0 142 0;
#X connect 17 0 18 0;
#X connect 17 0 138 1;
#X connect 18 0 14 0;
#X connect 19 0 35 0;
#X connect 20 0 16 0;
#X connect 21 0 5 0;
#X connect 21 0 17 0;
#X connect 22 0 21 0;
#X connect 22 0 24 0;
#X connect 22 0 25 0;
#X connect 24 0 6 1;
#X connect 25 0 18 1;
#X connect 26 0 13 0;
#X connect 27 0 13 0;
#X connect 28 0 35 0;
#X connect 29 0 35 0;
#X connect 30 0 35 0;
#X connect 31 0 35 0;
#X connect 32 0 35 0;
#X connect 33 0 35 0;
#X connect 34 0 35 0;
#X connect 35 0 20 0;
#X connect 36 0 47 0;
#X connect 37 0 48 0;
#X connect 38 0 49 0;
#X connect 39 0 50 0;
#X connect 40 0 51 0;
#X connect 41 0 52 0;
#X connect 42 0 53 0;
#X connect 43 0 54 0;
#X connect 44 0 55 0;
#X connect 45 0 56 0;
#X connect 46 0 36 0;
#X connect 46 0 45 0;
#X connect 46 0 44 0;
#X connect 46 0 43 0;
#X connect 46 0 42 0;
#X connect 46 0 41 0;
#X connect 46 0 40 0;
#X connect 46 0 39 0;
#X connect 46 0 38 0;
#X connect 46 0 37 0;
#X connect 47 0 57 0;
#X connect 48 0 59 0;
#X connect 49 0 61 0;
#X connect 50 0 63 0;
#X connect 51 0 65 0;
#X connect 52 0 67 0;
#X connect 53 0 69 0;
#X connect 54 0 71 0;
#X connect 55 0 73 0;
#X connect 56 0 75 0;
#X connect 57 0 58 0;
#X connect 58 0 1 0;
#X connect 59 0 60 0;
#X connect 60 0 1 0;
#X connect 61 0 62 0;
#X connect 62 0 1 0;
#X connect 63 0 64 0;
#X connect 64 0 1 0;
#X connect 65 0 66 0;
#X connect 66 0 1 0;
#X connect 67 0 68 0;
#X connect 68 0 1 0;
#X connect 69 0 70 0;
#X connect 70 0 1 0;
#X connect 71 0 72 0;
#X connect 72 0 1 0;
#X connect 73 0 74 0;
#X connect 74 0 1 0;
#X connect 75 0 76 0;
#X connect 76 0 1 0;
#X connect 77 0 58 1;
#X connect 78 0 60 1;
#X connect 79 0 62 1;
#X connect 80 0 64 1;
#X connect 81 0 66 1;
#X connect 82 0 68 1;
#X connect 83 0 70 1;
#X connect 84 0 72 1;
#X connect 85 0 74 1;
#X connect 86 0 76 1;
#X connect 87 0 97 0;
#X connect 88 0 98 0;
#X connect 89 0 99 0;
#X connect 90 0 100 0;
#X connect 91 0 101 0;
#X connect 92 0 102 0;
#X connect 93 0 103 0;
#X connect 94 0 104 0;
#X connect 95 0 105 0;
#X connect 96 0 106 0;
#X connect 97 0 107 0;
#X connect 98 0 109 0;
#X connect 99 0 111 0;
#X connect 100 0 113 0;
#X connect 101 0 115 0;
#X connect 102 0 117 0;
#X connect 103 0 119 0;
#X connect 104 0 121 0;
#X connect 105 0 123 0;
#X connect 106 0 125 0;
#X connect 107 0 108 0;
#X connect 108 0 136 0;
#X connect 109 0 110 0;
#X connect 110 0 136 0;
#X connect 111 0 112 0;
#X connect 112 0 136 0;
#X connect 113 0 114 0;
#X connect 114 0 136 0;
#X connect 115 0 116 0;
#X connect 116 0 136 0;
#X connect 117 0 118 0;
#X connect 118 0 136 0;
#X connect 119 0 120 0;
#X connect 120 0 136 0;
#X connect 121 0 122 0;
#X connect 122 0 136 0;
#X connect 123 0 124 0;
#X connect 124 0 136 0;
#X connect 125 0 126 0;
#X connect 126 0 136 0;
#X connect 127 0 108 1;
#X connect 128 0 120 1;
#X connect 129 0 110 1;
#X connect 130 0 112 1;
#X connect 131 0 114 1;
#X connect 132 0 116 1;
#X connect 133 0 118 1;
#X connect 134 0 122 1;
#X connect 135 0 124 1;
#X connect 136 0 138 0;
#X connect 137 0 0 0;
#X connect 138 0 0 0;
#X connect 141 0 126 1;
#X connect 142 0 87 0;
#X connect 142 0 96 0;
#X connect 142 0 95 0;
#X connect 142 0 94 0;
#X connect 142 0 93 0;
#X connect 142 0 92 0;
#X connect 142 0 91 0;
#X connect 142 0 90 0;
#X connect 142 0 89 0;
#X connect 142 0 88 0;
#X connect 145 0 141 0;
#X connect 145 0 135 0;
#X connect 145 0 134 0;
#X connect 145 0 133 0;
#X connect 145 0 132 0;
#X connect 145 0 131 0;
#X connect 145 0 130 0;
#X connect 145 0 129 0;
#X connect 145 0 128 0;
#X connect 145 0 127 0;
#X connect 146 0 86 0;
#X connect 146 0 85 0;
#X connect 146 0 84 0;
#X connect 146 0 83 0;
#X connect 146 0 82 0;
#X connect 146 0 81 0;
#X connect 146 0 80 0;
#X connect 146 0 79 0;
#X connect 146 0 78 0;
#X connect 146 0 77 0;
