#N canvas 80 69 1240 1346 12;
#X obj 200 300 osc~ 262;
#X obj 200 400 *~;
#X obj 300 200 bng 19 250 50 0 empty empty empty 0 -10 0 12 #e3c6ff
#000000 #000000;
#X msg 300 300 0.5 100;
#X obj 300 370 line~ 0 3;
#X obj 370 300 delay 500;
#X msg 370 330 0 100;
#X obj 200 600 +~;
#X obj 250 570 hsl 162 19 0 127 0 0 empty empty empty -2 -10 0 12 #ff9e9e
#000000 #000000 0 1;
#X obj 250 600 mtof;
#X floatatom 250 630 8 0 0 0 - - -, f 8;
#X obj 250 660 osc~ 65;
#X obj 200 760 *~ -1;
#X obj 200 900 *~;
#X obj 240 830 hsl 162 19 0 2 0 0 empty empty empty -2 -10 0 12 #fffb8f
#000000 #000000 0 1;
#X floatatom 240 860 5 0 0 0 - - -, f 5;
#X obj 200 940 delwrite~ feedback 1000;
#X obj 600 300 hsl 350 19 0 1000 0 0 empty empty empty -2 -10 0 12
#70c1ff #000000 #000000 0 1;
#X floatatom 600 330 5 0 0 0 - - -, f 5;
#X obj 600 360 delread~ feedback 300;
#X obj 600 380 hip~ 40;
#X obj 600 420 *~ 0.1;
#X obj 200 790 expr~ $v1 - 1.0/3 * pow($v1 \, 3);
#X obj 200 700 *~;
#X obj 200 730 clip~ -1 1;
#X text 200 100 https://www.youtube.com/watch?v=SCEHW_6iy7A;
#X text 960 300 <- delay time;
#X text 760 360 <- read from delay buffer;
#X text 660 420 <- attenuate output;
#X text 660 380 <- remove subaudio;
#X text 430 570 <- modulator pitch;
#X text 230 700 <- ring modulation;
#X text 280 730 <- prevent it from blowing up;
#X text 430 790 <- saturator expression;
#X text 420 830 <- gain;
#X obj 600 1000 outlet~;
#X text 330 200 <- send audio;
#X connect 0 0 1 0;
#X connect 1 0 7 0;
#X connect 2 0 3 0;
#X connect 2 0 5 0;
#X connect 3 0 4 0;
#X connect 4 0 1 1;
#X connect 5 0 6 0;
#X connect 6 0 4 0;
#X connect 7 0 23 0;
#X connect 8 0 9 0;
#X connect 9 0 10 0;
#X connect 10 0 11 0;
#X connect 11 0 23 1;
#X connect 12 0 22 0;
#X connect 13 0 16 0;
#X connect 14 0 15 0;
#X connect 15 0 13 1;
#X connect 17 0 18 0;
#X connect 18 0 19 0;
#X connect 19 0 20 0;
#X connect 20 0 21 0;
#X connect 20 0 7 1;
#X connect 21 0 35 0;
#X connect 22 0 13 0;
#X connect 23 0 24 0;
#X connect 24 0 12 0;
