#N canvas 80 69 1240 1346 12;
#X obj 200 800 catch~ \$0-L;
#X obj 200 850 expr~ tanh($v1);
#X obj 400 850 expr~ tanh($v1);
#X obj 400 800 catch~ \$0-R;
#X obj 400 200 tgl 19 0 empty empty empty 0 -10 0 12 #fcfcfc #000000
#000000 1 1;
#X obj 200 400 +;
#X obj 200 700 throw~ \$0-L;
#X obj 290 700 throw~ \$0-R;
#X obj 380 700 throw~ \$0-delayL;
#X obj 500 700 throw~ \$0-delayR;
#X obj 200 900 outlet~;
#X obj 400 900 outlet~;
#X obj 800 200 tgl 19 0 empty empty empty 0 -10 0 12 #fcfcfc #000000
#000000 1 1;
#N canvas 80 69 1240 1346 sawthing 0;
#X obj 300 500 loadbang;
#X obj 300 560 mtof;
#X obj 300 590 phasor~;
#X obj 300 620 hip~ 20;
#X obj 500 300 metro 1000;
#X obj 500 520 random 80;
#X obj 500 550 + 36;
#X floatatom 500 580 5 0 0 0 - - -, f 5;
#X msg 500 610 \$1 1000;
#X obj 500 640 line 0 3;
#X floatatom 500 670 7 0 0 0 - - -, f 7;
#X obj 500 800 bob~;
#X obj 600 670 loadbang;
#X msg 600 704 3;
#X obj 600 360 random 5000;
#X floatatom 600 420 7 0 0 0 - - -, f 7;
#X obj 600 390 + 3000;
#X obj 500 700 mtof;
#X msg 300 530 24;
#X obj 500 200 inlet;
#X obj 500 250 tgl 15 0 empty empty empty 17 7 0 10 #fcfcfc #000000
#000000 1 1;
#X obj 600 200 r \$0-lengthPhasor;
#X obj 800 200 inlet;
#X obj 800 280 s \$0-sawlume;
#X obj 800 240 sq/rmp/map 127 0 0.8;
#X obj 600 450 s \$0-lengthPhasor;
#X obj 500 900 outlet~;
#X obj 500 850 *~ 0;
#X obj 600 800 r \$0-sawlume;
#X connect 0 0 18 0;
#X connect 1 0 2 0;
#X connect 2 0 3 0;
#X connect 3 0 11 0;
#X connect 4 0 5 0;
#X connect 4 0 14 0;
#X connect 5 0 6 0;
#X connect 6 0 7 0;
#X connect 7 0 8 0;
#X connect 8 0 9 0;
#X connect 9 0 10 0;
#X connect 10 0 17 0;
#X connect 11 0 27 0;
#X connect 12 0 13 0;
#X connect 13 0 11 2;
#X connect 14 0 16 0;
#X connect 15 0 25 0;
#X connect 16 0 15 0;
#X connect 17 0 11 1;
#X connect 18 0 1 0;
#X connect 19 0 20 0;
#X connect 20 0 4 0;
#X connect 21 0 4 1;
#X connect 22 0 24 0;
#X connect 24 0 23 0;
#X connect 27 0 26 0;
#X connect 28 0 27 1;
#X restore 600 500 pd sawthing;
#X obj 1000 200 hsl 128 15 0 127 0 0 empty empty empty -2 -8 0 10 #fcfcfc
#000000 #000000 9650 1;
#X floatatom 400 300 5 0 0 0 - - -, f 5;
#X obj 200 200 hsl 128 15 0 127 0 0 empty empty empty -2 -8 0 10 #fcfcfc
#000000 #000000 12700 1;
#X floatatom 200 300 5 0 0 0 - - -, f 5;
#X obj 200 230 sq/rmp/map 0 127 0 9;
#N canvas 80 69 1240 1346 theremod2 0;
#X obj 200 300 metro 1000;
#X obj 200 440 random 10;
#X floatatom 200 470 5 0 0 0 - - -, f 5;
#X obj 200 500 sel 0 1 2 3 4 5 6 7 8 9, f 52;
#X msg 200 550 59;
#X msg 200 600 \$1 500;
#X obj 200 624 line 0 3;
#X msg 240 550 60;
#X msg 280 550 61;
#X msg 320 550 62;
#X msg 360 550 63;
#X msg 560 550 75;
#X msg 520 550 74;
#X msg 480 550 72;
#X msg 440 550 68;
#X msg 400 550 67;
#X floatatom 200 648 7 0 0 0 - - -, f 7;
#X obj 300 350 random 5000;
#X obj 300 374 + 800;
#X floatatom 300 398 7 0 0 0 - - -, f 7;
#X obj 300 421 s \$0-length;
#X obj 300 200 r \$0-length;
#X obj 200 240 tgl 19 0 empty empty empty 0 -10 0 12 #fcfcfc #000000
#000000 1 1;
#X obj 200 200 inlet;
#X obj 200 700 outlet;
#X connect 0 0 1 0;
#X connect 0 0 17 0;
#X connect 1 0 2 0;
#X connect 2 0 3 0;
#X connect 3 0 4 0;
#X connect 3 1 7 0;
#X connect 3 2 8 0;
#X connect 3 3 9 0;
#X connect 3 4 10 0;
#X connect 3 5 15 0;
#X connect 3 6 14 0;
#X connect 3 7 13 0;
#X connect 3 8 12 0;
#X connect 3 9 11 0;
#X connect 4 0 5 0;
#X connect 5 0 6 0;
#X connect 6 0 16 0;
#X connect 7 0 5 0;
#X connect 8 0 5 0;
#X connect 9 0 5 0;
#X connect 10 0 5 0;
#X connect 11 0 5 0;
#X connect 12 0 5 0;
#X connect 13 0 5 0;
#X connect 14 0 5 0;
#X connect 15 0 5 0;
#X connect 16 0 24 0;
#X connect 17 0 18 0;
#X connect 18 0 19 0;
#X connect 19 0 20 0;
#X connect 21 0 0 1;
#X connect 22 0 0 0;
#X connect 23 0 22 0;
#X restore 400 250 pd theremod2;
#X text 1000 170 saw volume:;
#N canvas 930 69 1240 1346 vibrato 0;
#X obj 230 436 tgl 19 0 empty empty empty 0 -10 0 12 #fcfcfc #000000
#000000 1 1;
#X obj 200 500 snapshot~;
#X floatatom 200 530 9 0 0 0 - - -, f 9;
#X floatatom 200 280 5 0 0 0 - - -, f 5;
#X obj 230 460 metro 10;
#X obj 200 600 outlet;
#X obj 200 200 inlet;
#X obj 200 320 osc~ 0;
#X obj 230 400 loadbang;
#X connect 0 0 4 0;
#X connect 1 0 2 0;
#X connect 2 0 5 0;
#X connect 3 0 7 0;
#X connect 4 0 1 0;
#X connect 6 0 3 0;
#X connect 7 0 1 0;
#X connect 8 0 0 0;
#X restore 200 260 pd vibrato;
#N canvas 80 69 1240 1346 stereo_delay 0;
#X obj 200 199 catch~ \$0-delayL;
#X obj 200 224 expr~ tanh($v1);
#X obj 200 248 hip~ 600;
#X obj 200 272 lop~ 6000;
#X obj 200 296 delwrite~ buffL 666;
#X obj 200 344 *~ 0.85;
#X obj 200 399 throw~ \$0-R;
#X obj 290 399 throw~ \$0-delayR;
#X obj 500 224 expr~ tanh($v1);
#X obj 500 248 hip~ 600;
#X obj 500 272 lop~ 6000;
#X obj 500 345 *~ 0.85;
#X obj 500 199 catch~ \$0-delayR;
#X obj 500 296 delwrite~ buffR 666;
#X obj 500 399 throw~ \$0-L;
#X obj 590 399 throw~ \$0-delayL;
#X obj 200 320 delread~ buffL 547;
#X obj 500 321 delread~ buffR 293;
#X text 200 100 stereo delay (with feedback);
#X connect 0 0 1 0;
#X connect 1 0 2 0;
#X connect 2 0 3 0;
#X connect 3 0 4 0;
#X connect 5 0 6 0;
#X connect 5 0 7 0;
#X connect 8 0 9 0;
#X connect 9 0 10 0;
#X connect 10 0 13 0;
#X connect 11 0 14 0;
#X connect 11 0 15 0;
#X connect 12 0 8 0;
#X connect 16 0 5 0;
#X connect 17 0 11 0;
#X restore 200 750 pd stereo_delay;
#X text 520 850 <- saturation on outputs;
#X text 200 170 thermin vibrato:, f 18;
#N canvas 1179 311 1240 1346 theremin 0;
#X obj 200 240 mtof;
#X floatatom 200 280 8 0 0 0 - - -, f 8;
#X obj 200 320 osc~;
#X obj 200 360 expr~ tanh($v1);
#X obj 200 500 *~ 0.3;
#X text 320 360 <- saturation for sine;
#X text 240 320 <- sine wave;
#X obj 200 200 inlet;
#X obj 200 600 outlet~;
#X obj 500 200 inlet;
#X floatatom 260 460 5 0 0 0 - - -, f 5;
#X obj 260 430 r \$0-thereminVolume;
#X obj 500 280 s \$0-thereminVolume;
#X obj 500 240 sq/rmp/map 127 0 0.3;
#X connect 0 0 1 0;
#X connect 1 0 2 0;
#X connect 2 0 3 0;
#X connect 3 0 4 0;
#X connect 4 0 8 0;
#X connect 7 0 0 0;
#X connect 9 0 13 0;
#X connect 10 0 4 1;
#X connect 11 0 10 0;
#X connect 13 0 12 0;
#X restore 200 500 pd theremin;
#X text 200 100 vintage horror patch!;
#X obj 600 200 hsl 128 15 0 127 0 0 empty empty empty -2 -8 0 10 #fcfcfc
#000000 #000000 4500 1;
#X text 600 170 theremin volume:;
#X text 800 170 saw modulation toggle:;
#X text 400 160 thermin modulation toggle:, f 18;
#X text 400 100 originally from here:https://www.youtube.com/watch?v=L_g3_n_QRKY
;
#X connect 0 0 1 0;
#X connect 1 0 10 0;
#X connect 2 0 11 0;
#X connect 3 0 2 0;
#X connect 4 0 19 0;
#X connect 5 0 25 0;
#X connect 12 0 13 0;
#X connect 13 0 9 0;
#X connect 13 0 8 0;
#X connect 13 0 7 0;
#X connect 13 0 6 0;
#X connect 14 0 13 1;
#X connect 15 0 5 1;
#X connect 16 0 18 0;
#X connect 17 0 5 0;
#X connect 18 0 21 0;
#X connect 19 0 15 0;
#X connect 21 0 17 0;
#X connect 25 0 9 0;
#X connect 25 0 8 0;
#X connect 25 0 7 0;
#X connect 25 0 6 0;
#X connect 27 0 25 1;
