#N canvas 1320 71 1240 1344 12;
#X obj 202 320 outlet~;
#X text 200 130 Comment: Taken from Andy Farnell's work.;
#X text 200 100 Description: Generates a wind sound.;
#N canvas 813 512 705 639 wind 1;
#X obj 200 640 vcf~ 600 23;
#X obj 300 640 vcf~ 600 23;
#X obj 200 700 *~;
#X obj 130 420 lop~ 1;
#X obj 280 380 lop~ 0.1;
#X obj 600 370 lop~ 0.19;
#X obj 280 470 +~;
#X obj 420 240 osc~ 0.03;
#X obj 600 460 +~;
#X obj 420 275 +~;
#X obj 500 240 osc~ 0.3;
#X obj 200 730 bp~ 1000 7;
#X obj 200 900 outlet~;
#X msg 390 600 20;
#X obj 130 446 *~;
#X obj 200 240 *~;
#X obj 200 200 noise~;
#X obj 200 670 *~ 0.15;
#X msg 290 600 14;
#X obj 420 330 *~ 300;
#X obj 600 400 *~ 180000;
#X obj 280 410 *~ 100000;
#X obj 420 300 *~ 0.25;
#X obj 130 472 *~ 1000;
#X obj 130 498 +~ 0.65;
#X obj 420 360 +~ 100;
#X obj 600 430 clip~ 300 1000;
#X obj 280 440 clip~ 250 1000;
#X obj 200 760 *~ 44;
#X obj 250 200 inlet~;
#X obj 340 550 loadbang;
#X connect 0 0 17 0;
#X connect 1 0 17 0;
#X connect 2 0 11 0;
#X connect 3 0 14 0;
#X connect 3 0 14 1;
#X connect 4 0 21 0;
#X connect 5 0 20 0;
#X connect 6 0 0 1;
#X connect 7 0 9 0;
#X connect 8 0 1 1;
#X connect 9 0 22 0;
#X connect 10 0 9 1;
#X connect 11 0 28 0;
#X connect 13 0 1 2;
#X connect 14 0 23 0;
#X connect 15 0 0 0;
#X connect 15 0 1 0;
#X connect 15 0 3 0;
#X connect 15 0 4 0;
#X connect 15 0 5 0;
#X connect 16 0 15 0;
#X connect 17 0 2 0;
#X connect 18 0 0 2;
#X connect 19 0 25 0;
#X connect 20 0 26 0;
#X connect 21 0 27 0;
#X connect 22 0 19 0;
#X connect 23 0 24 0;
#X connect 24 0 2 1;
#X connect 25 0 6 1;
#X connect 25 0 8 1;
#X connect 26 0 8 0;
#X connect 27 0 6 0;
#X connect 28 0 12 0;
#X connect 29 0 15 1;
#X connect 30 0 13 0;
#X connect 30 0 18 0;
#X restore 202 240 pd wind;
#X obj 202 200 r \$0-strength;
#X obj 400 200 r \$0-strength;
#X obj 500 200 r \$0-controls;
#X floatatom 500 230 5 0 0 0 - - -, f 5;
#X floatatom 400 240 5 0 0 0 - - -, f 5;
#X obj 700 400 loadbang;
#X obj 730 340 s \$0-gain;
#X obj 800 200 inlet modulation-add;
#X obj 960 200 inlet modulation-multiply;
#X obj 700 200 r \$0-values;
#X obj 800 230 list prepend add;
#X obj 960 230 list prepend mul;
#X obj 400 300 inlet controls;
#X obj 400 330 s \$0-controls;
#X obj 700 370 s \$0-strength;
#X msg 700 430 0.3 0.499;
#N canvas 871 531 948 682 list-functions 0;
#X obj 100 140 s \$0-controls;
#N canvas 0 22 482 332 list-enumerate 0;
#N canvas 473 338 458 308 count 0;
#X obj 131 154 f 0;
#X obj 156 153 + 1;
#X msg 147 133 0;
#X obj 131 183 outlet;
#X obj 131 59 inlet;
#X obj 131 96 b;
#X obj 178 61 inlet;
#X obj 178 98 b;
#X connect 0 0 1 0;
#X connect 0 0 3 0;
#X connect 1 0 0 1;
#X connect 2 0 0 1;
#X connect 4 0 5 0;
#X connect 5 0 0 0;
#X connect 6 0 7 0;
#X connect 7 0 2 0;
#X restore 186 155 pd count;
#X obj 107 113 t a b;
#X obj 107 33 inlet;
#X obj 107 181 list prepend;
#X obj 112 253 outlet;
#N canvas 0 22 541 415 drip 0;
#X obj 64 206 list split 1;
#X obj 64 123 until;
#X obj 64 181 list append;
#X obj 194 206 bang;
#X text 146 90 First store list \, then start the loop;
#X text 163 118 "until" bangs its output until told to stop by a "bang"
to its right inlet.;
#X text 182 160 Store the remaining list.;
#X text 239 205 third outlet of "split" tells us to stop.;
#X obj 64 243 outlet;
#X obj 64 57 inlet;
#X text 237 44 From list-help.pd;
#X obj 143 243 outlet;
#X obj 64 86 t b a;
#X connect 0 0 8 0;
#X connect 0 1 2 1;
#X connect 0 2 3 0;
#X connect 0 2 11 0;
#X connect 1 0 2 0;
#X connect 2 0 0 0;
#X connect 3 0 1 1;
#X connect 9 0 12 0;
#X connect 12 0 1 0;
#X connect 12 1 2 1;
#X restore 110 88 pd drip;
#X obj 107 63 t a b;
#X connect 0 0 3 1;
#X connect 1 0 3 0;
#X connect 1 1 0 0;
#X connect 2 0 6 0;
#X connect 3 0 4 0;
#X connect 5 0 1 0;
#X connect 6 0 5 0;
#X connect 6 1 0 1;
#X restore 100 100 pd list-enumerate;
#N canvas 0 22 498 348 list-enumerate 0;
#N canvas 473 338 458 308 count 0;
#X obj 131 154 f 0;
#X obj 156 153 + 1;
#X msg 147 133 0;
#X obj 131 183 outlet;
#X obj 131 59 inlet;
#X obj 131 96 b;
#X obj 178 61 inlet;
#X obj 178 98 b;
#X connect 0 0 1 0;
#X connect 0 0 3 0;
#X connect 1 0 0 1;
#X connect 2 0 0 1;
#X connect 4 0 5 0;
#X connect 5 0 0 0;
#X connect 6 0 7 0;
#X connect 7 0 2 0;
#X restore 186 155 pd count;
#X obj 107 113 t a b;
#X obj 107 33 inlet;
#X obj 107 181 list prepend;
#X obj 112 253 outlet;
#N canvas 0 22 541 415 drip 0;
#X obj 64 206 list split 1;
#X obj 64 123 until;
#X obj 64 181 list append;
#X obj 194 206 bang;
#X text 146 90 First store list \, then start the loop;
#X text 163 118 "until" bangs its output until told to stop by a "bang"
to its right inlet.;
#X text 182 160 Store the remaining list.;
#X text 239 205 third outlet of "split" tells us to stop.;
#X obj 64 243 outlet;
#X obj 64 57 inlet;
#X text 237 44 From list-help.pd;
#X obj 143 243 outlet;
#X obj 64 86 t b a;
#X connect 0 0 8 0;
#X connect 0 1 2 1;
#X connect 0 2 3 0;
#X connect 0 2 11 0;
#X connect 1 0 2 0;
#X connect 2 0 0 0;
#X connect 3 0 1 1;
#X connect 9 0 12 0;
#X connect 12 0 1 0;
#X connect 12 1 2 1;
#X restore 110 88 pd drip;
#X obj 194 215 t a;
#X obj 106 209 list prepend;
#X obj 107 63 t a b b;
#X connect 0 0 3 1;
#X connect 1 0 3 0;
#X connect 1 1 0 0;
#X connect 2 0 8 0;
#X connect 3 0 7 0;
#X connect 5 0 1 0;
#X connect 6 0 7 1;
#X connect 7 0 6 0;
#X connect 7 0 4 0;
#X connect 8 0 5 0;
#X connect 8 1 0 1;
#X connect 8 2 7 1;
#X restore 410 90 pd list-enumerate;
#X obj 100 260 r \$0-controls;
#X obj 290 90 r \$0-values;
#N canvas 283 65 551 703 replacelist 0;
#X obj 164 224 list;
#X obj 327 98 inlet;
#X obj 250 98 inlet;
#X text 331 72 orig;
#X text 256 74 pos;
#X text 77 70 list to insert;
#X obj 85 94 inlet;
#X obj 207 281 list split;
#X obj 85 526 list;
#X obj 85 598 outlet;
#X obj 85 317 list prepend;
#X obj 85 120 t a b a b;
#X obj 85 430 list prepend 0;
#X obj 250 125 t f f;
#X obj 207 524 list prepend;
#X obj 85 469 route 0 1;
#X obj 316 347 f;
#X obj 286 282 t a b;
#X obj 316 377 > 0;
#X obj 122 358 r \$0-init;
#X obj 122 377 0;
#X obj 300 524 r \$0-init;
#X obj 176 317 r \$0-init;
#X obj 118 527 r \$0-init;
#X obj 159 131 s \$0-init;
#X text 47 25 list-replace: Replace the list starting at position POS
with a new list \, overwriting the old elements.;
#N canvas 0 22 458 308 length 0;
#X obj 171 164 + 1;
#X obj 92 127 b;
#X obj 126 204 f;
#X obj 158 138 1;
#X obj 142 166 f 1;
#X obj 216 168 0;
#X obj 136 59 t a b b;
#N canvas 0 22 537 411 drip 0;
#X obj 64 206 list split 1;
#X obj 64 123 until;
#X obj 64 181 list append;
#X obj 194 206 bang;
#X text 146 90 First store list \, then start the loop;
#X text 163 118 "until" bangs its output until told to stop by a "bang"
to its right inlet.;
#X text 182 160 Store the remaining list.;
#X text 239 205 third outlet of "split" tells us to stop.;
#X obj 64 243 outlet;
#X obj 64 57 inlet;
#X text 237 44 From list-help.pd;
#X obj 143 243 outlet;
#X obj 64 86 t b a;
#X connect 0 0 8 0;
#X connect 0 1 2 1;
#X connect 0 2 3 0;
#X connect 0 2 11 0;
#X connect 1 0 2 0;
#X connect 2 0 0 0;
#X connect 3 0 1 1;
#X connect 9 0 12 0;
#X connect 12 0 1 0;
#X connect 12 1 2 1;
#X restore 92 104 pd drip;
#X obj 137 36 inlet;
#X obj 125 238 outlet;
#X connect 0 0 4 1;
#X connect 1 0 4 0;
#X connect 2 0 9 0;
#X connect 3 0 4 1;
#X connect 4 0 0 0;
#X connect 4 0 2 1;
#X connect 5 0 2 1;
#X connect 6 0 7 0;
#X connect 6 1 3 0;
#X connect 6 2 5 0;
#X connect 7 0 1 0;
#X connect 7 1 2 0;
#X connect 8 0 6 0;
#X restore 268 216 pd length;
#X obj 162 254 list split;
#X connect 0 0 27 0;
#X connect 1 0 0 1;
#X connect 2 0 13 0;
#X connect 6 0 11 0;
#X connect 7 1 8 1;
#X connect 7 1 14 1;
#X connect 8 0 9 0;
#X connect 10 0 12 0;
#X connect 11 0 10 0;
#X connect 11 1 0 0;
#X connect 11 2 26 0;
#X connect 11 3 24 0;
#X connect 12 0 15 0;
#X connect 13 0 27 1;
#X connect 13 1 16 1;
#X connect 14 0 9 0;
#X connect 15 0 8 0;
#X connect 15 1 14 0;
#X connect 16 0 18 0;
#X connect 17 0 14 1;
#X connect 17 0 8 1;
#X connect 17 1 16 0;
#X connect 18 0 12 1;
#X connect 19 0 20 0;
#X connect 20 0 12 1;
#X connect 21 0 14 1;
#X connect 22 0 10 1;
#X connect 23 0 8 1;
#X connect 26 0 7 1;
#X connect 27 0 10 1;
#X connect 27 1 7 0;
#X connect 27 2 17 0;
#X restore 290 220 pd replacelist;
#X obj 423 265 t a;
#X obj 290 120 swap;
#N canvas 0 22 545 419 drip2 0;
#X obj 64 123 until;
#X obj 64 181 list append;
#X obj 194 206 bang;
#X text 146 90 First store list \, then start the loop;
#X text 163 118 "until" bangs its output until told to stop by a "bang"
to its right inlet.;
#X text 182 160 Store the remaining list.;
#X text 239 205 third outlet of "split" tells us to stop.;
#X obj 64 243 outlet;
#X obj 64 57 inlet;
#X text 237 44 From list-help.pd;
#X obj 143 243 outlet;
#X obj 64 86 t b a;
#X obj 64 206 list split 2;
#X connect 0 0 1 0;
#X connect 1 0 12 0;
#X connect 2 0 0 1;
#X connect 8 0 11 0;
#X connect 11 0 0 0;
#X connect 11 1 1 1;
#X connect 12 0 7 0;
#X connect 12 1 1 1;
#X connect 12 2 2 0;
#X connect 12 2 10 0;
#X restore 209 282 pd drip2;
#X obj 250 10 inlet;
#X obj 150 330 route 0 1 2 3 4 5 6 7 8 9 10 11 12 13 14 15;
#X obj 150 370 s \$0-ra;
#X obj 160 400 s \$0-rb;
#X obj 150 430 s \$0-rc;
#X obj 170 460 s \$0-rd;
#X obj 210 370 s \$0-re;
#X obj 220 400 s \$0-rf;
#X obj 210 430 s \$0-rg;
#X obj 230 460 s \$0-rh;
#X obj 270 370 s \$0-ri;
#X obj 280 400 s \$0-rj;
#X obj 270 430 s \$0-rk;
#X obj 290 460 s \$0-rl;
#X obj 330 370 s \$0-rm;
#X obj 340 400 s \$0-rn;
#X obj 330 430 s \$0-ro;
#X obj 350 460 s \$0-rp;
#X obj 100 500 r \$0-a;
#X msg 100 530 0 \$1;
#X obj 150 500 r \$0-b;
#X msg 150 530 1 \$1;
#X obj 200 500 r \$0-c;
#X obj 250 500 r \$0-d;
#X msg 200 530 2 \$1;
#X msg 250 530 3 \$1;
#X obj 300 500 r \$0-e;
#X obj 350 500 r \$0-f;
#X obj 400 500 r \$0-g;
#X obj 450 500 r \$0-h;
#X msg 300 530 4 \$1;
#X msg 350 530 5 \$1;
#X msg 400 530 6 \$1;
#X msg 450 530 7 \$1;
#X obj 500 500 r \$0-i;
#X obj 550 500 r \$0-j;
#X obj 600 500 r \$0-k;
#X obj 650 500 r \$0-l;
#X obj 700 500 r \$0-m;
#X obj 750 500 r \$0-o;
#X obj 800 500 r \$0-p;
#X obj 850 500 r \$0-q;
#X msg 500 530 8 \$1;
#X msg 550 530 9 \$1;
#X msg 600 530 10 \$1;
#X msg 650 530 11 \$1;
#X msg 700 530 12 \$1;
#X msg 750 530 13 \$1;
#X msg 800 530 14 \$1;
#X msg 850 530 15 \$1;
#X obj 100 600 s \$0-values;
#X obj 380 130 list;
#X obj 250 50 t a b a;
#X obj 320 150 * 2;
#X obj 320 175 + 1;
#X obj 210 250 t a a;
#X obj 380 160 t;
#X connect 1 0 0 0;
#X connect 2 0 60 1;
#X connect 3 0 10 0;
#X connect 4 0 7 0;
#X connect 5 0 6 0;
#X connect 6 0 5 2;
#X connect 7 0 5 0;
#X connect 7 1 62 0;
#X connect 8 0 10 0;
#X connect 9 0 61 0;
#X connect 10 0 11 0;
#X connect 10 1 12 0;
#X connect 10 2 13 0;
#X connect 10 3 14 0;
#X connect 10 4 15 0;
#X connect 10 5 16 0;
#X connect 10 6 17 0;
#X connect 10 7 18 0;
#X connect 10 8 19 0;
#X connect 10 9 20 0;
#X connect 10 10 21 0;
#X connect 10 11 22 0;
#X connect 10 12 23 0;
#X connect 10 13 24 0;
#X connect 10 14 25 0;
#X connect 10 15 26 0;
#X connect 27 0 28 0;
#X connect 28 0 59 0;
#X connect 29 0 30 0;
#X connect 30 0 59 0;
#X connect 31 0 33 0;
#X connect 32 0 34 0;
#X connect 33 0 59 0;
#X connect 34 0 59 0;
#X connect 35 0 39 0;
#X connect 36 0 40 0;
#X connect 37 0 41 0;
#X connect 38 0 42 0;
#X connect 39 0 59 0;
#X connect 40 0 59 0;
#X connect 41 0 59 0;
#X connect 42 0 59 0;
#X connect 43 0 51 0;
#X connect 44 0 52 0;
#X connect 45 0 53 0;
#X connect 46 0 54 0;
#X connect 47 0 55 0;
#X connect 48 0 56 0;
#X connect 49 0 57 0;
#X connect 50 0 58 0;
#X connect 51 0 59 0;
#X connect 52 0 59 0;
#X connect 53 0 59 0;
#X connect 54 0 59 0;
#X connect 55 0 59 0;
#X connect 56 0 59 0;
#X connect 57 0 59 0;
#X connect 58 0 59 0;
#X connect 60 0 65 0;
#X connect 61 0 1 0;
#X connect 61 1 60 0;
#X connect 61 2 2 0;
#X connect 62 0 63 0;
#X connect 63 0 5 1;
#X connect 64 0 8 0;
#X connect 64 1 5 2;
#X connect 65 0 5 2;
#X restore 700 460 pd list-functions;
#X obj 200 400 hsl 128 15 0 1 0 0 \$0-a \$0-ra strength -2 -8 0 10
#fcfcfc #000000 #000000 3550 1;
#N canvas 80 107 1478 1029 routing_n_whatnot 0;
#X obj 217 569 +;
#X obj 217 548 t b f;
#X obj 198 380 route 0 1 2 3 4 5 6 7;
#X obj 360 520 route 0 1 2 3 4 5 6 7;
#X obj 254 569 +;
#X obj 254 548 t b f;
#X obj 291 569 +;
#X obj 291 548 t b f;
#X obj 328 569 +;
#X obj 328 548 t b f;
#X obj 364 569 +;
#X obj 364 548 t b f;
#X obj 402 569 +;
#X obj 402 548 t b f;
#X obj 439 569 +;
#X obj 439 548 t b f;
#X obj 476 569 +;
#X obj 476 548 t b f;
#X obj 200 200 inlet;
#X obj 215 788 outlet;
#X obj 271 784 outlet;
#X obj 324 787 outlet;
#X obj 380 787 outlet;
#X obj 434 784 outlet;
#X obj 486 784 outlet;
#X obj 541 783 outlet;
#X obj 608 782 outlet;
#X obj 200 700 clip 0 1;
#X obj 265 700 clip 0 1;
#X obj 330 700 clip 0 1;
#X obj 395 700 clip 0 1;
#X obj 460 700 clip 0 1;
#X obj 525 700 clip 0 1;
#X obj 590 700 clip 0 1;
#X obj 655 700 clip 0 1;
#X obj 530 490 route add mul;
#X obj 200 620 t b f;
#X obj 244 620 t b f;
#X obj 288 620 t b f;
#X obj 332 620 t b f;
#X obj 376 620 t b f;
#X obj 420 620 t b f;
#X obj 464 620 t b f;
#X obj 508 620 t b f;
#X obj 200 660 * 1;
#X obj 235 660 * 1;
#X obj 270 660 * 1;
#X obj 305 660 * 1;
#X obj 340 660 * 1;
#X obj 375 660 * 1;
#X obj 410 660 * 1;
#X obj 445 660 * 1;
#X obj 520 570 route 0 1 2 3 4 5 6 7;
#X obj 666 560 +;
#X obj 666 539 t b f;
#X obj 703 560 +;
#X obj 703 539 t b f;
#X obj 740 560 +;
#X obj 740 539 t b f;
#X obj 777 560 +;
#X obj 777 539 t b f;
#X obj 813 560 +;
#X obj 813 539 t b f;
#X obj 851 560 +;
#X obj 851 539 t b f;
#X obj 888 560 +;
#X obj 888 539 t b f;
#X obj 925 560 +;
#X obj 925 539 t b f;
#X obj 664 779 outlet;
#X obj 720 775 outlet;
#X obj 773 778 outlet;
#X obj 829 778 outlet;
#X obj 883 775 outlet;
#X obj 935 775 outlet;
#X obj 990 774 outlet;
#X obj 1057 773 outlet;
#X obj 740 700 clip 0 1;
#X obj 805 700 clip 0 1;
#X obj 870 700 clip 0 1;
#X obj 935 700 clip 0 1;
#X obj 1000 700 clip 0 1;
#X obj 1065 700 clip 0 1;
#X obj 1130 700 clip 0 1;
#X obj 1195 700 clip 0 1;
#X obj 983 466 route add mul;
#X obj 740 620 t b f;
#X obj 784 620 t b f;
#X obj 828 620 t b f;
#X obj 872 620 t b f;
#X obj 916 620 t b f;
#X obj 960 620 t b f;
#X obj 1004 620 t b f;
#X obj 1048 620 t b f;
#X obj 740 660 * 1;
#X obj 775 660 * 1;
#X obj 810 660 * 1;
#X obj 845 660 * 1;
#X obj 880 660 * 1;
#X obj 915 660 * 1;
#X obj 950 660 * 1;
#X obj 985 660 * 1;
#X obj 809 504 route 8 9 10 11 12 13 14 5;
#X obj 970 560 route 8 9 10 11 12 13 14 15;
#X msg 190 410 \$1 20;
#X msg 210 430 \$1 20;
#X msg 236 408 \$1 20;
#X msg 251 430 \$1 20;
#X msg 277 408 \$1 20;
#X msg 292 430 \$1 20;
#X msg 318 408 \$1 20;
#X msg 333 430 \$1 20;
#X obj 208 460 line 0 1;
#X obj 220 490 line 0 1;
#X obj 280 460 line 0 1;
#X obj 290 490 line 0 1;
#X obj 350 460 line 0 1;
#X obj 360 490 line 0 1;
#X obj 420 460 line 0 1;
#X obj 430 490 line 0 1;
#X msg 617 349 \$1 20;
#X msg 630 369 \$1 20;
#X msg 658 350 \$1 20;
#X msg 671 370 \$1 20;
#X msg 699 349 \$1 20;
#X msg 712 369 \$1 20;
#X msg 740 350 \$1 20;
#X msg 753 370 \$1 20;
#X obj 628 409 line 0 1;
#X obj 700 410 line 0 1;
#X obj 710 440 line 0 1;
#X obj 770 410 line 0 1;
#X obj 780 440 line 0 1;
#X obj 840 410 line 0 1;
#X obj 850 440 line 0 1;
#X obj 620 320 route 8 9 10 11 12 13 14 15;
#X obj 640 440 line 0 1;
#X obj 961 392 list trim;
#X obj 965 370 inlet;
#X connect 0 0 44 0;
#X connect 1 0 0 0;
#X connect 1 1 0 1;
#X connect 2 0 104 0;
#X connect 2 1 105 0;
#X connect 2 2 106 0;
#X connect 2 3 107 0;
#X connect 2 4 108 0;
#X connect 2 5 109 0;
#X connect 2 6 110 0;
#X connect 2 7 111 0;
#X connect 3 0 0 0;
#X connect 3 1 4 0;
#X connect 3 2 6 0;
#X connect 3 3 8 0;
#X connect 3 4 10 0;
#X connect 3 5 12 0;
#X connect 3 6 14 0;
#X connect 3 7 16 0;
#X connect 4 0 45 0;
#X connect 5 0 4 0;
#X connect 5 1 4 1;
#X connect 6 0 46 0;
#X connect 7 0 6 0;
#X connect 7 1 6 1;
#X connect 8 0 47 0;
#X connect 9 0 8 0;
#X connect 9 1 8 1;
#X connect 10 0 48 0;
#X connect 11 0 10 0;
#X connect 11 1 10 1;
#X connect 12 0 49 0;
#X connect 13 0 12 0;
#X connect 13 1 12 1;
#X connect 14 0 50 0;
#X connect 15 0 14 0;
#X connect 15 1 14 1;
#X connect 16 0 51 0;
#X connect 17 0 16 0;
#X connect 17 1 16 1;
#X connect 18 0 2 0;
#X connect 18 0 135 0;
#X connect 27 0 19 0;
#X connect 28 0 20 0;
#X connect 29 0 21 0;
#X connect 30 0 22 0;
#X connect 31 0 23 0;
#X connect 32 0 24 0;
#X connect 33 0 25 0;
#X connect 34 0 26 0;
#X connect 35 0 3 0;
#X connect 35 1 52 0;
#X connect 36 0 44 0;
#X connect 36 1 44 1;
#X connect 37 0 45 0;
#X connect 37 1 45 1;
#X connect 38 0 46 0;
#X connect 38 1 46 1;
#X connect 39 0 47 0;
#X connect 39 1 47 1;
#X connect 40 0 48 0;
#X connect 40 1 48 1;
#X connect 41 0 49 0;
#X connect 41 1 49 1;
#X connect 42 0 50 0;
#X connect 42 1 50 1;
#X connect 43 0 51 0;
#X connect 43 1 51 1;
#X connect 44 0 27 0;
#X connect 45 0 28 0;
#X connect 46 0 29 0;
#X connect 47 0 30 0;
#X connect 48 0 31 0;
#X connect 49 0 32 0;
#X connect 50 0 33 0;
#X connect 51 0 34 0;
#X connect 52 0 36 0;
#X connect 52 1 37 0;
#X connect 52 2 38 0;
#X connect 52 3 39 0;
#X connect 52 4 40 0;
#X connect 52 5 41 0;
#X connect 52 6 42 0;
#X connect 52 7 43 0;
#X connect 53 0 94 0;
#X connect 54 0 53 0;
#X connect 54 1 53 1;
#X connect 55 0 95 0;
#X connect 56 0 55 0;
#X connect 56 1 55 1;
#X connect 57 0 96 0;
#X connect 58 0 57 0;
#X connect 58 1 57 1;
#X connect 59 0 97 0;
#X connect 60 0 59 0;
#X connect 60 1 59 1;
#X connect 61 0 98 0;
#X connect 62 0 61 0;
#X connect 62 1 61 1;
#X connect 63 0 99 0;
#X connect 64 0 63 0;
#X connect 64 1 63 1;
#X connect 65 0 100 0;
#X connect 66 0 65 0;
#X connect 66 1 65 1;
#X connect 67 0 101 0;
#X connect 68 0 67 0;
#X connect 68 1 67 1;
#X connect 77 0 69 0;
#X connect 78 0 70 0;
#X connect 79 0 71 0;
#X connect 80 0 72 0;
#X connect 81 0 73 0;
#X connect 82 0 74 0;
#X connect 83 0 75 0;
#X connect 84 0 76 0;
#X connect 85 0 102 0;
#X connect 85 1 103 0;
#X connect 86 0 94 0;
#X connect 86 1 94 1;
#X connect 87 0 95 0;
#X connect 87 1 95 1;
#X connect 88 0 96 0;
#X connect 88 1 96 1;
#X connect 89 0 97 0;
#X connect 89 1 97 1;
#X connect 90 0 98 0;
#X connect 90 1 98 1;
#X connect 91 0 99 0;
#X connect 91 1 99 1;
#X connect 92 0 100 0;
#X connect 92 1 100 1;
#X connect 93 0 101 0;
#X connect 93 1 101 1;
#X connect 94 0 77 0;
#X connect 95 0 78 0;
#X connect 96 0 79 0;
#X connect 97 0 80 0;
#X connect 98 0 81 0;
#X connect 99 0 82 0;
#X connect 100 0 83 0;
#X connect 101 0 84 0;
#X connect 102 0 53 0;
#X connect 102 1 55 0;
#X connect 102 2 57 0;
#X connect 102 3 59 0;
#X connect 102 4 61 0;
#X connect 102 5 63 0;
#X connect 102 6 65 0;
#X connect 102 7 67 0;
#X connect 103 0 86 0;
#X connect 103 1 87 0;
#X connect 103 2 88 0;
#X connect 103 3 89 0;
#X connect 103 4 90 0;
#X connect 103 5 91 0;
#X connect 103 6 92 0;
#X connect 103 7 93 0;
#X connect 104 0 112 0;
#X connect 105 0 113 0;
#X connect 106 0 114 0;
#X connect 107 0 115 0;
#X connect 108 0 116 0;
#X connect 109 0 117 0;
#X connect 110 0 118 0;
#X connect 111 0 119 0;
#X connect 112 0 1 0;
#X connect 113 0 5 0;
#X connect 114 0 7 0;
#X connect 115 0 9 0;
#X connect 116 0 11 0;
#X connect 117 0 13 0;
#X connect 118 0 15 0;
#X connect 119 0 17 0;
#X connect 120 0 128 0;
#X connect 121 0 136 0;
#X connect 122 0 129 0;
#X connect 123 0 130 0;
#X connect 124 0 131 0;
#X connect 125 0 132 0;
#X connect 126 0 133 0;
#X connect 127 0 134 0;
#X connect 128 0 54 0;
#X connect 129 0 58 0;
#X connect 130 0 60 0;
#X connect 131 0 62 0;
#X connect 132 0 64 0;
#X connect 133 0 66 0;
#X connect 134 0 68 0;
#X connect 135 0 120 0;
#X connect 135 1 121 0;
#X connect 135 2 122 0;
#X connect 135 3 123 0;
#X connect 135 4 124 0;
#X connect 135 5 125 0;
#X connect 135 6 126 0;
#X connect 135 7 127 0;
#X connect 136 0 56 0;
#X connect 137 0 35 0;
#X connect 137 0 85 0;
#X connect 138 0 137 0;
#X restore 700 300 pd routing_n_whatnot;
#X connect 3 0 0 0;
#X connect 4 0 3 0;
#X connect 5 0 8 0;
#X connect 6 0 7 0;
#X connect 9 0 19 0;
#X connect 11 0 14 0;
#X connect 12 0 15 0;
#X connect 13 0 22 0;
#X connect 14 0 22 1;
#X connect 15 0 22 1;
#X connect 16 0 17 0;
#X connect 19 0 20 0;
#X connect 22 0 18 0;
#X connect 22 1 10 0;
