#N canvas 21 94 897 1022 10;
#X obj 200 700 outlet;
#X obj 200 200 inlet;
#X obj 1750 700 f;
#X floatatom 300 400 5 0 0 0 - - -, f 5;
#X obj 200 500 demux;
#X text 340 400 switch level;
#X floatatom 300 460 5 0 0 0 - - -, f 5;
#X text 340 460 1 if yes \, 0 if no;
#X obj 400 200 inlet;
#X floatatom 400 260 5 0 0 0 - - -, f 5;
#X obj 350 290 bng 15 250 50 0 empty empty empty 17 7 0 10 #fcfcfc
#000000 #000000;
#X floatatom 200 570 5 0 0 0 - - -, f 5;
#X floatatom 240 570 5 0 0 0 - - -, f 5;
#X obj 300 200 inlet;
#X floatatom 300 260 5 0 0 0 - - -, f 5;
#X floatatom 400 320 5 0 0 0 - - -, f 5;
#X floatatom 200 380 5 0 0 0 - - -, f 5;
#X text 200 800 thank you to this guy: https://www.reddit.com/r/puredata/comments/4tj9bx/comment/d5hu9mi/
;
#X obj 300 430 <;
#X text 340 430 less than?;
#X text 200 100 sends a bang/input number if the second number is less
than the third number;
#X obj 300 700 outlet;
#X connect 1 0 16 0;
#X connect 3 0 18 0;
#X connect 4 0 11 0;
#X connect 4 1 12 0;
#X connect 6 0 4 1;
#X connect 8 0 9 0;
#X connect 9 0 15 0;
#X connect 9 0 10 0;
#X connect 10 0 15 0;
#X connect 10 0 16 0;
#X connect 10 0 3 0;
#X connect 11 0 21 0;
#X connect 12 0 0 0;
#X connect 13 0 14 0;
#X connect 14 0 3 0;
#X connect 14 0 10 0;
#X connect 15 0 18 1;
#X connect 16 0 4 0;
#X connect 18 0 6 0;
