#N canvas 1295 130 1265 1285 10;
#X obj 1850 700 f;
#X obj 200 700 outlet;
#X obj 200 400 change;
#X obj 200 330 env~;
#X obj 200 440 tgl 15 0 empty empty empty 17 7 0 10 #fcfcfc #000000
#000000 1 1;
#X obj 200 360 == 0;
#X obj 300 500 sq/rmp/bitflip;
#X obj 300 600 outlet;
#X obj 300 230 *~ -1;
#X obj 200 300 +~;
#X obj 300 200 inlet;
#X obj 200 200 inlet;
#X text 250 700 <- this box toggles if the input numbers are the same
;
#X text 350 600 <- this box toggles if the input numbers are different
;
#X text 200 100 this abstraction toggles on a box if both of the incoming
input numbers are the same;
#X connect 2 0 4 0;
#X connect 3 0 5 0;
#X connect 4 0 6 0;
#X connect 4 0 1 0;
#X connect 5 0 2 0;
#X connect 6 0 7 0;
#X connect 8 0 9 1;
#X connect 9 0 3 0;
#X connect 10 0 8 0;
#X connect 11 0 9 0;
