#N canvas 242 274 1093 778 12;
#X obj 200 200 inlet;
#X obj 300 200 inlet;
#X obj 200 500 *;
#X floatatom 300 240 5 0 0 0 - - -, f 5;
#X floatatom 300 340 5 0 0 0 - - -, f 5;
#X obj 300 300 clip 0 1;
#X obj 200 600 outlet;
#X obj 330 400 sq/rmp/bitflip;
#X obj 300 500 *;
#X obj 300 600 outlet;
#X obj 400 300 float 0;
#X obj 400 200 loadbang;
#X text 360 600 <-- the second outlet does the opposite. it passes
if the attached toggle box is inactive;
#X text 200 100 this simple abstraction lets numbers pass though if
an attached toggle box is toggled;
#X connect 0 0 2 0;
#X connect 0 0 8 0;
#X connect 1 0 3 0;
#X connect 2 0 6 0;
#X connect 3 0 5 0;
#X connect 4 0 2 1;
#X connect 4 0 7 0;
#X connect 5 0 4 0;
#X connect 7 0 8 1;
#X connect 8 0 9 0;
#X connect 10 0 4 0;
#X connect 11 0 10 0;
