#N canvas 10 27 1265 1303 10;
#X obj 200 200 inlet~;
#X obj 300 200 inlet~;
#X obj 1330 1900 f;
#X obj 400 200 inlet;
#X obj 200 700 outlet~;
#X obj 300 700 outlet~;
#X obj 400 250 tgl 15 1 empty empty empty 17 7 0 10 #fcfcfc #000000
#000000 0 127;
#X obj 500 300 outlet;
#X text 550 300 <- passthrough outlet;
#X obj 200 600 *~;
#X obj 300 600 *~;
#X msg 400 430 1;
#X msg 440 430 0;
#X floatatom 340 560 5 0 0 0 - - -, f 5;
#X floatatom 240 560 5 0 0 0 - - -, f 5;
#X obj 400 400 select 0;
#X obj 400 470 sq/logic/smooth;
#X text 200 100 this abstraction simply mutes the two incoming audio
streams with a toggle box. Nothing more \, nothing less;
#X text 200 140 or you could just use the mute button on your computer.
but this is more "official" I guess;
#X obj 500 400 loadbang;
#X connect 0 0 9 0;
#X connect 1 0 10 0;
#X connect 3 0 6 0;
#X connect 3 0 7 0;
#X connect 6 0 15 0;
#X connect 9 0 4 0;
#X connect 10 0 5 0;
#X connect 11 0 16 0;
#X connect 12 0 16 0;
#X connect 13 0 10 1;
#X connect 14 0 9 1;
#X connect 15 0 11 0;
#X connect 15 1 12 0;
#X connect 16 0 13 0;
#X connect 16 0 14 0;
#X connect 19 0 11 0;
