#N canvas 1285 35 1265 1285 12;
#X obj 500 400 bng 30 250 50 0 empty empty Start_Recording 0 -6 0 10
#00cc04 #f8fc00 #00cc04;
#X obj 400 400 bng 30 250 50 0 empty empty Stop_Recording 0 -6 0 10
#e87400 #00fc04 #e87400;
#X msg 530 630 start;
#X msg 300 660 stop;
#X msg 800 930 open \$1;
#X obj 200 200 inlet~;
#X obj 800 840 symbol;
#X obj 940 647 makefilename %s_pd.wav;
#X obj 800 609 r \$0-date/time;
#X obj 870 690 symbol;
#X obj 800 726 pack s s;
#X msg 800 753 \$1\$2;
#X obj 800 776 symbol;
#X obj 800 639 t s bang;
#X obj 940 620 r \$0-filename;
#X obj 800 580 s \$0-date/time;
#X obj 280 200 inlet~;
#X obj 200 1100 writesf~ 2;
#X msg 530 700 \; outrecord start;
#X msg 340 660 \; outrecord stop;
#X msg 820 880 \; outrecord open \$1;
#N canvas 588 222 704 679 date/time 0;
#X obj 100 100 inlet;
#X obj 100 655 outlet;
#X obj 230 200 time;
#X obj 140 200 date;
#X obj 100 580 symbol;
#X obj 100 420 f;
#X obj 430 270 symbol _;
#X obj 350 270 symbol -;
#X floatatom 120 270 5 0 0 0 - - -, f 5;
#X floatatom 160 270 3 0 0 0 - - -, f 3;
#X floatatom 190 270 3 0 0 0 - - -, f 3;
#X floatatom 220 270 4 0 0 0 - - -, f 4;
#X floatatom 260 270 4 0 0 0 - - -, f 4;
#X floatatom 300 270 4 0 0 0 - - -, f 4;
#X obj 100 140 trigger bang bang bang bang bang bang;
#X obj 510 270 symbol .;
#X obj 100 500 pack f s f s f s f s f s f;
#X msg 100 540 \$1\$2\$3\$4\$5\$6\$7\$8\$9\$10\$11;
#X connect 0 0 14 0;
#X connect 2 0 11 0;
#X connect 2 1 12 0;
#X connect 2 2 13 0;
#X connect 3 0 8 0;
#X connect 3 1 9 0;
#X connect 3 2 10 0;
#X connect 4 0 1 0;
#X connect 5 0 16 0;
#X connect 6 0 16 5;
#X connect 7 0 16 3;
#X connect 7 0 16 1;
#X connect 7 0 16 9;
#X connect 7 0 16 7;
#X connect 8 0 5 1;
#X connect 9 0 16 2;
#X connect 10 0 16 4;
#X connect 11 0 16 6;
#X connect 12 0 16 8;
#X connect 13 0 16 10;
#X connect 14 0 5 0;
#X connect 14 1 3 0;
#X connect 14 2 2 0;
#X connect 14 3 7 0;
#X connect 14 4 6 0;
#X connect 14 5 15 0;
#X connect 16 0 17 0;
#X connect 17 0 4 0;
#X restore 800 550 pd date/time;
#X obj 400 250 tgl 21 0 empty empty empty 17 7 0 10 #fcfcfc #000000
#000000 0 1;
#X obj 400 300 sel 0;
#X obj 400 200 inlet;
#X obj 700 1100 bng 15 250 50 0 empty empty empty 17 7 0 10 #fcfcfc
#000000 #000000;
#X obj 780 1180 metro 100;
#X obj 700 1220 realtime;
#X obj 700 1378 outlet;
#X obj 1960 2310 f;
#X floatatom 700 1339 15 0 0 0 - - -, f 15;
#X floatatom 700 1300 5 0 0 0 - - -, f 5;
#X obj 700 1260 / 1000;
#X obj 210 470 outlet~;
#X obj 310 470 outlet~;
#X msg 780 1100 stop;
#X obj 600 500 t b b b b;
#X text 700 100 tutorial: https://www.youtube.com/watch?v=YFAPwHndK8I
;
#X text 200 100 this abstraction records incoming audio to a wav file
named with the current time. The audio outlets are only there as passthroughs
;
#X text 40 470 passthrough outlets ->;
#X text 700 200 based off of this patch: https://github.com/hellocatfood/neonplastic/blob/7bbde7830f744e6fe2f98a0cc5c1543712c4dec8/nplib/abs.record.ssimple.pd#L14
;
#X connect 0 0 36 0;
#X connect 1 0 3 0;
#X connect 1 0 19 0;
#X connect 1 0 35 0;
#X connect 2 0 17 0;
#X connect 3 0 17 0;
#X connect 4 0 17 0;
#X connect 5 0 17 0;
#X connect 5 0 33 0;
#X connect 6 0 4 0;
#X connect 6 0 20 0;
#X connect 7 0 9 1;
#X connect 8 0 13 0;
#X connect 9 0 10 1;
#X connect 10 0 11 0;
#X connect 11 0 12 0;
#X connect 12 0 6 1;
#X connect 13 0 10 0;
#X connect 13 1 9 0;
#X connect 14 0 7 0;
#X connect 16 0 17 1;
#X connect 16 0 34 0;
#X connect 21 0 15 0;
#X connect 22 0 23 0;
#X connect 23 0 1 0;
#X connect 23 1 0 0;
#X connect 24 0 22 0;
#X connect 25 0 27 0;
#X connect 25 0 26 0;
#X connect 26 0 27 1;
#X connect 27 0 32 0;
#X connect 30 0 28 0;
#X connect 31 0 30 0;
#X connect 32 0 31 0;
#X connect 35 0 26 0;
#X connect 36 0 2 0;
#X connect 36 0 18 0;
#X connect 36 1 6 0;
#X connect 36 2 21 0;
#X connect 36 3 25 0;
