#N canvas 181 230 1703 906 10;
#X obj 200 200 inlet~;
#X obj 260 200 inlet~;
#X obj 1530 1900 f;
#X obj 600 200 inlet;
#X msg 700 525 open \$1;
#X obj 400 600 writesf~ 2;
#X msg 650 500 start;
#X msg 600 500 stop;
#X obj 200 500 outlet~;
#X obj 260 500 outlet~;
#N canvas 317 355 965 783 datetime 0;
#X obj 200 401 zexy/date -----------;
#X obj 200 200 inlet;
#X obj 200 630 outlet;
#X obj 225 446 makefilename %02d;
#X obj 354 446 makefilename %02d;
#N canvas 0 22 462 312 addzero 0;
#X obj 186 38 inlet;
#X obj 191 255 outlet;
#X obj 188 102 moses 10;
#X obj 244 187 zexy/makesymbol %s;
#X obj 65 187 zexy/makesymbol 0%s;
#X connect 0 0 2 0;
#X connect 2 0 4 0;
#X connect 2 1 3 0;
#X connect 3 0 1 0;
#X connect 4 0 1 0;
#X restore 543 451 pd addzero;
#N canvas 0 22 462 312 addzero 0;
#X obj 186 38 inlet;
#X obj 191 255 outlet;
#X obj 188 102 moses 10;
#X obj 244 187 zexy/makesymbol %s;
#X obj 65 187 zexy/makesymbol 0%s;
#X connect 0 0 2 0;
#X connect 2 0 4 0;
#X connect 2 1 3 0;
#X connect 3 0 1 0;
#X connect 4 0 1 0;
#X restore 623 451 pd addzero;
#X obj 500 400 zexy/time -----------;
#X obj 200 270 t b b;
#X obj 200 531 pack float symbol symbol float symbol symbol;
#X obj 200 580 zexy/makesymbol %s%s%s_%s%s%s;
#X connect 0 0 9 0;
#X connect 0 1 3 0;
#X connect 0 2 4 0;
#X connect 1 0 8 0;
#X connect 3 0 9 1;
#X connect 4 0 9 2;
#X connect 5 0 9 4;
#X connect 6 0 9 5;
#X connect 7 0 9 3;
#X connect 7 1 5 0;
#X connect 7 2 6 0;
#X connect 8 0 0 0;
#X connect 8 1 7 0;
#X connect 9 0 10 0;
#X connect 10 0 2 0;
#X restore 700 470 pd datetime;
#X obj 600 250 tgl 15 0 empty empty empty 17 7 0 10 #fcfcfc #000000
#000000 0 127;
#X obj 600 300 select 0 1;
#X obj 650 400 t b b;
#X text 50 500 passthrough outlets ->;
#X text 600 100 tutorial: https://www.youtube.com/watch?v=YFAPwHndK8I
;
#X obj 700 500 makefilename ./recordings/pd_%s.wav;
#X obj 500 900 timer;
#X floatatom 500 940 4 0 0 0 - - -, f 4;
#X obj 500 760 bng 15 250 50 0 empty empty empty 17 7 0 10 #fcfcfc
#000000 #000000;
#X obj 600 800 metro 100;
#X obj 600 825 bng 15 250 50 0 empty empty empty 17 7 0 10 #fcfcfc
#000000 #000000;
#X msg 400 800 tempo 1 sec;
#X obj 630 740 tgl 15 0 empty empty empty 17 7 0 10 #fcfcfc #000000
#000000 0 1;
#X obj 600 700 bng 15 250 50 0 empty empty empty 17 7 0 10 #fcfcfc
#000000 #000000;
#X obj 500 1000 outlet;
#X text 560 1000 <- this outlet tells the amount of of seconds the
abstraction has been recording;
#X text 200 100 this abstraction records incoming audio to a wav file
named with the current time. The audio outlets are only there as passthroughs
;
#X connect 0 0 8 0;
#X connect 0 0 5 0;
#X connect 1 0 9 0;
#X connect 1 0 5 1;
#X connect 3 0 11 0;
#X connect 4 0 5 0;
#X connect 6 0 5 0;
#X connect 6 0 19 0;
#X connect 7 0 5 0;
#X connect 7 0 24 0;
#X connect 10 0 16 0;
#X connect 11 0 12 0;
#X connect 12 0 7 0;
#X connect 12 1 13 0;
#X connect 13 0 6 0;
#X connect 13 0 23 0;
#X connect 13 1 10 0;
#X connect 16 0 4 0;
#X connect 17 0 18 0;
#X connect 18 0 25 0;
#X connect 19 0 22 0;
#X connect 19 0 17 0;
#X connect 20 0 21 0;
#X connect 21 0 17 1;
#X connect 22 0 17 0;
#X connect 23 0 20 0;
#X connect 24 0 23 0;
