#N canvas 1285 35 1265 1291 12;
#X obj 200 200 inlet~;
#X obj 700 200 inlet~;
#X obj 1700 1780 f;
#X obj 300 300 env~ 1024;
#X obj 700 300 env~ 1024;
#X floatatom 300 340 5 0 0 0 - - -, f 5;
#X floatatom 700 340 5 0 0 0 - - -, f 5;
#X obj 300 580 expr pow(10 \, $f1 / 20);
#X floatatom 300 540 5 0 0 0 - - -, f 5;
#X obj 300 500 -;
#X obj 200 1000 outlet~;
#X obj 200 800 *~;
#X text 360 710 <-- multiplies the input sound by this much gain;
#X obj 300 650 pack 0 200;
#X obj 300 620 max 0;
#X obj 300 680 line;
#X floatatom 300 710 5 0 0 0 - - -, f 5;
#X floatatom 1000 330 5 0 0 0 - - -, f 5;
#X obj 1000 200 inlet;
#X text 1170 300 <- amount of delay;
#X obj 1000 300 sq/rmp/map 0 127 0 5000;
#X text 200 100 this abstraction makes the audio from the first inlet
as loud as the audio from the second inlet;
#X text 300 150 this abstraction is very unstable and frequently causes
volume spikes. USE WITH CAUTION!!;
#X obj 300 1000 outlet;
#X floatatom 900 270 5 0 0 0 - - -, f 5;
#X obj 900 230 float \$1;
#X obj 900 200 loadbang;
#X connect 0 0 3 0;
#X connect 0 0 11 0;
#X connect 1 0 4 0;
#X connect 3 0 5 0;
#X connect 4 0 6 0;
#X connect 5 0 9 1;
#X connect 6 0 9 0;
#X connect 7 0 14 0;
#X connect 8 0 7 0;
#X connect 9 0 8 0;
#X connect 11 0 10 0;
#X connect 13 0 15 0;
#X connect 14 0 13 0;
#X connect 15 0 16 0;
#X connect 16 0 11 1;
#X connect 16 0 23 0;
#X connect 17 0 13 1;
#X connect 18 0 20 0;
#X connect 20 0 17 0;
#X connect 24 0 20 0;
#X connect 25 0 24 0;
#X connect 26 0 25 0;
