#N canvas 0 28 1278 1343 10;
#X obj 400 550 expr 10 * (pow(2000 \, $f1 / 127));
#X obj 400 520 hsl 128 15 0 127 0 0 empty empty empty -2 -8 0 10 #fcfcfc
#000000 #000000 12700 1;
#X obj 400 300 hsl 128 15 0 127 0 0 empty empty empty -2 -8 0 10 #fcfcfc
#000000 #000000 0 1;
#X floatatom 400 340 5 0 0 0 - - -, f 5;
#X obj 400 200 inlet;
#X obj 500 200 loadbang;
#X obj 1500 1080 f;
#X obj 300 800 outlet~;
#X obj 300 200 inlet~;
#X obj 300 680 lop~;
#X floatatom 350 640 5 0 0 0 - - -, f 5;
#X floatatom 400 440 5 0 0 0 - - -, f 5;
#X obj 400 400 sq/logic/map 127 0 0 127;
#X obj 500 230 float 0;
#X text 700 100 this is a fork of this ->;
#X obj 870 100 sq/fx/center/low_n_high_pass;
#X text 300 100 this abstraction is a low pass filter. Algorithm taken
roughly from the TX-6 low/high pass filter \, except I only copied
the low pass half.;
#X connect 0 0 10 0;
#X connect 1 0 0 0;
#X connect 2 0 3 0;
#X connect 3 0 12 0;
#X connect 4 0 2 0;
#X connect 5 0 13 0;
#X connect 8 0 9 0;
#X connect 9 0 7 0;
#X connect 10 0 9 1;
#X connect 11 0 1 0;
#X connect 12 0 11 0;
#X connect 13 0 2 0;
