#N canvas 641 25 1279 1305 12;
#X obj 200 200 inlet~;
#X obj 200 1000 outlet~;
#X obj 400 200 inlet;
#X floatatom 400 390 5 0 0 0 - - -, f 5;
#X obj 200 600 *~;
#X obj 400 350 sq/logic/smooth;
#X obj 400 1000 outlet~;
#X floatatom 600 390 5 0 0 0 - - -, f 5;
#X obj 600 350 sq/logic/smooth;
#X obj 400 600 *~;
#X text 200 100 this abstraction uses a mslider input to pan a mono
input to the audio to the left channel or to the right chanel;
#X obj 400 300 sq/rmp/map 0 127 1 0;
#X obj 600 300 sq/rmp/map 127 0 1 0;
#X connect 0 0 4 0;
#X connect 0 0 9 0;
#X connect 2 0 11 0;
#X connect 2 0 12 0;
#X connect 3 0 4 1;
#X connect 4 0 1 0;
#X connect 5 0 3 0;
#X connect 7 0 9 1;
#X connect 8 0 7 0;
#X connect 9 0 6 0;
#X connect 11 0 5 0;
#X connect 12 0 8 0;
