#N canvas 341 449 563 445 10;
#X obj 100 100 tgl 15 1 empty empty empty 17 7 0 10 #fcfcfc #000000
#000000 1 1;
#X obj 100 300 midiout;
#X obj 100 150 select 0 1;
#X msg 100 184 252;
#X msg 137 184 250;
#X msg 200 180 248;
#X floatatom 200 80 5 0 0 0 - - -, f 5;
#X obj 200 53 expr (60000/$f1/24);
#X obj 200 20 inlet;
#X obj 200 150 metro 10;
#X text 250 20 <-- enter BPM number into the inlet;
#X connect 0 0 2 0;
#X connect 0 0 9 0;
#X connect 2 0 3 0;
#X connect 2 1 4 0;
#X connect 3 0 1 0;
#X connect 4 0 1 0;
#X connect 5 0 1 0;
#X connect 6 0 9 1;
#X connect 7 0 6 0;
#X connect 8 0 7 0;
#X connect 9 0 5 0;
