#N canvas 1389 324 923 875 12;
#X obj 300 180 hilbert~;
#X obj 500 126 bng 15 250 50 0 empty empty empty 17 7 0 10 #fcfcfc
#000000 #000000;
#X obj 500 200 cos~;
#X obj 600 200 sin~;
#X obj 300 300 *~;
#X obj 400 300 *~;
#X obj 300 400 -~;
#X obj 400 500 lop~ 140;
#X obj 300 500 abs~;
#X obj 300 600 lop~ 70;
#X obj 300 800 *~;
#X obj 400 580 sigmund~;
#X obj 400 700 osc~;
#X obj 400 660 *~;
#X obj 500 560 hsl 128 15 0 127 0 0 empty empty empty -2 -8 0 10 #fcfcfc
#000000 #000000 1000 1;
#X obj 500 150 float 220.5;
#X floatatom 500 580 5 0 0 0 - - -, f 5;
#X obj 300 100 inlet~;
#X obj 300 900 outlet~;
#X obj 500 100 loadbang;
#X connect 0 0 4 0;
#X connect 0 1 5 0;
#X connect 1 0 15 0;
#X connect 2 0 4 1;
#X connect 3 0 5 1;
#X connect 4 0 6 0;
#X connect 5 0 6 1;
#X connect 6 0 8 0;
#X connect 6 0 7 0;
#X connect 7 0 11 0;
#X connect 8 0 9 0;
#X connect 9 0 10 0;
#X connect 10 0 18 0;
#X connect 11 0 13 0;
#X connect 12 0 10 1;
#X connect 13 0 12 0;
#X connect 14 0 16 0;
#X connect 15 0 2 0;
#X connect 15 0 3 0;
#X connect 16 0 13 1;
#X connect 17 0 0 0;
#X connect 19 0 1 0;
