#N canvas 1320 69 1240 1346 12;
#X obj 700 940 vsl 15 128 0 500 0 0 empty empty empty 0 -9 0 10 #fcfcfc
#000000 #000000 2184 1;
#X floatatom 700 1090 5 0 0 0 - - -, f 5;
#X obj 300 260 sel 1;
#X msg 300 300 0 50;
#X msg 360 300 1 50;
#X obj 300 340 line;
#X floatatom 300 380 5 0 0 0 - - -, f 5;
#X obj 500 240 tgl 37 0 empty empty empty 17 7 0 10 #fcfcfc #000000
#000000 127 127;
#X obj 200 1100 *~ 1;
#X obj 200 200 inlet~;
#X obj 300 630 bng 15 250 50 0 empty empty empty 17 7 0 10 #fcfcfc
#000000 #000000;
#X floatatom 500 729 5 0 0 0 - - -, f 5;
#X obj 1380 1330 f;
#X obj 800 429 tgl 15 0 empty empty empty 17 7 0 10 #fcfcfc #000000
#000000 127 127;
#X obj 800 500 sel 0;
#X msg 800 537 0 50;
#X obj 800 567 line;
#X floatatom 800 597 5 0 0 0 - - -, f 5;
#X msg 850 537 1 50;
#X obj 900 567 line;
#X floatatom 900 597 5 0 0 0 - - -, f 5;
#X obj 900 500 sel 1;
#X msg 900 537 1 50;
#X msg 950 540 0 50;
#X obj 200 1200 outlet~;
#X obj 700 900 r \$0-random_glitch;
#X obj 700 1130 s \$0-glitch_value;
#X obj 500 300 s \$0-glitch_on_off;
#X obj 300 200 r \$0-glitch_on_off;
#X obj 300 600 r \$0-glitch_on_off;
#X obj 300 750 s \$0-random_glitch;
#X obj 500 700 r \$0-glitch_value;
#X obj 500 600 delwrite~ \$0-glitch 500;
#X obj 500 757 delread~ \$0-glitch 50;
#X obj 800 400 r \$0-glitch_on_off;
#X obj 200 500 *~ 1;
#X obj 300 230 tgl 15 0 empty empty empty 17 7 0 10 #fcfcfc #000000
#000000 127 127;
#X obj 500 900 *~ 1;
#X obj 500 200 inlet;
#X obj 600 200 loadbang;
#X obj 600 230 pipe 1;
#X obj 300 660 sq/logic/random_between 10 200;
#X obj 780 700 *~ 1;
#X connect 0 0 1 0;
#X connect 1 0 26 0;
#X connect 2 0 3 0;
#X connect 2 1 4 0;
#X connect 3 0 5 0;
#X connect 4 0 5 0;
#X connect 5 0 6 0;
#X connect 6 0 35 1;
#X connect 7 0 27 0;
#X connect 8 0 24 0;
#X connect 9 0 35 0;
#X connect 10 0 41 0;
#X connect 11 0 33 0;
#X connect 13 0 14 0;
#X connect 13 0 21 0;
#X connect 14 0 15 0;
#X connect 14 1 18 0;
#X connect 15 0 16 0;
#X connect 16 0 17 0;
#X connect 17 0 42 1;
#X connect 18 0 16 0;
#X connect 19 0 20 0;
#X connect 20 0 37 1;
#X connect 21 0 22 0;
#X connect 21 1 23 0;
#X connect 22 0 19 0;
#X connect 23 0 19 0;
#X connect 25 0 0 0;
#X connect 28 0 36 0;
#X connect 29 0 10 0;
#X connect 31 0 11 0;
#X connect 33 0 37 0;
#X connect 33 0 42 0;
#X connect 34 0 13 0;
#X connect 35 0 32 0;
#X connect 35 0 8 0;
#X connect 36 0 2 0;
#X connect 37 0 8 0;
#X connect 38 0 7 0;
#X connect 39 0 40 0;
#X connect 39 0 7 0;
#X connect 40 0 7 0;
#X connect 41 0 11 0;
#X connect 41 0 30 0;
#X connect 42 0 32 0;
