#N canvas 0 28 1279 1343 12;
#X floatatom 1000 460 5 0 0 0 - - -, f 5;
#X obj 1000 430 / 2;
#X obj 600 500 phasor~;
#X obj 600 640 *~;
#X obj 600 700 vd~ \$0-del;
#X obj 800 500 phasor~;
#X msg 700 300 0;
#X msg 800 300 0.5;
#X obj 800 640 *~;
#X obj 800 700 vd~ \$0-del;
#X obj 1000 520 s \$0-t;
#X obj 1000 490 expr (60000/$f1)/60;
#X obj 570 460 r \$0-t;
#X obj 700 700 cos~;
#X obj 800 800 *~;
#X obj 600 900 *~;
#X obj 750 700 cos~;
#X obj 750 730 +~ 1;
#X obj 750 757 /~ 2;
#X obj 700 727 +~ 1;
#X obj 700 754 /~ 2;
#X obj 200 200 inlet~;
#X obj 650 600 r \$0-length;
#X obj 850 860 r \$0-mode;
#X obj 800 900 *~ 0;
#X obj 1000 400 r \$0-length;
#X obj 700 200 loadbang;
#X floatatom 1000 320 6 0 0 0 Length - #0-length, f 6;
#X obj 240 250 delwrite~ \$0-del \$1;
#X obj 1000 280 \$1;
#X obj 400 200 inlet;
#X obj 400 400 tgl 17 0 empty empty empty 17 7 0 10 #fcfcfc #000000
#000000 1 1;
#X msg 1000 240 200;
#X obj 1000 200 loadbang;
#X obj 200 1180 outlet~;
#X obj 200 1100 sq/logic/bypass~;
#X obj 850 600 r \$0-length;
#X obj 770 460 r \$0-t;
#X text 700 100 based on the "Bungee" abstraction by user nestor https://forum.pdpatchrepo.info/topic/267/reading-a-delwrite-in-reverse/3
;
#X obj 2890 2840 f;
#X text 1040 280 <- allows the user to specify the window length. I've
found that 200 is usually the ideal size;
#X text 200 100 this abstraction applies a "reverse" effect to incoming
audio \, but only when the inlet box is toggled;
#X connect 0 0 11 0;
#X connect 1 0 0 0;
#X connect 2 0 3 0;
#X connect 2 0 16 0;
#X connect 3 0 4 0;
#X connect 4 0 15 0;
#X connect 5 0 13 0;
#X connect 5 0 8 0;
#X connect 6 0 2 1;
#X connect 7 0 5 1;
#X connect 8 0 9 0;
#X connect 9 0 14 0;
#X connect 11 0 10 0;
#X connect 12 0 2 0;
#X connect 13 0 19 0;
#X connect 14 0 24 0;
#X connect 15 0 35 1;
#X connect 16 0 17 0;
#X connect 17 0 18 0;
#X connect 18 0 14 1;
#X connect 19 0 20 0;
#X connect 20 0 15 1;
#X connect 21 0 28 0;
#X connect 21 0 35 0;
#X connect 22 0 3 1;
#X connect 23 0 24 1;
#X connect 24 0 35 1;
#X connect 25 0 1 0;
#X connect 26 0 7 0;
#X connect 26 0 6 0;
#X connect 29 0 27 0;
#X connect 30 0 31 0;
#X connect 31 0 35 2;
#X connect 32 0 29 0;
#X connect 33 0 32 0;
#X connect 35 0 34 0;
#X connect 36 0 8 1;
#X connect 37 0 5 0;
