#N canvas 10 35 1265 1291 10;
#X obj 300 200 inlet;
#X obj 200 200 inlet~;
#X obj 200 300 osc~;
#X obj 200 400 outlet~;
#X floatatom 400 260 5 0 0 0 - - -, f 5;
#X obj 400 230 float \$1;
#X obj 400 200 loadbang;
#X text 200 100 yeah yeah. I know. this is jus an 'osc~' alias. It's
useful to have this here to understand what the other patches in this
directory do;
#X connect 0 0 2 1;
#X connect 1 0 2 0;
#X connect 2 0 3 0;
#X connect 4 0 2 0;
#X connect 5 0 4 0;
#X connect 6 0 5 0;
