#N canvas 80 87 1265 1291 10;
#X obj 300 200 inlet;
#X obj 200 200 inlet~;
#X obj 200 400 outlet~;
#X floatatom 400 260 5 0 0 0 - - -, f 5;
#X obj 400 230 float \$1;
#X obj 400 200 loadbang;
#X text 200 100 yeah yeah. I know. this is jus an 'osc~' alias. It's
useful to have this here to understand what the other patches in this
directory do;
#X obj 200 300 phasor~;
#X obj 200 330 *~ 6.28319;
#X obj 200 360 expr~ sin($v1);
#X text 280 330 <- multiply by 2π;
#X connect 0 0 7 1;
#X connect 1 0 7 0;
#X connect 3 0 7 0;
#X connect 4 0 3 0;
#X connect 5 0 4 0;
#X connect 7 0 8 0;
#X connect 8 0 9 0;
#X connect 9 0 2 0;
