#N canvas 80 69 1240 1346 12;
#X obj 300 200 inlet;
#X obj 200 200 inlet~;
#X obj 200 500 outlet~;
#X obj 200 300 phasor~;
#X floatatom 400 260 5 0 0 0 - - -, f 5;
#X obj 400 230 float \$1;
#X obj 400 200 loadbang;
#X obj 200 380 sin~;
#X obj 200 420 *~ 2;
#X obj 200 460 clip~ -1 1;
#X obj 200 340 *~ 6.28319;
#X text 200 100 this makes a trapezoid waveform;
#X connect 0 0 3 1;
#X connect 1 0 3 0;
#X connect 3 0 10 0;
#X connect 4 0 3 0;
#X connect 5 0 4 0;
#X connect 6 0 5 0;
#X connect 7 0 8 0;
#X connect 8 0 9 0;
#X connect 9 0 2 0;
#X connect 10 0 7 0;
