#N canvas 738 214 862 703 12;
#N canvas 426 494 1860 1285 birdbox2 0;
#N canvas 10 35 2540 1288 birdbox2 0;
#N canvas 0 22 503 436 tweetypie 0;
#X obj 116 86 osc~;
#X obj 167 86 osc~;
#X obj 136 113 *~;
#X obj 133 251 *~ 0.5;
#X obj 135 188 osc~;
#X obj 136 162 +~;
#X obj 136 138 *~;
#X obj 114 221 vcf~;
#X obj 153 221 vcf~;
#X obj 132 299 outlet~;
#X obj 115 47 inlet~;
#X obj 167 47 inlet~;
#X obj 221 47 inlet~;
#X obj 276 47 inlet~;
#X obj 332 47 inlet~;
#X obj 383 47 inlet~;
#X obj 437 47 inlet;
#X obj 133 275 lop~ 5000;
#X text 197 223 Trachea \, throat and beak;
#X text 56 113 Syrinx;
#X text 56 187 Modulation;
#X text 177 13 Bird voice core DSP;
#X connect 0 0 2 0;
#X connect 1 0 2 1;
#X connect 2 0 6 0;
#X connect 3 0 17 0;
#X connect 4 0 7 0;
#X connect 4 0 8 0;
#X connect 5 0 4 0;
#X connect 6 0 5 0;
#X connect 7 0 3 0;
#X connect 8 0 3 0;
#X connect 10 0 0 0;
#X connect 11 0 1 0;
#X connect 12 0 6 1;
#X connect 13 0 5 1;
#X connect 14 0 7 1;
#X connect 15 0 8 1;
#X connect 16 0 7 2;
#X connect 16 0 8 2;
#X connect 17 0 9 0;
#X restore 740 680 pd tweetypie;
#X obj 570 340 line~;
#X msg 570 310 \$1 300;
#X obj 630 340 line~;
#X obj 810 340 line~;
#X msg 810 310 \$1 300;
#X obj 690 340 line~;
#X msg 690 310 \$1 300;
#X obj 930 340 line~;
#X msg 930 310 \$1 300;
#X obj 1050 340 line~;
#X msg 1050 310 \$1 300;
#X msg 630 310 \$1 500;
#X obj 670 620 +~;
#X obj 700 620 +~;
#X obj 450 340 line~;
#X msg 450 310 \$1 300;
#X obj 510 340 line~;
#X msg 510 310 \$1 500;
#X obj 670 590 *~;
#X obj 700 590 *~;
#X obj 750 340 line~;
#X msg 750 310 \$1 300;
#X obj 790 590 *~;
#X obj 720 560 +~;
#X obj 790 620 +~;
#X obj 730 590 +~;
#X obj 760 590 *~;
#X obj 870 340 line~;
#X msg 870 310 \$1 300;
#X obj 760 620 *~;
#X text 820 720 Synrinx + tracheal cavity + beak;
#X obj 820 590 *~;
#X obj 990 340 line~;
#X msg 990 310 \$1 300;
#X obj 820 620 +~;
#X obj 850 590 *~;
#X obj 850 620 +~;
#X obj 1110 340 line~;
#X msg 1110 310 \$1 300;
#X text 1300 520 Base freq;
#X text 1300 581 Modulation base;
#X text 1300 601 Tracheal formant 1;
#X text 1300 622 Tracheal base 1;
#X text 1300 642 Tracheal formant 2;
#X text 800 820 ajf2006;
#X obj 200 530 line~;
#X msg 200 500 \$1 300;
#X obj 310 630 s~ \$0-modall;
#X obj 750 420 r~ \$0-modall;
#X obj 200 690 cos~;
#X obj 200 660 clip~ -0.25 0.25;
#X obj 200 720 *~;
#X obj 310 480 osc~ 0.15;
#X obj 310 320 noise~;
#X obj 310 380 abs~;
#X obj 310 520 *~;
#X obj 200 630 -~;
#X obj 310 410 *~;
#X obj 350 450 *~;
#X obj 730 820 vcf~ 1 1;
#X msg 820 780 0.1;
#X obj 820 750 loadbang;
#X obj 760 780 *~ 1000;
#X obj 310 350 lop~ 0.01;
#X text 1300 400 Beak articulation;
#X obj 760 750 sqrt~;
#X obj 350 380 * 1000;
#X obj 310 550 phasor~ 1;
#X obj 310 580 lop~ 2;
#X obj 450 280 * 3000;
#X obj 510 280 * 200;
#X obj 570 280 * 3000;
#X obj 630 280 * 200;
#X obj 750 280 * 3000;
#X obj 690 280 * 5000;
#X obj 870 280 * 50;
#X obj 930 280 * 3000;
#X obj 990 280 * 3000;
#X obj 1050 280 * 3000;
#X obj 1110 280 * 3000;
#X obj 1260 280 * 20;
#X obj 1260 310 + 2;
#X obj 370 280 * 3;
#X obj 200 200 r \$0-artic;
#X obj 280 200 r \$0-tweet;
#X obj 1260 200 r \$0-reson;
#X obj 360 200 r \$0-syr1a;
#X obj 440 200 r \$0-syr1m;
#X obj 520 200 r \$0-syr2a;
#X obj 600 200 r \$0-syr2m;
#X obj 760 200 r \$0-sweep;
#X obj 680 200 r \$0-basef;
#X obj 840 200 r \$0-moda;
#X obj 910 200 r \$0-modb;
#X obj 980 200 r \$0-tf1;
#X obj 1050 200 r \$0-tb1;
#X obj 1120 200 r \$0-tf2;
#X obj 1190 200 r \$0-tb2;
#X obj 730 880 outlet~;
#X obj 730 850 *~ 0.5;
#X obj 810 280 * 2000;
#X text 1300 418 Random tweetyness;
#X text 1300 439 Syrinx t1 freq;
#X text 1300 459 Syrinx t1 mod amnt;
#X text 1300 480 Syrinx t2 freq;
#X text 1300 500 Syrinx t2 mod amnt;
#X text 1300 540 Sweep extent;
#X text 1300 561 Modulation amnt;
#X text 1300 663 Tracheal base 2;
#X text 1300 682 Trachea filter resonance;
#X text 1300 704 Global amps;
#X text 580 600 mod matrix;
#X obj 1340 200 r \$0-vol;
#X text 410 630 <- autotweet;
#X connect 0 0 60 0;
#X connect 1 0 13 1;
#X connect 1 0 26 0;
#X connect 2 0 1 0;
#X connect 3 0 26 1;
#X connect 4 0 27 1;
#X connect 5 0 4 0;
#X connect 6 0 25 1;
#X connect 7 0 6 0;
#X connect 8 0 32 1;
#X connect 9 0 8 0;
#X connect 10 0 36 1;
#X connect 11 0 10 0;
#X connect 12 0 3 0;
#X connect 13 0 0 0;
#X connect 14 0 0 1;
#X connect 15 0 19 1;
#X connect 15 0 24 0;
#X connect 16 0 15 0;
#X connect 17 0 24 1;
#X connect 18 0 17 0;
#X connect 19 0 13 0;
#X connect 20 0 14 0;
#X connect 21 0 23 1;
#X connect 22 0 21 0;
#X connect 23 0 25 0;
#X connect 24 0 20 1;
#X connect 25 0 0 3;
#X connect 26 0 14 1;
#X connect 27 0 30 0;
#X connect 28 0 30 1;
#X connect 29 0 28 0;
#X connect 30 0 0 2;
#X connect 32 0 35 0;
#X connect 33 0 35 1;
#X connect 34 0 33 0;
#X connect 35 0 0 4;
#X connect 36 0 37 0;
#X connect 37 0 0 5;
#X connect 38 0 37 1;
#X connect 39 0 38 0;
#X connect 46 0 57 0;
#X connect 47 0 46 0;
#X connect 49 0 19 0;
#X connect 49 0 20 0;
#X connect 49 0 23 0;
#X connect 49 0 27 0;
#X connect 49 0 32 0;
#X connect 49 0 36 0;
#X connect 50 0 52 0;
#X connect 50 0 52 1;
#X connect 51 0 50 0;
#X connect 52 0 66 0;
#X connect 53 0 56 0;
#X connect 54 0 64 0;
#X connect 55 0 58 0;
#X connect 56 0 68 0;
#X connect 57 0 51 0;
#X connect 58 0 53 0;
#X connect 58 0 59 0;
#X connect 59 0 56 1;
#X connect 60 0 100 0;
#X connect 61 0 60 2;
#X connect 62 0 61 0;
#X connect 63 0 60 1;
#X connect 64 0 55 0;
#X connect 66 0 63 0;
#X connect 67 0 58 1;
#X connect 68 0 69 0;
#X connect 69 0 48 0;
#X connect 69 0 57 1;
#X connect 70 0 16 0;
#X connect 71 0 18 0;
#X connect 72 0 2 0;
#X connect 73 0 12 0;
#X connect 74 0 22 0;
#X connect 75 0 7 0;
#X connect 76 0 29 0;
#X connect 77 0 9 0;
#X connect 78 0 34 0;
#X connect 79 0 11 0;
#X connect 80 0 39 0;
#X connect 81 0 82 0;
#X connect 82 0 0 6;
#X connect 83 0 59 1;
#X connect 83 0 67 0;
#X connect 84 0 47 0;
#X connect 85 0 83 0;
#X connect 86 0 81 0;
#X connect 87 0 70 0;
#X connect 88 0 71 0;
#X connect 89 0 72 0;
#X connect 90 0 73 0;
#X connect 91 0 74 0;
#X connect 92 0 75 0;
#X connect 93 0 101 0;
#X connect 94 0 76 0;
#X connect 95 0 77 0;
#X connect 96 0 78 0;
#X connect 97 0 79 0;
#X connect 98 0 80 0;
#X connect 100 0 99 0;
#X connect 101 0 5 0;
#X connect 113 0 100 1;
#X restore 630 460 pd birdbox2;
#X obj 200 280 cnv 15 400 270 empty empty empty 20 12 0 14 #e0e0e0
#404040 0;
#X obj 218 293 cnv 15 120 120 empty empty Birdbrain 20 12 1 14 #bcbcbc
#fcfcfc 0;
#X obj 225 328 vsl 10 80 0 1 0 1 \$0-artic \$0-artic-r articulation
0 -8 1 8 #e0e0e0 #000000 #000000 5600 1;
#X obj 288 329 vsl 10 80 0 1 0 1 \$0-tweet \$0-tweet-r tweetivity 0
-8 1 8 #e0e0e0 #000000 #000000 5700 1;
#X obj 345 293 cnv 15 240 120 empty empty Syrinx 20 12 1 14 #bcbcbc
#fcfcfc 0;
#X obj 536 328 vsl 10 80 0 1 0 1 \$0-moda \$0-moda-r Mod 0 -8 1 8 #b030ec
#000000 #000000 2600 1;
#X obj 349 328 vsl 10 80 0 1 0 1 \$0-basef \$0-basef-r Base 0 -8 1
8 #fc2828 #000000 #000000 5900 1;
#X obj 382 328 vsl 10 80 0 1 0 1 \$0-sweep \$0-sweep-r Fmod 0 -8 1
8 #dc2860 #000000 #000000 1600 1;
#X obj 567 328 vsl 10 80 0 1 0 1 \$0-modb \$0-modb-r Lev 0 -8 1 8 #7030ec
#000000 #000000 1600 1;
#X obj 479 328 vsl 10 80 0 1 0 1 \$0-syr2a \$0-syr2a-r A2 0 -8 1 8
#f430f0 #000000 #000000 5200 1;
#X obj 509 328 vsl 10 80 0 1 0 1 \$0-syr2m \$0-syr2m-r F2 0 -8 1 8
#b478ec #000000 #000000 1400 1;
#X obj 418 328 vsl 10 80 0 1 0 1 \$0-syr1a \$0-syr1a-r A1 0 -8 1 8
#fc2860 #000000 #000000 2000 1;
#X obj 448 328 vsl 10 80 0 1 0 1 \$0-syr1m \$0-syr1m-r F1 0 -8 1 8
#a43090 #000000 #000000 600 1;
#X obj 405 418 cnv 15 180 120 empty empty Throat 20 12 1 14 #bcbcbc
#fcfcfc 0;
#X obj 415 452 vsl 10 80 0 1 0 1 \$0-tf1 \$0-tf1-r Form1 0 -8 1 8 #fce0b8
#000000 #000000 3300 1;
#X obj 489 452 vsl 10 80 0 1 0 1 \$0-tf2 \$0-tf2-r Form2 0 -8 1 8 #fce07c
#000000 #000000 3100 1;
#X obj 451 452 vsl 10 80 0 1 0 1 \$0-tb1 \$0-tb1-r Base1 0 -8 1 8 #fce0a4
#000000 #000000 1400 1;
#X obj 525 452 vsl 10 80 0 1 0 1 \$0-tb2 \$0-tb2-r Base2 0 -8 1 8 #fce058
#000000 #000000 3200 1;
#X obj 561 452 vsl 10 80 0 1 0 1 \$0-reson \$0-reson-r Res 0 -8 1 8
#fce01c #000000 #000000 7900 1;
#X obj 218 418 cnv 15 180 120 empty empty Patch 20 12 1 14 #bcbcbc
#fcfcfc 0;
#X obj 223 461 cnv 15 170 15 empty empty empty 20 12 1 14 #e0e0e0 #404040
0;
#X symbolatom 223 461 24 0 0 2 - #0-name -, f 24;
#X obj 224 445 hradio 12 1 1 14 \$0-preset empty empty 0 -6 1 8 #e0e0e0
#fc2828 #000000 8;
#X obj 226 490 hsl 164 12 0.01 1 1 0 \$0-vol \$0-vol-r Volume -2 -6
1 8 #e0e0e0 #fc2828 #202020 12200 1;
#X obj 400 570 bng 15 80 50 0 \$0-savetweet empty empty 0 -6 0 8 #fcfcfc
#000000 #000000;
#N canvas 10 35 2540 1285 tweet 0;
#X obj 200 200 inlet;
#X obj 270 400 s \$0-artic-r;
#X obj 360 400 s \$0-tweet-r;
#X obj 450 400 s \$0-syr1a-r;
#X obj 540 400 s \$0-syr1m-r;
#X obj 630 400 s \$0-syr2a-r;
#X obj 720 400 s \$0-syr2m-r;
#X obj 810 400 s \$0-basef-r;
#X obj 900 400 s \$0-sweep-r;
#X obj 1000 400 s \$0-moda-r;
#X obj 1090 400 s \$0-modb-r;
#X obj 1180 400 s \$0-tf1-r;
#X obj 1260 400 s \$0-tb1-r;
#X obj 1340 400 s \$0-tf2-r;
#X obj 1420 400 s \$0-tb2-r;
#X obj 1500 400 s \$0-reson-r;
#X obj 1600 400 s \$0-vol-r;
#X obj 200 290 unpack s f f f f f f f f f f f f f f f f;
#X obj 200 400 s \$0-name;
#X connect 0 0 17 0;
#X connect 17 0 18 0;
#X connect 17 1 1 0;
#X connect 17 2 2 0;
#X connect 17 3 3 0;
#X connect 17 4 4 0;
#X connect 17 5 5 0;
#X connect 17 6 6 0;
#X connect 17 7 7 0;
#X connect 17 8 8 0;
#X connect 17 9 9 0;
#X connect 17 10 10 0;
#X connect 17 11 11 0;
#X connect 17 12 12 0;
#X connect 17 13 13 0;
#X connect 17 14 14 0;
#X connect 17 15 15 0;
#X connect 17 16 16 0;
#X restore 200 630 pd tweet loader;
#N canvas 8 183 644 516 tweet 0;
#X obj 83 127 r \$0-savetweet;
#X obj 117 452 outlet;
#X msg 117 358 name;
#X obj 7 -42 r \$0-artic;
#X obj 87 -41 r \$0-tweet;
#X obj 404 -16 r \$0-reson;
#X obj 164 -41 r \$0-syr1a;
#X obj 240 -41 r \$0-syr1m;
#X obj 316 -41 r \$0-syr2a;
#X obj 394 -41 r \$0-syr2m;
#X obj 550 -42 r \$0-sweep;
#X obj 472 -42 r \$0-basef;
#X obj 8 -14 r \$0-moda;
#X obj 77 -14 r \$0-modb;
#X obj 148 -14 r \$0-tf1;
#X obj 212 -14 r \$0-tb1;
#X obj 276 -15 r \$0-tf2;
#X obj 341 -15 r \$0-tb2;
#X obj 117 385 pack s f f f f f f f f f f f f f f f f;
#X msg 117 414 set \$1 \$2 \$3 \$4 \$5 \$6 \$7 \$8 \$9 \$10 \$11 \$12
\$13 \$14 \$15 \$16 \$17;
#X obj 481 -16 r \$0-vol;
#X connect 0 0 2 0;
#X connect 2 0 18 0;
#X connect 3 0 18 1;
#X connect 4 0 18 2;
#X connect 5 0 18 15;
#X connect 6 0 18 3;
#X connect 7 0 18 4;
#X connect 8 0 18 5;
#X connect 9 0 18 6;
#X connect 10 0 18 8;
#X connect 11 0 18 7;
#X connect 12 0 18 9;
#X connect 13 0 18 10;
#X connect 14 0 18 11;
#X connect 15 0 18 12;
#X connect 16 0 18 13;
#X connect 17 0 18 14;
#X connect 18 0 19 0;
#X connect 19 0 1 0;
#X connect 20 0 18 16;
#X restore 400 600 pd tweet saver;
#X obj 200 568 r \$0-preset;
#N canvas 10 35 2540 1285 presets 0;
#X obj 200 200 inlet;
#X obj 200 1199 outlet;
#X msg 500 299 blue-tailed-wibble 0.683544 0.658228 0.177215 0.0886076
0.911392 0.0126582 0.291139 0.772152 0.0886076 0.632911 0.316456 0.860759
0.227848 0.620253 0.417722 0.199808;
#X obj 200 240 select 0 1 2 3 4 5 6 7 8 9 10 11 12 13;
#X msg 500 359 irish-bushrubber 0.683544 0.582278 0.405063 0.78481
0.911392 0.0126582 0.848101 0.0506329 0.0886076 0.632911 0.316456 0.240506
0.113924 0.620253 0.417722 0.199808;
#X msg 500 419 lesser-spotted-snork 0.924051 0.936709 0.886076 0.78481
0 0.291139 0.126582 0.721519 0.0253165 0.189873 0.0759494 0.810127
0.329114 0.139241 0.0759494 0.243502;
#X msg 500 1079 Norwegian-Blue 0 0 0 0 0 0 0 0 0 0 0 0 0 0 0 0;
#X msg 500 479 spittlechough 0.455696 0.620253 0 0.0506329 0.0126582
0.0126582 0.56962 1 0.0506329 0.620253 0.949367 0.810127 0.848101 0.683544
0.0886076 0.127144;
#X msg 500 539 whippersnapper 0.21519 0.518987 0.379747 1 0.0126582
0.0126582 0.405063 1 0.0506329 0.620253 0.949367 0.164557 0.848101
0.164557 0.746835 0.372008;
#X msg 500 599 snafflenoop 0.886076 0.518987 0 0.0632911 0.0126582
0.0126582 0.278481 0.417722 0.0506329 0.278481 0.443038 0.164557 0.544304
0.164557 0.746835 0.372008;
#X msg 500 659 pig-hen 0.962025 0.898734 0 0.278481 0.164557 0.822785
0.0759494 0.417722 0.556962 0.113924 0.291139 0.126582 0.544304 0.151899
0.911392 0.372008;
#X msg 500 719 gruffbeard 0.164557 0.974684 0.734177 0.670886 0.240506
0.202532 0.227848 0.392405 0.0253165 0.392405 0.291139 0.126582 0.544304
0.734177 0.379747 0.868261;
#X msg 500 779 puddle-gull 0.708861 0.721519 0.253165 0.0759494 0.658228
0.177215 0.746835 0.202532 0.329114 0.202532 0.417722 0.177215 0.392405
0.405063 1 0.314002;
#X msg 500 839 common-freakfeather 0.392405 0.721519 0.0759494 0.316456
0.658228 0.177215 0.177215 0.848101 0.0886076 0.202532 0.417722 0.177215
0.392405 0.405063 1 0.314002;
#X msg 500 899 twitterbeak 0.379747 0.962025 0.265823 0.0126582 0.0886076
0.177215 0.721519 0.139241 0.113924 0.139241 0.0759494 0.759494 0.936709
0.911392 0.848101 0.314002;
#X msg 500 959 deadbattery-bird 0.291139 0.556962 0.0632911 0.0253165
0.0506329 0.0379747 0.0759494 0 0.177215 0.227848 0.0759494 0.240506
0.0379747 0.506329 0.924051 0.314002;
#X msg 500 1019 coo-coo-dove 0.848101 0.772152 0.367089 0.189873 0.35443
0.0506329 0.0126582 0.177215 0.101266 0.0253165 0.924051 0.0886076
1 0.0886076 0.455696 0.732876;
#X connect 0 0 3 0;
#X connect 2 0 1 0;
#X connect 3 0 2 0;
#X connect 3 1 4 0;
#X connect 3 2 5 0;
#X connect 3 3 7 0;
#X connect 3 4 8 0;
#X connect 3 5 9 0;
#X connect 3 6 10 0;
#X connect 3 7 11 0;
#X connect 3 8 12 0;
#X connect 3 9 13 0;
#X connect 3 10 14 0;
#X connect 3 11 15 0;
#X connect 3 12 16 0;
#X connect 3 13 6 0;
#X connect 4 0 1 0;
#X connect 5 0 1 0;
#X connect 6 0 1 0;
#X connect 7 0 1 0;
#X connect 8 0 1 0;
#X connect 9 0 1 0;
#X connect 10 0 1 0;
#X connect 11 0 1 0;
#X connect 12 0 1 0;
#X connect 13 0 1 0;
#X connect 14 0 1 0;
#X connect 15 0 1 0;
#X connect 16 0 1 0;
#X restore 200 600 pd presets;
#X msg 400 640 name 0.708861 0.721519 0.253165 0.0759494 0.658228 0.177215
0.746835 0.202532 0.329114 0.202532 0.417722 0.177215 0.392405 0.405063
1 0.314002;
#X obj 630 490 outlet~;
#X obj 200 200 inlet;
#X connect 0 0 31 0;
#X connect 27 0 30 0;
#X connect 28 0 29 0;
#X connect 29 0 26 0;
#X connect 32 0 23 0;
#X coords 0 -1 1 1 400 270 1 200 280;
#X restore 199 202 pd birdbox2;
#X text 199 62 Birdy version 2 AM+FM;
#X text 199 102 I pulled this abstraction from here: http://web.archive.org/web/20150303020554/http://www.obiwannabe.co.uk/tutorials/html/tutorial_birds.html
;
#X text 199 162 per usual \, I cleaned it up a lot;
#X obj 99 102 inlet;
#X obj 99 232 vradio 15 0 0 13 empty empty empty 0 -8 0 10 #fcfcfc
#000000 #000000 0;
#X obj 199 552 outlet~;
#X obj 99 172 - 1;
#X connect 0 0 6 0;
#X connect 4 0 7 0;
#X connect 5 0 0 0;
#X connect 7 0 5 0;
