#N canvas 1107 69 1453 1346 12;
#X obj 200 200 inlet~;
#X obj 100 1000 delwrite~ \$0-phase-1 100;
#X obj 120 900 delwrite~ \$0-phase-2 100;
#X obj 700 880 phasor~;
#X obj 700 1000 cos~;
#X obj 700 1110 vd~ \$0-phase-1;
#X obj 900 950 +~ 0.5;
#X obj 900 990 wrap~;
#X obj 900 1020 cos~;
#X obj 900 1110 vd~ \$0-phase-2;
#X obj 500 200 inlet;
#X obj 700 200 inlet;
#X obj 900 200 inlet;
#X obj 700 1040 *~;
#X obj 700 1076 +~;
#X obj 900 1050 *~;
#X obj 900 1080 +~;
#X obj 800 800 sig~;
#X obj 700 1140 *~;
#X obj 900 1140 *~;
#X obj 1000 800 sig~;
#X floatatom 500 330 5 0 0 0 - - -, f 5;
#X floatatom 700 330 5 0 0 0 - - -, f 5;
#X floatatom 900 330 5 0 0 0 - - -, f 5;
#X text 630 200 depth ->;
#X obj 730 250 s \$0-depth;
#X obj 400 1500 sq/logic/bypass~;
#X floatatom 900 1270 5 0 0 0 - - -, f 5;
#X obj 500 300 sq/rmp/map 0 127 0 0.9;
#X obj 900 1300 tgl 15 0 empty empty empty 17 7 0 10 #fcfcfc #000000
#000000 127 127;
#X obj 400 1600 outlet~;
#X text 830 200 speed ->;
#X obj 930 250 s \$0-speed;
#X text 410 200 feedback ->;
#X obj 520 250 s \$0-feedback;
#X obj 900 1230 r \$0-feedback;
#X obj 600 1500 sq/logic/bypass~;
#X obj 600 1600 outlet~;
#X obj 1100 200 inlet;
#X floatatom 1100 330 5 0 0 0 - - -, f 5;
#X obj 640 1300 *~;
#X obj 670 1230 r \$0-OG_signal;
#X obj 1100 360 s \$0-OG_signal;
#X text 1000 200 OG signal ->;
#X obj 1100 300 sq/rmp/map 127 0 0 1;
#X floatatom 670 1260 5 0 0 0 - - -, f 5;
#X text 1200 800 based on https://github.com/michaelpace/pd-core/blob/4bc0ef78fd9656efe12f4cc5f6ce6f17de893e37/phaser~.pd#L21
;
#X text 1200 860 which was based onhttps://guitarextended.wordpress.com/2011/12/28/phaserchorus-effect-with-pure-data/
;
#X obj 1200 200 loadbang;
#X msg 1200 229 0;
#X obj 900 300 sq/rmp/map 0 127 0 10;
#X obj 270 200 inlet~;
#X obj 1040 1300 *~;
#X obj 1070 1230 r \$0-OG_signal;
#X floatatom 1070 1260 5 0 0 0 - - -, f 5;
#X text 200 100 an awesome stereo chorus effect;
#X obj 700 300 sq/rmp/map 0 127 0 35;
#X text 500 100 to make things less complicated \, I try not to intersect
wires \, but that's sort of required here;
#X obj 1400 200 inlet;
#X floatatom 1400 300 5 0 0 0 - - -, f 5;
#X obj 100 700 sq/fx/1_lin/high_pass~;
#X obj 300 700 sq/fx/1_lin/high_pass~;
#X obj 500 620 r \$0-lo_high;
#X obj 100 800 *~ 1;
#X floatatom 500 680 5 0 0 0 - - -, f 5;
#X obj 150 800 *~ 1;
#X obj 500 650 sq/rmp/map 70 127 1 3;
#X obj 200 600 r \$0-highpass;
#X obj 1400 350 s \$0-highpass;
#X text 1310 200 highpass ->;
#X connect 0 0 26 0;
#X connect 0 0 40 0;
#X connect 0 0 60 0;
#X connect 3 0 4 0;
#X connect 3 0 6 0;
#X connect 4 0 13 0;
#X connect 5 0 18 0;
#X connect 6 0 7 0;
#X connect 7 0 8 0;
#X connect 8 0 15 0;
#X connect 9 0 19 0;
#X connect 10 0 28 0;
#X connect 10 0 34 0;
#X connect 11 0 25 0;
#X connect 11 0 56 0;
#X connect 12 0 32 0;
#X connect 12 0 50 0;
#X connect 13 0 14 0;
#X connect 14 0 5 0;
#X connect 15 0 16 0;
#X connect 16 0 9 0;
#X connect 17 0 13 1;
#X connect 17 0 16 1;
#X connect 17 0 15 1;
#X connect 17 0 14 1;
#X connect 18 0 1 0;
#X connect 18 0 26 1;
#X connect 19 0 2 0;
#X connect 19 0 36 1;
#X connect 20 0 18 1;
#X connect 20 0 19 1;
#X connect 21 0 20 0;
#X connect 22 0 17 0;
#X connect 23 0 3 0;
#X connect 26 0 30 0;
#X connect 27 0 29 0;
#X connect 28 0 21 0;
#X connect 29 0 26 2;
#X connect 29 0 36 2;
#X connect 35 0 27 0;
#X connect 36 0 37 0;
#X connect 38 0 44 0;
#X connect 39 0 42 0;
#X connect 40 0 26 1;
#X connect 41 0 45 0;
#X connect 44 0 39 0;
#X connect 45 0 40 1;
#X connect 48 0 49 0;
#X connect 49 0 44 0;
#X connect 50 0 23 0;
#X connect 51 0 36 0;
#X connect 51 0 52 0;
#X connect 51 0 61 0;
#X connect 52 0 36 1;
#X connect 53 0 54 0;
#X connect 54 0 52 1;
#X connect 56 0 22 0;
#X connect 58 0 59 0;
#X connect 59 0 68 0;
#X connect 60 0 63 0;
#X connect 61 0 65 0;
#X connect 62 0 66 0;
#X connect 63 0 1 0;
#X connect 64 0 65 1;
#X connect 64 0 63 1;
#X connect 65 0 2 0;
#X connect 66 0 64 0;
#X connect 67 0 61 1;
#X connect 67 0 60 1;
