#N canvas 916 350 730 726 12;
#X obj 300 400 moog~;
#X floatatom 500 80 5 0 0 0 - - -, f 5;
#X floatatom 360 230 5 0 0 0 - - -, f 5;
#X floatatom 50 80 5 0 0 0 - - -, f 5;
#X obj 400 460 env~;
#X floatatom 400 490 5 0 0 0 - - -, f 5;
#X msg 190 310 reset;
#X obj 280 250 +~ 1;
#X floatatom 280 180 5 0 0 0 - - -, f 5;
#X floatatom 360 260 5 0 0 0 - - -, f 5;
#X obj 280 310 +~ 100;
#X obj 280 220 osc~ 0.25;
#X obj 280 280 *~ 2000;
#X obj 500 280 sig~ 3;
#X obj 50 276 phasor~ 110;
#X text 30 520 A signal controlled "moog" resonant lowpass;
#X text 540 250 Q (1-4);
#X text 74 559 resonance freq modulation;
#N canvas 284 271 494 344 META 0;
#X text 12 165 HELP_PATCH_AUTHORS "pd meta" information added by Jonathan
Wilkes for Pd version 0.42.;
#X text 12 25 LICENSE Tcl/Tk;
#X text 12 145 AUTHOR Guenter Geiger;
#X text 12 5 KEYWORDS signal;
#X text 12 45 DESCRIPTION a signal controlled moog resonant lowpass
;
#X text 12 65 INLET_0 reset signal;
#X text 12 85 INLET_1 signal;
#X text 12 105 INLET_2 signal;
#X text 12 125 OUTLET_0 signal;
#X restore 400 530 pd META;
#X obj 50 -80 inlet;
#X obj 200 -80 inlet;
#X obj 350 -80 inlet;
#X obj 500 -80 inlet;
#X floatatom 50 -20 5 0 0 0 - - -, f 5;
#X floatatom 200 -20 5 0 0 0 - - -, f 5;
#X floatatom 350 -20 5 0 0 0 - - -, f 5;
#X floatatom 500 -20 5 0 0 0 - - -, f 5;
#X obj 300 660 outlet~;
#X obj 280 140 * 1;
#X obj 300 80 bng 15 250 50 0 empty empty empty 17 7 0 10 #fcfcfc #000000
#000000;
#X floatatom 350 80 5 0 0 0 - - -, f 5;
#X floatatom 200 80 5 0 0 0 - - -, f 5;
#X obj 50 50 sq/logic/map 0 127 0.1 600;
#X obj 200 20 sq/logic/map 0 127 0 10;
#X obj 350 50 sq/logic/map 0 127 1 10;
#X obj 500 20 sq/logic/map 0 127 1 4;
#X connect 0 0 4 0;
#X connect 0 0 27 0;
#X connect 1 0 13 0;
#X connect 2 0 12 1;
#X connect 3 0 14 0;
#X connect 4 0 5 0;
#X connect 6 0 0 0;
#X connect 7 0 12 0;
#X connect 8 0 11 0;
#X connect 9 0 10 1;
#X connect 10 0 0 1;
#X connect 11 0 7 0;
#X connect 12 0 10 0;
#X connect 13 0 0 2;
#X connect 14 0 0 0;
#X connect 19 0 23 0;
#X connect 20 0 24 0;
#X connect 21 0 25 0;
#X connect 22 0 26 0;
#X connect 23 0 32 0;
#X connect 24 0 33 0;
#X connect 25 0 34 0;
#X connect 26 0 35 0;
#X connect 28 0 8 0;
#X connect 29 0 28 0;
#X connect 30 0 28 1;
#X connect 31 0 28 0;
#X connect 32 0 3 0;
#X connect 33 0 31 0;
#X connect 34 0 29 0;
#X connect 34 0 30 0;
#X connect 35 0 1 0;
