#N canvas 1320 69 1240 1346 12;
#X obj 200 1500 outlet~;
#X obj 700 1300 *~ 0.1;
#X obj 700 540 random 8;
#X obj 700 600 select 1 2 3 4 5 6 7 8;
#X obj 700 800 mtof;
#X obj 700 400 tgl 15 0 empty empty empty 17 7 0 10 #fcfcfc #000000
#000000 1 1;
#X obj 700 480 metro;
#X msg 700 650 60;
#X msg 740 650 62;
#X msg 780 650 64;
#X msg 860 650 67;
#X msg 900 650 69;
#X msg 940 650 71;
#X floatatom 700 700 5 0 0 0 - - -, f 5;
#X obj 200 540 random 8;
#X obj 200 600 select 1 2 3 4 5 6 7 8;
#X obj 200 800 mtof;
#X obj 200 400 tgl 15 0 empty empty empty 17 7 0 10 #fcfcfc #000000
#000000 1 1;
#X obj 200 480 metro;
#X msg 200 650 60;
#X floatatom 200 750 5 0 0 0 - - -, f 5;
#X obj 200 300 tgl 15 0 empty empty empty 17 7 0 10 #fcfcfc #000000
#000000 1 1;
#X obj 200 200 loadbang;
#X text 200 150 I couldn't figure out the reverb being used in the
original patch \, so I'll go with no reverb for now;
#X msg 800 400 250;
#X msg 300 400 2000;
#X msg 820 650 48;
#X msg 980 650 48;
#X msg 280 650 57;
#X msg 240 650 60;
#X msg 320 650 48;
#X msg 360 650 65;
#X msg 400 650 65;
#X msg 440 650 67;
#X msg 480 650 48;
#X obj 200 700 - 24;
#X obj 700 1000 * 1;
#X obj 740 1000 * 2;
#X obj 780 1000 * 3;
#X obj 820 1000 * 4;
#X obj 860 1000 * 5;
#X obj 900 1000 * 6;
#X obj 940 1000 * 7;
#X obj 980 1000 * 8;
#X obj 1020 1000 * 9;
#X obj 1060 1000 * 10;
#X floatatom 700 840 5 0 0 0 - - -, f 5;
#X floatatom 700 1050 5 0 0 0 - - -, f 5;
#X floatatom 740 1050 5 0 0 0 - - -, f 5;
#X floatatom 780 1050 5 0 0 0 - - -, f 5;
#X floatatom 820 1050 5 0 0 0 - - -, f 5;
#X floatatom 860 1050 5 0 0 0 - - -, f 5;
#X floatatom 900 1050 5 0 0 0 - - -, f 5;
#X floatatom 940 1050 5 0 0 0 - - -, f 5;
#X floatatom 980 1050 5 0 0 0 - - -, f 5;
#X floatatom 1020 1050 5 0 0 0 - - -, f 5;
#X floatatom 1060 1050 5 0 0 0 - - -, f 5;
#X obj 700 1200 *~;
#X obj 740 1200 *~;
#X obj 780 1200 *~;
#X obj 820 1200 *~;
#X obj 860 1200 *~;
#X obj 900 1200 *~;
#X obj 940 1200 *~;
#X obj 980 1200 *~;
#X obj 1020 1200 *~;
#X obj 1060 1200 *~;
#X obj 200 1000 * 1;
#X obj 240 1000 * 2;
#X obj 280 1000 * 3;
#X obj 320 1000 * 4;
#X obj 360 1000 * 5;
#X obj 400 1000 * 6;
#X obj 440 1000 * 7;
#X obj 480 1000 * 8;
#X obj 520 1000 * 9;
#X obj 560 1000 * 10;
#X floatatom 200 1050 5 0 0 0 - - -, f 5;
#X floatatom 240 1050 5 0 0 0 - - -, f 5;
#X floatatom 280 1050 5 0 0 0 - - -, f 5;
#X floatatom 320 1050 5 0 0 0 - - -, f 5;
#X floatatom 360 1050 5 0 0 0 - - -, f 5;
#X floatatom 400 1050 5 0 0 0 - - -, f 5;
#X floatatom 440 1050 5 0 0 0 - - -, f 5;
#X floatatom 480 1050 5 0 0 0 - - -, f 5;
#X floatatom 520 1050 5 0 0 0 - - -, f 5;
#X floatatom 560 1050 5 0 0 0 - - -, f 5;
#X obj 200 1100 osc~;
#X obj 200 1200 *~;
#X obj 240 1100 osc~;
#X obj 240 1200 *~;
#X obj 280 1100 osc~;
#X obj 280 1200 *~;
#X obj 320 1100 osc~;
#X obj 320 1200 *~;
#X obj 360 1100 osc~;
#X obj 360 1200 *~;
#X obj 400 1100 osc~;
#X obj 400 1200 *~;
#X obj 440 1100 osc~;
#X obj 440 1200 *~;
#X obj 480 1100 osc~;
#X obj 480 1200 *~;
#X obj 520 1100 osc~;
#X obj 520 1200 *~;
#X obj 560 1100 osc~;
#X obj 560 1200 *~;
#X obj 200 1300 *~ 0.1;
#X obj 600 1400 *~;
#X obj 100 1400 *~;
#X text 200 100 from here:https://www.youtube.com/watch?v=8zeXBNfV88g
;
#X text 1150 1160 <- Adjust hadmonics by tweaking numbers in this row
;
#X floatatom 200 840 5 0 0 0 - - -, f 5;
#X text 850 400 Melody Notes;
#X text 360 400 Bass Notes;
#X obj 2100 400 inlet;
#X obj 2100 429 hsl 128 15 0 127 0 0 empty empty empty -2 -8 0 10 #fcfcfc
#000000 #000000 5600 1;
#X obj 2100 500 / 127;
#X obj 2300 400 inlet;
#X obj 2300 430 hsl 128 15 0 127 0 0 empty empty empty -2 -8 0 10 #fcfcfc
#000000 #000000 8200 1;
#X obj 2300 500 / 127;
#X obj 3080 2900 f;
#X obj 2500 400 inlet;
#X obj 2500 430 hsl 128 15 0 127 0 0 empty empty empty -2 -8 0 10 #fcfcfc
#000000 #000000 6500 1;
#X obj 2500 500 / 127;
#X obj 2700 400 inlet;
#X obj 2700 430 hsl 128 15 0 127 0 0 empty empty empty -2 -8 0 10 #fcfcfc
#000000 #000000 9000 1;
#X obj 2700 500 / 127;
#X obj 2900 400 inlet;
#X obj 2900 429 hsl 128 15 0 127 0 0 empty empty empty -2 -8 0 10 #fcfcfc
#000000 #000000 4300 1;
#X obj 2900 500 / 127;
#X obj 1100 400 inlet;
#X obj 1100 430 hsl 128 15 0 127 0 0 empty empty empty -2 -8 0 10 #fcfcfc
#000000 #000000 7750 1;
#X obj 1100 500 / 127;
#X obj 1300 400 inlet;
#X obj 1300 430 hsl 128 15 0 127 0 0 empty empty empty -2 -8 0 10 #fcfcfc
#000000 #000000 6400 1;
#X obj 1300 500 / 127;
#X obj 1500 400 inlet;
#X obj 1500 430 hsl 128 15 0 127 0 0 empty empty empty -2 -8 0 10 #fcfcfc
#000000 #000000 2900 1;
#X obj 1500 500 / 127;
#X floatatom 2100 600 5 0 0 0 - - -, f 5;
#X floatatom 2300 600 5 0 0 0 - - -, f 5;
#X floatatom 2500 600 5 0 0 0 - - -, f 5;
#X floatatom 2700 600 5 0 0 0 - - -, f 5;
#X floatatom 2900 600 5 0 0 0 - - -, f 5;
#X floatatom 1100 600 5 0 0 0 - - -, f 5;
#X floatatom 1300 600 5 0 0 0 - - -, f 5;
#X floatatom 1500 600 5 0 0 0 - - -, f 5;
#X obj 1700 400 inlet;
#X obj 1700 430 hsl 128 15 0 127 0 0 empty empty empty -2 -8 0 10 #fcfcfc
#000000 #000000 5900 1;
#X obj 1700 500 / 127;
#X floatatom 1700 600 5 0 0 0 - - -, f 5;
#X obj 1900 400 inlet;
#X obj 1900 430 hsl 128 15 0 127 0 0 empty empty empty -2 -8 0 10 #fcfcfc
#000000 #000000 6000 1;
#X obj 1900 500 / 127;
#X floatatom 1900 600 5 0 0 0 - - -, f 5;
#X obj 200 1450 *~ 3;
#X msg 840 710;
#X floatatom 810 740 5 0 0 0 - - -, f 5;
#X obj 700 1100 osc~;
#X obj 860 1100 osc~;
#X obj 1020 1100 osc~;
#X obj 740 1100 osc~;
#X obj 900 1100 osc~;
#X obj 1060 1100 osc~;
#X obj 780 1100 osc~;
#X obj 820 1100 osc~;
#X obj 940 1100 osc~;
#X obj 980 1100 osc~;
#X connect 1 0 108 0;
#X connect 2 0 3 0;
#X connect 3 0 7 0;
#X connect 3 1 8 0;
#X connect 3 2 9 0;
#X connect 3 3 26 0;
#X connect 3 4 10 0;
#X connect 3 5 11 0;
#X connect 3 6 12 0;
#X connect 3 7 27 0;
#X connect 4 0 46 0;
#X connect 5 0 6 0;
#X connect 5 0 108 1;
#X connect 6 0 2 0;
#X connect 7 0 13 0;
#X connect 8 0 13 0;
#X connect 9 0 13 0;
#X connect 11 0 13 0;
#X connect 12 0 13 0;
#X connect 13 0 4 0;
#X connect 14 0 15 0;
#X connect 15 0 19 0;
#X connect 15 1 29 0;
#X connect 15 2 28 0;
#X connect 15 3 30 0;
#X connect 15 4 31 0;
#X connect 15 5 32 0;
#X connect 15 6 33 0;
#X connect 15 7 34 0;
#X connect 16 0 112 0;
#X connect 17 0 18 0;
#X connect 17 0 109 1;
#X connect 18 0 14 0;
#X connect 19 0 35 0;
#X connect 20 0 16 0;
#X connect 21 0 5 0;
#X connect 21 0 17 0;
#X connect 22 0 21 0;
#X connect 22 0 24 0;
#X connect 22 0 25 0;
#X connect 24 0 6 1;
#X connect 25 0 18 1;
#X connect 26 0 13 0;
#X connect 27 0 13 0;
#X connect 28 0 35 0;
#X connect 29 0 35 0;
#X connect 30 0 35 0;
#X connect 31 0 35 0;
#X connect 32 0 35 0;
#X connect 33 0 35 0;
#X connect 34 0 35 0;
#X connect 35 0 20 0;
#X connect 36 0 47 0;
#X connect 37 0 48 0;
#X connect 38 0 49 0;
#X connect 39 0 50 0;
#X connect 40 0 51 0;
#X connect 41 0 52 0;
#X connect 42 0 53 0;
#X connect 43 0 54 0;
#X connect 44 0 55 0;
#X connect 45 0 56 0;
#X connect 46 0 36 0;
#X connect 46 0 45 0;
#X connect 46 0 44 0;
#X connect 46 0 43 0;
#X connect 46 0 42 0;
#X connect 46 0 41 0;
#X connect 46 0 40 0;
#X connect 46 0 39 0;
#X connect 46 0 38 0;
#X connect 46 0 37 0;
#X connect 47 0 159 0;
#X connect 48 0 162 0;
#X connect 49 0 165 0;
#X connect 50 0 166 0;
#X connect 51 0 160 0;
#X connect 52 0 163 0;
#X connect 53 0 167 0;
#X connect 54 0 168 0;
#X connect 55 0 161 0;
#X connect 56 0 164 0;
#X connect 57 0 1 0;
#X connect 58 0 1 0;
#X connect 59 0 1 0;
#X connect 60 0 1 0;
#X connect 61 0 1 0;
#X connect 62 0 1 0;
#X connect 63 0 1 0;
#X connect 64 0 1 0;
#X connect 65 0 1 0;
#X connect 66 0 1 0;
#X connect 67 0 77 0;
#X connect 68 0 78 0;
#X connect 69 0 79 0;
#X connect 70 0 80 0;
#X connect 71 0 81 0;
#X connect 72 0 82 0;
#X connect 73 0 83 0;
#X connect 74 0 84 0;
#X connect 75 0 85 0;
#X connect 76 0 86 0;
#X connect 77 0 87 0;
#X connect 78 0 89 0;
#X connect 79 0 91 0;
#X connect 80 0 93 0;
#X connect 81 0 95 0;
#X connect 82 0 97 0;
#X connect 83 0 99 0;
#X connect 84 0 101 0;
#X connect 85 0 103 0;
#X connect 86 0 105 0;
#X connect 87 0 88 0;
#X connect 88 0 107 0;
#X connect 89 0 90 0;
#X connect 90 0 107 0;
#X connect 91 0 92 0;
#X connect 92 0 107 0;
#X connect 93 0 94 0;
#X connect 94 0 107 0;
#X connect 95 0 96 0;
#X connect 96 0 107 0;
#X connect 97 0 98 0;
#X connect 98 0 107 0;
#X connect 99 0 100 0;
#X connect 100 0 107 0;
#X connect 101 0 102 0;
#X connect 102 0 107 0;
#X connect 103 0 104 0;
#X connect 104 0 107 0;
#X connect 105 0 106 0;
#X connect 106 0 107 0;
#X connect 107 0 109 0;
#X connect 108 0 156 0;
#X connect 109 0 156 0;
#X connect 112 0 67 0;
#X connect 112 0 76 0;
#X connect 112 0 75 0;
#X connect 112 0 74 0;
#X connect 112 0 73 0;
#X connect 112 0 72 0;
#X connect 112 0 71 0;
#X connect 112 0 70 0;
#X connect 112 0 69 0;
#X connect 112 0 68 0;
#X connect 115 0 116 0;
#X connect 116 0 117 0;
#X connect 117 0 140 0;
#X connect 118 0 119 0;
#X connect 119 0 120 0;
#X connect 120 0 141 0;
#X connect 122 0 123 0;
#X connect 123 0 124 0;
#X connect 124 0 142 0;
#X connect 125 0 126 0;
#X connect 126 0 127 0;
#X connect 127 0 143 0;
#X connect 128 0 129 0;
#X connect 129 0 130 0;
#X connect 130 0 144 0;
#X connect 131 0 132 0;
#X connect 132 0 133 0;
#X connect 133 0 145 0;
#X connect 134 0 135 0;
#X connect 135 0 136 0;
#X connect 136 0 146 0;
#X connect 137 0 138 0;
#X connect 138 0 139 0;
#X connect 139 0 147 0;
#X connect 140 0 57 1;
#X connect 140 0 58 1;
#X connect 141 0 60 1;
#X connect 141 0 59 1;
#X connect 142 0 61 1;
#X connect 142 0 62 1;
#X connect 143 0 63 1;
#X connect 143 0 64 1;
#X connect 144 0 65 1;
#X connect 144 0 66 1;
#X connect 145 0 88 1;
#X connect 145 0 90 1;
#X connect 146 0 92 1;
#X connect 146 0 94 1;
#X connect 147 0 96 1;
#X connect 147 0 98 1;
#X connect 148 0 149 0;
#X connect 149 0 150 0;
#X connect 150 0 151 0;
#X connect 151 0 100 1;
#X connect 151 0 102 1;
#X connect 152 0 153 0;
#X connect 153 0 154 0;
#X connect 154 0 155 0;
#X connect 155 0 104 1;
#X connect 155 0 106 1;
#X connect 156 0 0 0;
#X connect 158 0 4 0;
#X connect 159 0 57 0;
#X connect 160 0 61 0;
#X connect 161 0 65 0;
#X connect 162 0 58 0;
#X connect 163 0 62 0;
#X connect 164 0 66 0;
#X connect 165 0 59 0;
#X connect 166 0 60 0;
#X connect 167 0 63 0;
#X connect 168 0 64 0;
