#N canvas 1000 69 920 986 12;
#X obj 200 1100 outlet~;
#X obj 200 1000 *~ 0.1;
#X obj 200 540 random 8;
#X obj 200 600 select 1 2 3 4 5 6 7 8;
#X obj 200 800 mtof;
#X obj 200 840 osc~ 220;
#X obj 200 400 tgl 15 0 empty empty empty 17 7 0 10 #fcfcfc #000000
#000000 0 1;
#X obj 200 480 metro;
#X obj 300 430 sq/rmp/bpm_to_ms;
#X msg 300 400 120;
#X msg 200 650 60;
#X msg 240 650 62;
#X msg 280 650 64;
#X msg 320 650 65;
#X msg 360 650 67;
#X msg 400 650 69;
#X msg 440 650 71;
#X msg 480 650 72;
#X obj 200 700 - 12;
#X obj 1560 1510 f, f 14;
#X floatatom 200 750 5 0 0 0 - - -, f 5;
#X obj 600 540 random 8;
#X obj 600 600 select 1 2 3 4 5 6 7 8;
#X obj 600 800 mtof;
#X obj 600 840 osc~ 220;
#X obj 600 400 tgl 15 0 empty empty empty 17 7 0 10 #fcfcfc #000000
#000000 0 1;
#X obj 600 480 metro;
#X obj 700 430 sq/rmp/bpm_to_ms;
#X msg 600 650 60;
#X msg 640 650 62;
#X msg 680 650 64;
#X msg 720 650 65;
#X msg 760 650 67;
#X msg 800 650 69;
#X msg 840 650 71;
#X msg 880 650 72;
#X floatatom 600 750 5 0 0 0 - - -, f 5;
#X msg 700 400 240;
#X obj 1000 540 random 8;
#X obj 1000 600 select 1 2 3 4 5 6 7 8;
#X obj 1000 800 mtof;
#X obj 1000 840 osc~ 220;
#X obj 1000 400 tgl 15 0 empty empty empty 17 7 0 10 #fcfcfc #000000
#000000 0 1;
#X obj 1000 480 metro;
#X obj 1100 430 sq/rmp/bpm_to_ms;
#X msg 1000 650 60;
#X msg 1040 650 62;
#X msg 1080 650 64;
#X msg 1120 650 65;
#X msg 1160 650 67;
#X msg 1200 650 69;
#X msg 1240 650 71;
#X msg 1280 650 72;
#X floatatom 1000 750 5 0 0 0 - - -, f 5;
#X msg 1100 400 480;
#X obj 1000 700 + 12;
#X obj 200 300 tgl 15 0 empty empty empty 17 7 0 10 #fcfcfc #000000
#000000 0 1;
#X obj 200 200 loadbang;
#X obj 600 700 + 0;
#X text 200 100 from here:https://www.youtube.com/watch?v=uCBLSxvlX-c
;
#X text 200 150 I couldn't figure out the reverb being used in the
original patch \, so I'll go with no reverb for now;
#X obj 900 900 *~;
#X obj 500 900 *~;
#X obj 100 900 *~;
#X connect 1 0 0 0;
#X connect 2 0 3 0;
#X connect 3 0 10 0;
#X connect 3 1 11 0;
#X connect 3 2 12 0;
#X connect 3 3 13 0;
#X connect 3 4 14 0;
#X connect 3 5 15 0;
#X connect 3 6 16 0;
#X connect 3 7 17 0;
#X connect 4 0 5 0;
#X connect 5 0 63 0;
#X connect 6 0 7 0;
#X connect 6 0 63 1;
#X connect 7 0 2 0;
#X connect 8 0 7 1;
#X connect 9 0 8 0;
#X connect 10 0 18 0;
#X connect 11 0 18 0;
#X connect 12 0 18 0;
#X connect 13 0 18 0;
#X connect 14 0 18 0;
#X connect 15 0 18 0;
#X connect 16 0 18 0;
#X connect 17 0 18 0;
#X connect 18 0 20 0;
#X connect 20 0 4 0;
#X connect 21 0 22 0;
#X connect 22 0 28 0;
#X connect 22 1 29 0;
#X connect 22 2 30 0;
#X connect 22 3 31 0;
#X connect 22 4 32 0;
#X connect 22 5 33 0;
#X connect 22 6 34 0;
#X connect 22 7 35 0;
#X connect 23 0 24 0;
#X connect 24 0 62 0;
#X connect 25 0 26 0;
#X connect 25 0 62 1;
#X connect 26 0 21 0;
#X connect 27 0 26 1;
#X connect 28 0 58 0;
#X connect 29 0 58 0;
#X connect 30 0 58 0;
#X connect 31 0 58 0;
#X connect 32 0 58 0;
#X connect 33 0 58 0;
#X connect 34 0 58 0;
#X connect 35 0 58 0;
#X connect 36 0 23 0;
#X connect 37 0 27 0;
#X connect 38 0 39 0;
#X connect 39 0 45 0;
#X connect 39 1 46 0;
#X connect 39 2 47 0;
#X connect 39 3 48 0;
#X connect 39 4 49 0;
#X connect 39 5 50 0;
#X connect 39 6 51 0;
#X connect 39 7 52 0;
#X connect 40 0 41 0;
#X connect 41 0 61 0;
#X connect 42 0 43 0;
#X connect 42 0 61 1;
#X connect 43 0 38 0;
#X connect 44 0 43 1;
#X connect 45 0 55 0;
#X connect 46 0 55 0;
#X connect 47 0 55 0;
#X connect 48 0 55 0;
#X connect 49 0 55 0;
#X connect 50 0 55 0;
#X connect 51 0 55 0;
#X connect 52 0 55 0;
#X connect 53 0 40 0;
#X connect 54 0 44 0;
#X connect 55 0 53 0;
#X connect 56 0 6 0;
#X connect 56 0 25 0;
#X connect 56 0 42 0;
#X connect 57 0 56 0;
#X connect 57 0 9 0;
#X connect 57 0 37 0;
#X connect 57 0 54 0;
#X connect 58 0 36 0;
#X connect 61 0 1 0;
#X connect 62 0 1 0;
#X connect 63 0 1 0;
