#N canvas 10 35 1265 1291 12;
#X obj 200 400 outlet~;
#X obj 200 200 noise~;
#X obj 200 300 bp~ 1250 0.83;
#X obj 200 350 *~ 1.04;
#X text 270 350 <- compensate for volume lost from bp~ object;
#X connect 1 0 2 0;
#X connect 2 0 3 0;
#X connect 3 0 0 0;
