#N canvas 1285 35 1265 1288 12;
#X obj 200 400 outlet~;
#X obj 200 200 noise~;
#X obj 200 260 hip~ 10;
#X obj 200 300 lop~ 2000;
#X obj 200 350 *~ 1.089;
#X text 270 350 <- compensate for volume lost from hip~ and lop~ objects
;
#X connect 1 0 2 0;
#X connect 2 0 3 0;
#X connect 3 0 4 0;
#X connect 4 0 0 0;
