#N canvas 654 210 1272 1087 12;
#X obj 200 500 outlet~;
#X obj 200 400 lop~ 12000;
#X obj 1430 800 f;
#N canvas 481 580 450 300 ambience 0;
#X obj 200 250 *~ 0.007;
#X obj 200 300 outlet~;
#X obj 200 200 noise~;
#X connect 0 0 1 0;
#X connect 2 0 0 0;
#X restore 200 200 pd ambience;
#N canvas 428 471 662 769 droplets_1 0;
#X obj 200 380 osc~;
#X obj 200 420 *~;
#X obj 270 320 *~;
#X obj 270 345 *~;
#X obj 200 540 *~ 0.01;
#X obj 200 570 lop~ 10000;
#X obj 200 240 bp~ 2.064 0.002;
#X obj 270 370 *~;
#X obj 200 450 *~ 0.3;
#X obj 200 280 *~ 3.2;
#X obj 200 480 hip~ 500;
#X obj 200 510 hip~ 500;
#X obj 200 320 *~ 344;
#X obj 200 350 +~ 3000;
#X obj 200 600 *~ 0.01;
#X obj 200 200 noise~;
#X obj 200 700 outlet~;
#X connect 0 0 1 0;
#X connect 1 0 8 0;
#X connect 2 0 3 0;
#X connect 2 0 3 1;
#X connect 3 0 7 0;
#X connect 3 0 7 1;
#X connect 4 0 5 0;
#X connect 5 0 14 0;
#X connect 6 0 9 0;
#X connect 7 0 1 1;
#X connect 8 0 10 0;
#X connect 9 0 2 0;
#X connect 9 0 2 1;
#X connect 9 0 12 0;
#X connect 10 0 11 0;
#X connect 11 0 4 0;
#X connect 12 0 13 0;
#X connect 13 0 0 0;
#X connect 14 0 16 0;
#X connect 15 0 6 0;
#X restore 300 200 pd droplets_1;
#N canvas 1089 472 597 829 droplets_2 0;
#X obj 200 380 osc~;
#X obj 200 200 noise~;
#X obj 200 420 *~;
#X obj 200 354 +~ 2000;
#X obj 270 320 *~;
#X obj 270 345 *~;
#X obj 200 540 *~ 0.01;
#X obj 200 570 lop~ 10000;
#X obj 200 240 bp~ 2.064 0.002;
#X obj 270 370 *~;
#X obj 200 450 *~ 0.3;
#X obj 200 280 *~ 3.2;
#X obj 200 480 hip~ 500;
#X obj 200 510 hip~ 500;
#X obj 200 320 *~ 3000;
#X obj 200 600 *~ 0.02;
#X obj 200 700 outlet~;
#X connect 0 0 2 0;
#X connect 1 0 8 0;
#X connect 2 0 10 0;
#X connect 3 0 0 0;
#X connect 4 0 5 0;
#X connect 4 0 5 1;
#X connect 5 0 9 0;
#X connect 5 0 9 1;
#X connect 6 0 7 0;
#X connect 7 0 15 0;
#X connect 8 0 11 0;
#X connect 9 0 2 1;
#X connect 10 0 12 0;
#X connect 11 0 4 0;
#X connect 11 0 4 1;
#X connect 11 0 14 0;
#X connect 12 0 13 0;
#X connect 13 0 6 0;
#X connect 14 0 3 0;
#X connect 15 0 16 0;
#X restore 400 200 pd droplets_2;
#N canvas 1689 459 735 956 droplets_3 0;
#X obj 200 380 osc~;
#X obj 200 200 noise~;
#X obj 200 420 *~;
#X obj 200 350 +~ 2000;
#X obj 270 320 *~;
#X obj 270 345 *~;
#X obj 200 540 *~ 0.01;
#X obj 200 570 lop~ 10000;
#X obj 200 240 bp~ 2.064 0.002;
#X obj 271 370 *~;
#X obj 200 450 *~ 0.3;
#X obj 200 480 hip~ 500;
#X obj 200 510 hip~ 500;
#X obj 200 320 *~ 5000;
#X obj 200 280 *~ 3.8;
#X obj 200 600 *~ 0.01;
#X obj 200 700 outlet~;
#X connect 0 0 2 0;
#X connect 1 0 8 0;
#X connect 2 0 10 0;
#X connect 3 0 0 0;
#X connect 4 0 5 0;
#X connect 4 0 5 1;
#X connect 5 0 9 0;
#X connect 5 0 9 1;
#X connect 6 0 7 0;
#X connect 7 0 15 0;
#X connect 8 0 14 0;
#X connect 9 0 2 1;
#X connect 10 0 11 0;
#X connect 11 0 12 0;
#X connect 12 0 6 0;
#X connect 13 0 3 0;
#X connect 14 0 4 0;
#X connect 14 0 4 1;
#X connect 14 0 13 0;
#X connect 15 0 16 0;
#X restore 500 200 pd droplets_3;
#N canvas 725 432 738 690 rumble 0;
#X obj 200 400 *~;
#X obj 200 300 lop~ 16;
#X obj 200 500 bp~ 333 4;
#X obj 200 540 *~ 0.4;
#X obj 200 200 noise~;
#X obj 200 600 outlet~;
#X connect 0 0 2 0;
#X connect 1 0 0 0;
#X connect 2 0 3 0;
#X connect 3 0 5 0;
#X connect 4 0 1 0;
#X connect 4 0 0 1;
#X restore 600 200 pd rumble;
#N canvas 607 356 887 1040 drips 0;
#X obj 200 400 /~;
#X obj 200 530 clip~ 0 0.9;
#X obj 200 430 hip~ 10000;
#X obj 300 300 lop~ 1900;
#X obj 200 500 *~;
#X obj 200 460 *~ 0.03;
#X obj 400 380 +~ 1000;
#X obj 399 416 clip~ 1000 10000;
#X obj 200 650 *~ 0.7;
#X obj 200 600 vcf~ 3333 20;
#X obj 200 300 lop~ 0.01;
#X obj 200 200 noise~;
#X obj 400 300 lop~ 16;
#X obj 400 350 *~ 300000;
#X obj 200 700 outlet~;
#X connect 0 0 2 0;
#X connect 1 0 9 0;
#X connect 2 0 5 0;
#X connect 3 0 0 1;
#X connect 4 0 1 0;
#X connect 5 0 4 0;
#X connect 5 0 4 1;
#X connect 6 0 7 0;
#X connect 7 0 9 1;
#X connect 8 0 14 0;
#X connect 9 0 8 0;
#X connect 10 0 0 0;
#X connect 11 0 3 0;
#X connect 11 0 10 0;
#X connect 11 0 12 0;
#X connect 12 0 13 0;
#X connect 13 0 6 0;
#X restore 700 200 pd drips;
#X text 200 100 rain generator \, based on Andy Farnell's work;
#X obj 200 300 *~;
#X obj 240 270 tgl 15 0 empty empty empty 17 7 0 10 #fcfcfc #000000
#000000 1 1;
#X obj 300 300 *~;
#X obj 340 270 tgl 15 0 empty empty empty 17 7 0 10 #fcfcfc #000000
#000000 1 1;
#X obj 400 300 *~;
#X obj 440 270 tgl 15 0 empty empty empty 17 7 0 10 #fcfcfc #000000
#000000 1 1;
#X obj 500 300 *~;
#X obj 540 270 tgl 15 0 empty empty empty 17 7 0 10 #fcfcfc #000000
#000000 1 1;
#X obj 600 300 *~;
#X obj 640 270 tgl 15 0 empty empty empty 17 7 0 10 #fcfcfc #000000
#000000 1 1;
#X obj 700 300 *~;
#X obj 740 270 tgl 15 0 empty empty empty 17 7 0 10 #fcfcfc #000000
#000000 1 1;
#X obj 800 200 loadbang;
#X connect 1 0 0 0;
#X connect 3 0 10 0;
#X connect 4 0 12 0;
#X connect 5 0 14 0;
#X connect 6 0 16 0;
#X connect 7 0 18 0;
#X connect 8 0 20 0;
#X connect 10 0 1 0;
#X connect 11 0 10 1;
#X connect 12 0 1 0;
#X connect 13 0 12 1;
#X connect 14 0 1 0;
#X connect 15 0 14 1;
#X connect 16 0 1 0;
#X connect 17 0 16 1;
#X connect 18 0 1 0;
#X connect 19 0 18 1;
#X connect 20 0 1 0;
#X connect 21 0 20 1;
#X connect 22 0 21 0;
#X connect 22 0 19 0;
#X connect 22 0 17 0;
#X connect 22 0 15 0;
#X connect 22 0 13 0;
#X connect 22 0 11 0;
