#N canvas 1285 35 1265 1291 12;
#X obj 100 1100 outlet~;
#N canvas 0 25 1366 734 dry_wet_mixer~ 0;
#X obj 400 340 *~;
#X obj 200 340 *~;
#X obj 200 200 inlet~;
#X obj 400 200 inlet~;
#X obj 200 480 outlet~;
#X obj 300 200 r on_\$0;
#X obj 300 224 - 1;
#X obj 300 272 sig~;
#X obj 300 305 lop~ 7;
#X obj 500 200 r on_\$0;
#X obj 500 225 sig~;
#X obj 500 260 lop~ 7;
#X obj 300 248 abs;
#X obj 200 400 +~;
#X connect 0 0 13 1;
#X connect 1 0 13 0;
#X connect 2 0 1 0;
#X connect 3 0 0 0;
#X connect 5 0 6 0;
#X connect 6 0 12 0;
#X connect 7 0 8 0;
#X connect 8 0 1 1;
#X connect 9 0 10 0;
#X connect 10 0 11 0;
#X connect 11 0 0 1;
#X connect 12 0 7 0;
#X connect 13 0 4 0;
#X restore 100 800 pd dry_wet_mixer~;
#X obj 900 602 osc~;
#X msg 1000 520 0;
#X obj 800 400 sig~ 1000;
#X obj 900 460 /~;
#X obj 900 650 clip~ -1 1;
#X obj 500 703 *~;
#X obj 900 500 /~ 2;
#X obj 100 300 inlet~;
#X obj 300 440 s on_\$0;
#X obj 200 200 loadbang;
#X msg 200 230 0;
#X obj 200 600 delwrite~ delay_\$0 5000;
#X text 540 700 volume only 0.5 cycle;
#X obj 900 626 *~ 1;
#X obj 517 648 clip~ -1 0;
#X obj 900 100 inlet;
#X obj 600 100 inlet;
#X floatatom 700 200 5 0 0 0 - - -, f 5;
#X floatatom 900 180 5 0 0 0 - - -, f 5;
#X text 490 510 mix amount ->;
#X obj 3030 1610 f;
#X obj 1000 500 bng 15 250 50 0 empty empty empty 17 7 0 10 #fcfcfc
#000000 #000000;
#X text 1030 500 <- reset phase;
#X obj 900 340 *;
#X floatatom 900 380 5 0 0 0 - - -, f 5;
#X text 950 380 <- delay time in milliseconds;
#X obj 1000 250 bng 15 250 50 0 empty empty empty 17 7 0 10 #fcfcfc
#000000 #000000;
#X obj 600 400 +;
#X floatatom 600 340 5 0 0 0 - - -, f 5;
#X obj 660 300 bng 15 250 50 0 empty empty empty 17 7 0 10 #fcfcfc
#000000 #000000;
#X floatatom 670 340 5 0 0 0 - - -, f 5;
#X floatatom 600 440 5 0 0 0 - - -, f 5;
#X floatatom 600 510 5 0 0 0 - - -, f 5;
#X obj 700 150 sq/rmp/map 127 0 0.1 5;
#X obj 900 140 sq/rmp/map 127 0 3 400;
#X text 950 100 <- ms_in_step;
#X text 650 100 <- step_num_to_repeat~;
#X obj 400 100 inlet;
#X obj 400 140 sq/rmp/map 0 127 0 1;
#X floatatom 400 190 5 0 0 0 - - -, f 5;
#X floatatom 320 380 5 0 0 0 - - -, f 5;
#X obj 600 470 sq/rmp/map 0 20 0 1;
#X text 500 850 sourced from here: https://github.com/carlo-monti/Sx4/blob/cdfbab29f2b65ae037bbd8ecf961088f0967c6be/modules/commons/fx_tremolo~.pd#L4
;
#X text 500 800 I'm not going to further sort this abstaction. "m \,
m tired of dealing with it. I'm moving on;
#X connect 1 0 0 0;
#X connect 2 0 15 0;
#X connect 3 0 2 1;
#X connect 4 0 5 0;
#X connect 5 0 8 0;
#X connect 6 0 16 0;
#X connect 7 0 1 1;
#X connect 8 0 2 0;
#X connect 9 0 13 0;
#X connect 9 0 1 0;
#X connect 9 0 7 0;
#X connect 11 0 12 0;
#X connect 12 0 10 0;
#X connect 15 0 6 0;
#X connect 16 0 7 1;
#X connect 17 0 31 0;
#X connect 17 0 32 0;
#X connect 17 0 36 0;
#X connect 18 0 30 0;
#X connect 18 0 35 0;
#X connect 19 0 25 0;
#X connect 20 0 25 1;
#X connect 20 0 28 0;
#X connect 23 0 3 0;
#X connect 25 0 26 0;
#X connect 26 0 5 1;
#X connect 28 0 19 0;
#X connect 29 0 33 0;
#X connect 30 0 29 0;
#X connect 31 0 30 0;
#X connect 32 0 29 1;
#X connect 33 0 43 0;
#X connect 34 0 10 0;
#X connect 35 0 19 0;
#X connect 36 0 20 0;
#X connect 39 0 40 0;
#X connect 40 0 41 0;
#X connect 41 0 42 0;
#X connect 42 0 10 0;
#X connect 43 0 34 0;
