#N canvas 1285 35 1265 1285 10;
#X obj 300 500 osc~;
#X obj 200 200 inlet~;
#X obj 200 680 outlet~;
#X obj 220 580 *~;
#X obj 300 200 inlet;
#X obj 500 200 inlet;
#X obj 300 310 pack 0 20;
#X obj 300 340 line~;
#X obj 500 425 osc~;
#X obj 300 440 *~;
#X obj 400 440 +~ 1;
#X obj 500 340 line~;
#X obj 200 630 *~ 0.5;
#X floatatom 500 280 5 0 0 0 - - -, f 5;
#X obj 500 310 pack 0 200;
#X floatatom 300 280 5 0 0 0 - - -, f 5;
#X obj 300 240 * 50;
#X obj 500 250 sq/rmp/map 0 127 0 4000;
#X text 340 200 <- ringmod input;
#X text 550 200 <- makes the ringmod more... harmonic? It definitely
does something;
#X text 200 100 this is a neat little ringmod abstraction;
#X text 600 100 based off of: https://github.com/carlo-monti/Sx4/blob/cdfbab29f2b65ae037bbd8ecf961088f0967c6be/modules/commons/ring_mod.pd
;
#X connect 0 0 3 1;
#X connect 1 0 3 0;
#X connect 1 0 12 0;
#X connect 3 0 12 0;
#X connect 4 0 16 0;
#X connect 5 0 17 0;
#X connect 6 0 7 0;
#X connect 7 0 9 0;
#X connect 8 0 10 0;
#X connect 9 0 0 0;
#X connect 10 0 9 1;
#X connect 11 0 8 0;
#X connect 12 0 2 0;
#X connect 13 0 14 0;
#X connect 14 0 11 0;
#X connect 15 0 6 0;
#X connect 16 0 15 0;
#X connect 17 0 13 0;
#X coords 0 1285 1 1284 200 70 0;
