#N canvas 80 69 1240 1346 12;
#X obj 220 350 throw~ \$0-delayL;
#X obj 420 350 throw~ \$0-delayR;
#X obj 200 300 inlet~;
#X obj 220 800 catch~ \$0-L;
#X obj 420 800 catch~ \$0-R;
#X obj 900 500 catch~ \$0-delayL;
#X obj 900 551 expr~ tanh($v1);
#X obj 900 900 throw~ \$0-R;
#X obj 1000 900 throw~ \$0-delayR;
#X obj 600 551 expr~ tanh($v1);
#X obj 600 500 catch~ \$0-delayR;
#X obj 600 900 throw~ \$0-L;
#X obj 700 900 throw~ \$0-delayL;
#X obj 200 900 outlet~;
#X obj 400 900 outlet~;
#X obj 400 300 inlet~;
#X obj 200 600 *~;
#X obj 307 499 r \$0-ogVol;
#X floatatom 307 535 5 0 0 0 - - -, f 5;
#X obj 250 600 *~;
#X obj 800 300 inlet;
#X obj 800 330 hsl 128 15 0 127 0 0 empty empty empty -2 -8 0 10 #fcfcfc
#000000 #000000 0 1;
#X obj 800 400 s \$0-ogVol;
#X obj 800 360 sq/rmp/map 0 127 1 0;
#X text 200 100 stereo delay (with feedback);
#X text 500 100 originally from here:https://www.youtube.com/watch?v=L_g3_n_QRKY
;
#X obj 600 300 inlet;
#X obj 600 330 hsl 128 15 0 127 0 0 empty empty empty -2 -8 0 10 #fcfcfc
#000000 #000000 10400 1;
#X obj 600 400 s \$0-fbVol;
#X floatatom 750 800 5 0 0 0 - - -, f 5;
#X obj 750 760 r \$0-fbVol;
#X obj 2480 1720 f;
#X obj 600 601 delwrite~ buffR 2000;
#X obj 900 601 delwrite~ buffL 2000;
#X obj 900 800 vd~ buffL;
#X obj 600 800 vd~ buffR;
#X floatatom 900 750 5 0 0 0 - - -, f 5;
#X floatatom 600 750 5 0 0 0 - - -, f 5;
#X obj 1000 300 inlet;
#X obj 1000 330 hsl 128 15 0 127 0 0 empty empty empty -2 -8 0 10 #fcfcfc
#000000 #000000 5100 1;
#X obj 1000 430 s \$0-fbWinL;
#X obj 1000 390 sq/rmp/map 0 127 0 741;
#X obj 1170 430 s \$0-fbWinR;
#X obj 1170 390 sq/rmp/map 0 127 0 358;
#X obj 900 700 r \$0-fbWinL;
#X obj 600 700 r \$0-fbWinR;
#X floatatom 1200 590 5 0 0 0 - - -, f 5;
#X floatatom 1210 470 5 0 0 0 - - -, f 5;
#X obj 1000 360 sq/logic/smooth 300;
#X obj 600 360 sq/rmp/map 0 127 0 0.9;
#X text 1020 550 <- some soft clipping;
#X obj 800 200 loadbang;
#X msg 800 230 0;
#X obj 600 850 *~;
#X obj 900 850 *~;
#X msg 840 230 63.5;
#X connect 2 0 0 0;
#X connect 2 0 16 0;
#X connect 3 0 13 0;
#X connect 4 0 14 0;
#X connect 5 0 6 0;
#X connect 6 0 33 0;
#X connect 9 0 32 0;
#X connect 10 0 9 0;
#X connect 15 0 1 0;
#X connect 15 0 19 0;
#X connect 16 0 13 0;
#X connect 17 0 18 0;
#X connect 18 0 19 1;
#X connect 18 0 16 1;
#X connect 19 0 14 0;
#X connect 20 0 21 0;
#X connect 21 0 23 0;
#X connect 23 0 22 0;
#X connect 26 0 27 0;
#X connect 27 0 49 0;
#X connect 29 0 53 1;
#X connect 29 0 54 1;
#X connect 30 0 29 0;
#X connect 34 0 54 0;
#X connect 35 0 53 0;
#X connect 36 0 34 0;
#X connect 37 0 35 0;
#X connect 38 0 39 0;
#X connect 39 0 48 0;
#X connect 41 0 40 0;
#X connect 43 0 42 0;
#X connect 44 0 36 0;
#X connect 45 0 37 0;
#X connect 48 0 41 0;
#X connect 48 0 43 0;
#X connect 49 0 28 0;
#X connect 51 0 52 0;
#X connect 51 0 55 0;
#X connect 52 0 21 0;
#X connect 52 0 27 0;
#X connect 53 0 11 0;
#X connect 53 0 12 0;
#X connect 54 0 7 0;
#X connect 54 0 8 0;
#X connect 55 0 39 0;
