#N canvas 257 278 1521 914 12;
#X obj 500 400 hsl 128 15 0 10 0 0 empty empty empty -2 -8 0 10 #fcfcfc
#000000 #000000 0 1;
#X obj 500 580 *~ 2;
#X obj 500 610 +~ 2;
#X obj 600 640 *~ 2;
#X obj 600 670 +~ 2;
#X obj 240 840 delwrite~ phase2 100;
#X obj 600 700 vd~ phase2;
#X obj 600 583 wrap~;
#X obj 500 500 phasor~;
#X obj 600 550 +~ 0.5;
#X obj 500 550 cos~;
#X obj 600 610 cos~;
#X obj 800 400 hsl 128 15 0 3 0 0 empty empty empty -2 -8 0 10 #fcfcfc
#000000 #000000 0 1;
#X obj 600 730 *~ 0.8;
#X obj 500 900 *~ 0.8;
#X obj 700 900 s~ output;
#X obj 200 1100 r~ output;
#X obj 940 400 hsl 128 15 0 0.9 0 0 empty empty empty -2 -8 0 10 #fcfcfc
#000000 #000000 0 1;
#X obj 500 800 vd~ phase1;
#X obj 200 940 delwrite~ phase1 100;
#X floatatom 500 424 5 0 0 0 - - -, f 5;
#X floatatom 800 430 5 0 0 0 - - -, f 5;
#X floatatom 940 420 5 0 0 0 - - -, f 5;
#X obj 200 200 inlet~;
#X obj 200 1200 outlet~;
#X text 940 370 Feedback (try -0.3);
#X text 800 370 Depth (try 2.4);
#X text 500 370 Speed (try 0.7);
#X obj 900 200 inlet;
#X obj 700 200 inlet;
#X obj 500 200 inlet;
#X text 900 600 tutorial here: https://guitarextended.wordpress.com/2011/12/28/phaserchorus-effect-with-pure-data/
;
#X text 900 700 the download link isn't working on the tutorial \,
so I ended up having to download from here: https://github.com/EMC23/TrumBela/blob/ab022cbeeb2213b843df01fefde832b47f622c42/GuitarExtended-Phaser.pd
;
#X obj 900 240 sq/rmp/map 0 127 0 3;
#X obj 700 240 sq/rmp/map 0 127 0 10;
#X obj 500 240 sq/rmp/map 0 127 0 0.9;
#X text 200 100 this is a phaser/chorus abstraction;
#X connect 0 0 20 0;
#X connect 1 0 2 0;
#X connect 2 0 18 0;
#X connect 3 0 4 0;
#X connect 4 0 6 0;
#X connect 6 0 13 0;
#X connect 6 0 15 0;
#X connect 7 0 11 0;
#X connect 8 0 9 0;
#X connect 8 0 10 0;
#X connect 9 0 7 0;
#X connect 10 0 1 0;
#X connect 11 0 3 0;
#X connect 12 0 21 0;
#X connect 13 0 5 0;
#X connect 14 0 19 0;
#X connect 16 0 24 0;
#X connect 17 0 22 0;
#X connect 18 0 14 0;
#X connect 18 0 15 0;
#X connect 20 0 8 0;
#X connect 21 0 4 1;
#X connect 21 0 3 1;
#X connect 21 0 2 1;
#X connect 21 0 1 1;
#X connect 22 0 14 1;
#X connect 22 0 13 1;
#X connect 23 0 19 0;
#X connect 23 0 5 0;
#X connect 28 0 33 0;
#X connect 29 0 34 0;
#X connect 30 0 35 0;
#X connect 33 0 12 0;
#X connect 34 0 0 0;
#X connect 35 0 17 0;
