#N canvas 1285 35 1265 1294 12;
#N canvas 0 22 1366 725 allpass 0;
#X obj 401 208 rzero_rev~;
#X obj 400 235 rpole~;
#X obj 395 175 inlet~;
#X obj 467 175 inlet~;
#X obj 400 259 outlet~;
#X connect 0 0 1 0;
#X connect 1 0 4 0;
#X connect 2 0 0 0;
#X connect 3 0 0 1;
#X connect 3 0 1 1;
#X restore 860 390 pd allpass;
#N canvas 0 22 1366 725 allpass 0;
#X obj 401 208 rzero_rev~;
#X obj 400 235 rpole~;
#X obj 395 175 inlet~;
#X obj 467 175 inlet~;
#X obj 400 259 outlet~;
#X connect 0 0 1 0;
#X connect 1 0 4 0;
#X connect 2 0 0 0;
#X connect 3 0 0 1;
#X connect 3 0 1 1;
#X restore 860 420 pd allpass;
#N canvas 0 22 1366 725 allpass 0;
#X obj 401 208 rzero_rev~;
#X obj 400 235 rpole~;
#X obj 395 175 inlet~;
#X obj 467 175 inlet~;
#X obj 400 259 outlet~;
#X connect 0 0 1 0;
#X connect 1 0 4 0;
#X connect 2 0 0 0;
#X connect 3 0 0 1;
#X connect 3 0 1 1;
#X restore 860 450 pd allpass;
#N canvas 0 22 1366 725 allpass 0;
#X obj 401 208 rzero_rev~;
#X obj 400 235 rpole~;
#X obj 395 175 inlet~;
#X obj 467 175 inlet~;
#X obj 400 259 outlet~;
#X connect 0 0 1 0;
#X connect 1 0 4 0;
#X connect 2 0 0 0;
#X connect 3 0 0 1;
#X connect 3 0 1 1;
#X restore 860 480 pd allpass;
#N canvas 0 22 1366 725 allpass 0;
#X obj 401 208 rzero_rev~;
#X obj 400 235 rpole~;
#X obj 395 175 inlet~;
#X obj 467 175 inlet~;
#X obj 400 259 outlet~;
#X connect 0 0 1 0;
#X connect 1 0 4 0;
#X connect 2 0 0 0;
#X connect 3 0 0 1;
#X connect 3 0 1 1;
#X restore 860 510 pd allpass;
#N canvas 0 25 1366 728 allpass 0;
#X obj 401 208 rzero_rev~;
#X obj 400 235 rpole~;
#X obj 395 175 inlet~;
#X obj 467 175 inlet~;
#X obj 400 259 outlet~;
#X connect 0 0 1 0;
#X connect 1 0 4 0;
#X connect 2 0 0 0;
#X connect 3 0 0 1;
#X connect 3 0 1 1;
#X restore 860 540 pd allpass;
#N canvas 0 22 1366 725 allpass 0;
#X obj 401 208 rzero_rev~;
#X obj 400 235 rpole~;
#X obj 395 175 inlet~;
#X obj 467 175 inlet~;
#X obj 400 259 outlet~;
#X connect 0 0 1 0;
#X connect 1 0 4 0;
#X connect 2 0 0 0;
#X connect 3 0 0 1;
#X connect 3 0 1 1;
#X restore 860 570 pd allpass;
#N canvas 0 22 1366 725 allpass 0;
#X obj 401 208 rzero_rev~;
#X obj 400 235 rpole~;
#X obj 395 175 inlet~;
#X obj 467 175 inlet~;
#X obj 400 259 outlet~;
#X connect 0 0 1 0;
#X connect 1 0 4 0;
#X connect 2 0 0 0;
#X connect 3 0 0 1;
#X connect 3 0 1 1;
#X restore 860 600 pd allpass;
#X obj 960 390 osc~;
#X obj 700 730 +~;
#X obj 500 880 outlet~;
#X obj 960 450 *~;
#N canvas 0 25 1366 731 dry_wet_mixer~ 0;
#X obj 400 540 +~;
#X obj 700 404 *~;
#X obj 400 500 *~;
#X obj 500 360 abs~;
#X obj 500 330 expr~ 1-$v1;
#X obj 500 300 r~ dry_wet_\$0;
#X obj 740 350 r~ dry_wet_\$0;
#X obj 400 300 inlet~;
#X obj 700 300 inlet~;
#X obj 400 600 outlet~;
#X connect 0 0 9 0;
#X connect 1 0 0 1;
#X connect 2 0 0 0;
#X connect 3 0 2 1;
#X connect 4 0 3 0;
#X connect 5 0 4 0;
#X connect 6 0 1 1;
#X connect 7 0 2 0;
#X connect 8 0 1 0;
#X restore 500 800 pd dry_wet_mixer~;
#X obj 500 424 s~ speed_\$0;
#X obj 960 350 r~ speed_\$0;
#X obj 700 423 s~ depth_\$0;
#X obj 990 420 r~ depth_\$0;
#X obj 300 424 s~ dry_wet_\$0;
#X text 980 510 <-allpass filters cascade;
#X obj 500 830 clip~ -1 1;
#X obj 200 400 s~ input_\$0;
#X obj 860 340 r~ input_\$0;
#X obj 500 770 r~ input_\$0;
#X obj 700 700 r~ input_\$0;
#X obj 700 760 *~ 0.5;
#X obj 500 200 inlet;
#X obj 700 200 inlet;
#X obj 300 200 inlet;
#X obj 300 250 sq/rmp/map 0 127 0 1;
#X floatatom 300 290 5 0 0 0 - - -, f 5;
#X floatatom 700 290 5 0 0 0 - - -, f 5;
#X floatatom 500 290 5 0 0 0 - - -, f 5;
#X obj 500 250 sq/rmp/map 0 127 0 8;
#X obj 200 200 inlet~;
#X obj 700 250 sq/rmp/map 0 127 0 1;
#X text 350 200 <- dry/wet mix;
#X text 550 200 <- speed;
#X text 750 200 <- depth;
#X text 200 100 this is a phaser abstraction. it's not good enough
\, but nothing is ever good enough;
#X text 700 100 based off of this patch: https://github.com/carlo-monti/Sx4/blob/cdfbab29f2b65ae037bbd8ecf961088f0967c6be/modules/commons/fx_phaser~.pd
;
#X connect 0 0 1 0;
#X connect 1 0 2 0;
#X connect 2 0 3 0;
#X connect 3 0 4 0;
#X connect 4 0 5 0;
#X connect 5 0 6 0;
#X connect 6 0 7 0;
#X connect 7 0 9 1;
#X connect 8 0 11 0;
#X connect 9 0 24 0;
#X connect 11 0 0 1;
#X connect 11 0 7 1;
#X connect 11 0 6 1;
#X connect 11 0 5 1;
#X connect 11 0 4 1;
#X connect 11 0 3 1;
#X connect 11 0 2 1;
#X connect 11 0 1 1;
#X connect 12 0 19 0;
#X connect 14 0 8 0;
#X connect 16 0 11 1;
#X connect 19 0 10 0;
#X connect 21 0 0 0;
#X connect 22 0 12 0;
#X connect 23 0 9 0;
#X connect 24 0 12 1;
#X connect 25 0 32 0;
#X connect 26 0 34 0;
#X connect 27 0 28 0;
#X connect 28 0 29 0;
#X connect 29 0 17 0;
#X connect 30 0 15 0;
#X connect 31 0 13 0;
#X connect 32 0 31 0;
#X connect 33 0 20 0;
#X connect 34 0 30 0;
