#N canvas 557 95 1278 881 10;
#X obj 1698 2021 f;
#X obj 200 200 inlet~;
#X obj 200 1100 outlet~;
#X obj 200 900 freeverb~;
#X msg 600 600 freeze \$1;
#X msg 400 600 bypass \$1;
#X obj 600 570 tgl 15 0 empty empty empty 17 7 0 10 #fcfcfc #000000
#000000 0 1;
#X obj 400 570 tgl 15 0 empty empty empty 17 7 0 10 #fcfcfc #000000
#000000 1 1;
#X obj 800 200 inlet;
#X msg 800 600 wet \$1;
#X msg 850 600 dry \$1;
#X obj 800 450 hsl 128 15 0 1 0 0 empty empty empty -2 -8 0 10 #00ccff
#000000 #000000 0 1;
#N canvas 2 80 450 300 inv 0;
#X obj 154 69 inlet;
#X obj 154 179 outlet;
#X msg 154 124 1;
#X obj 154 97 t b f;
#X obj 154 151 -;
#X connect 0 0 3 0;
#X connect 2 0 4 0;
#X connect 3 0 2 0;
#X connect 3 1 4 1;
#X connect 4 0 1 0;
#X restore 850 570 pd inv;
#X floatatom 900 600 5 0 0 0 - - -, f 5;
#X text 800 430 dry;
#X text 910 430 wet;
#X floatatom 800 500 5 0 0 0 - - -, f 5;
#X text 870 500 Wet signal to dry signal ratio;
#X text 870 520 (0 : all dry \, 1 : all wet);
#X obj 900 200 loadbang;
#X obj 900 225 float 0;
#X obj 400 400 bng 15 250 50 0 empty empty empty 17 7 0 10 #fcfcfc
#000000 #000000;
#X obj 300 500 loadbang;
#X msg 700 830 roomsize \$1;
#X msg 900 830 damping \$1;
#X floatatom 900 800 5 0 0 0 - - -, f 5;
#X floatatom 700 800 5 0 0 0 - - -, f 5;
#X text 950 800 Damping level;
#X text 750 800 Roomize;
#X obj 800 700 loadbang;
#X obj 800 725 float 0;
#X text 200 100 who knows how this one works tbh. It's a miracle it
even does anything;
#X msg 500 600 clear;
#X obj 600 500 delay 200;
#X connect 1 0 3 0;
#X connect 3 0 2 0;
#X connect 4 0 3 0;
#X connect 5 0 3 0;
#X connect 6 0 4 0;
#X connect 7 0 5 0;
#X connect 8 0 21 0;
#X connect 8 0 11 0;
#X connect 9 0 3 0;
#X connect 10 0 3 0;
#X connect 11 0 16 0;
#X connect 12 0 10 0;
#X connect 12 0 13 0;
#X connect 16 0 9 0;
#X connect 16 0 12 0;
#X connect 19 0 20 0;
#X connect 20 0 11 0;
#X connect 21 0 7 0;
#X connect 21 0 32 0;
#X connect 21 0 33 0;
#X connect 22 0 7 0;
#X connect 23 0 3 0;
#X connect 24 0 3 0;
#X connect 25 0 24 0;
#X connect 26 0 23 0;
#X connect 29 0 30 0;
#X connect 30 0 26 0;
#X connect 30 0 25 0;
#X connect 32 0 3 0;
#X connect 33 0 6 0;
