#N canvas 1325 323 962 970 12;
#X floatatom 360 500 5 0 0 0 - - -, f 5;
#X obj 300 600 *~;
#X floatatom 300 460 5 0 0 0 - - -, f 5;
#X obj 200 200 inlet~;
#X obj 200 700 outlet~;
#X obj 300 500 osc~;
#X text 200 100 not sure if there's a technical term for this effect.
I discovered it while playing around with sine waves. It pairs well
with the tabrite visualization;
#X obj 500 200 inlet;
#X obj 500 300 sq/rmp/map 0 127 0 2.15;
#X obj 500 250 hsl 128 15 0 127 0 0 empty empty empty -2 -8 0 10 #fcfcfc
#000000 #000000 0 1;
#X obj 700 200 inlet;
#X obj 700 250 hsl 128 15 0 127 0 0 empty empty empty -2 -8 0 10 #fcfcfc
#000000 #000000 3600 1;
#X obj 700 300 sq/rmp/map 0 127 0 7;
#X connect 0 0 1 1;
#X connect 1 0 4 0;
#X connect 2 0 5 0;
#X connect 3 0 4 0;
#X connect 5 0 1 0;
#X connect 7 0 9 0;
#X connect 8 0 0 0;
#X connect 9 0 8 0;
#X connect 10 0 11 0;
#X connect 11 0 12 0;
#X connect 12 0 2 0;
