#N canvas 80 139 1768 1276 10;
#X text 360 400 smoothing;
#X obj 250 470 *~ -1;
#X msg 300 350 \$1 20;
#X text 260 700 RMS based makeup gain;
#X text 300 170 fold amount;
#X obj 500 400 *~;
#X obj 500 300 sig~ 0.2;
#X text 600 170 dc offset;
#X obj 300 400 vline~;
#X obj 200 600 cyclone/pong~ 0 1 1;
#X text 600 100 Implementation of Serge/Buchla influenced "wavefolding"
;
#X obj 1970 1110 f;
#X obj 200 800 outlet~;
#X obj 200 200 inlet~;
#N canvas 255 409 842 947 mmb~ 0;
#X obj 200 200 inlet~;
#X obj 300 200 inlet~;
#N canvas 459 248 450 300 altered.level 0;
#X obj 72 73 inlet~;
#X obj 192 78 inlet~;
#X obj 68 186 outlet~;
#X obj 168 186 outlet~;
#X obj 258 185 outlet;
#X obj 110 136 env~ 1024 256;
#X connect 0 0 2 0;
#X connect 0 0 5 0;
#X connect 1 0 3 0;
#X connect 5 0 4 0;
#X restore 200 300 pd altered.level;
#N canvas 0 22 450 300 reverence.level 0;
#X obj 107 55 inlet~;
#X obj 177 55 inlet~;
#X obj 257 55 inlet;
#X obj 106 141 outlet~;
#X obj 196 141 outlet;
#X obj 266 141 outlet;
#X obj 186 95 env~ 1024 256;
#X connect 0 0 3 0;
#X connect 1 0 6 0;
#X connect 2 0 5 0;
#X connect 6 0 4 0;
#X restore 200 400 pd reverence.level;
#X obj 300 580 -;
#X obj 300 610 + 100;
#X obj 300 640 dbtorms;
#X obj 400 550 samplerate~;
#X obj 400 580 / 1000;
#X obj 400 640 /;
#X obj 400 520 loadbang;
#X obj 300 670 pack f f;
#X obj 300 700 vline~;
#X obj 200 800 *~;
#X obj 200 900 outlet~;
#X obj 400 610 swap 256;
#X connect 0 0 2 0;
#X connect 1 0 2 1;
#X connect 2 0 3 0;
#X connect 2 1 3 1;
#X connect 2 2 3 2;
#X connect 3 0 13 0;
#X connect 3 1 4 0;
#X connect 3 2 4 1;
#X connect 4 0 5 0;
#X connect 5 0 6 0;
#X connect 6 0 11 0;
#X connect 7 0 8 0;
#X connect 8 0 15 0;
#X connect 9 0 11 1;
#X connect 10 0 7 0;
#X connect 11 0 12 0;
#X connect 12 0 13 1;
#X connect 13 0 14 0;
#X connect 15 0 9 0;
#X connect 15 1 9 1;
#X restore 200 700 pd mmb~;
#X text 200 100 based off of this patch: https://github.com/jmej/wavefolder/blob/master/balance.mmb~.pd
;
#X text 1000 100 Inspired by comments on jmej's thread here: https://www.muffwiggler.com/forum/viewtopic.php?t=125642&highlight=
;
#X obj 600 260 / 127;
#X obj 600 200 inlet;
#X obj 600 230 hsl 128 15 0 127 0 0 empty empty empty -2 -8 0 10 #fcfcfc
#000000 #000000 0 1;
#X floatatom 600 300 5 0 0 0 - - -, f 5;
#X obj 300 230 hsl 128 15 0 127 0 0 empty empty empty -2 -8 0 10 #fcfcfc
#000000 #000000 0 1;
#X floatatom 300 300 5 0 0 0 - - -, f 5;
#X obj 300 200 inlet;
#X obj 320 470 *~ 1;
#X obj 300 260 sq/rmp/map 0 127 1 0.1;
#X connect 1 0 9 1;
#X connect 2 0 8 0;
#X connect 5 0 9 0;
#X connect 6 0 5 0;
#X connect 8 0 1 0;
#X connect 8 0 24 0;
#X connect 9 0 14 0;
#X connect 13 0 9 0;
#X connect 13 0 14 1;
#X connect 14 0 12 0;
#X connect 17 0 20 0;
#X connect 18 0 19 0;
#X connect 19 0 17 0;
#X connect 20 0 5 1;
#X connect 21 0 25 0;
#X connect 22 0 2 0;
#X connect 23 0 21 0;
#X connect 24 0 9 2;
#X connect 25 0 22 0;
