#N canvas 10 35 1265 1285 10;
#X floatatom 700 600 7 0 0 0 - - -, f 7;
#X obj 700 530 expr 10 * (pow(2000 \, $f1 / 127));
#X obj 700 500 hsl 128 15 0 127 0 0 empty empty empty -2 -8 0 10 #fcfcfc
#000000 #000000 12700 1;
#X obj 4628 831 f;
#X obj 800 300 hsl 128 15 0 127 0 0 empty empty empty -2 -8 0 10 #fcfcfc
#000000 #000000 12700 1;
#X obj 900 500 hsl 128 15 0 127 0 0 empty empty empty -2 -8 0 10 #fcfcfc
#000000 #000000 12700 1;
#X floatatom 900 600 7 0 0 0 - - -, f 7;
#X obj 900 530 expr 10 * (pow(2000 \, $f1 / 127));
#X floatatom 800 340 5 0 0 0 - - -, f 5;
#X obj 800 200 inlet;
#X obj 900 200 loadbang;
#X obj 4129 1072 f;
#X obj 500 1270 +~;
#X obj 500 1400 outlet~;
#X obj 500 200 inlet~;
#X obj 500 880 *~;
#X obj 500 800 lop~;
#X floatatom 550 760 5 0 0 0 - - -, f 5;
#X obj 1440 560 nbx 5 14 -1e+09 1e+09 0 1 empty empty empty 0 -8 0
10 #fcfcfc #000000 #000000 0 256 0;
#X obj 1400 700 sel 1;
#X floatatom 550 840 6 0 0 0 - - -, f 6;
#X obj 1240 560 nbx 5 14 -1e+09 1e+09 0 1 empty empty empty 0 -8 0
10 #fcfcfc #000000 #000000 0 256 0;
#X obj 1200 690 sel 1;
#X obj 1400 600 ==;
#X obj 1200 750 bng 15 250 50 0 empty empty empty 17 7 0 10 #fcfcfc
#000000 #000000;
#X obj 1400 750 bng 15 250 50 0 empty empty empty 17 7 0 10 #fcfcfc
#000000 #000000;
#X obj 1200 600 !=;
#X obj 1200 800 nbx 5 14 -1e+37 1e+37 0 1 empty empty empty 0 -8 0
10 #fcfcfc #000000 #000000 0 256 0;
#X obj 1400 800 nbx 5 14 -1e+37 1e+37 0 1 empty empty empty 0 -8 0
10 #fcfcfc #000000 #000000 1 256 0;
#X floatatom 600 1060 5 0 0 0 - - -, f 5;
#X obj 560 1100 hip~;
#X obj 560 1180 *~;
#X floatatom 600 1150 6 0 0 0 - - -, f 6;
#X obj 1140 870 nbx 5 14 -1e+09 1e+09 0 1 empty empty empty 0 -8 0
10 #fcfcfc #000000 #000000 10 256 0;
#X obj 1100 1000 sel 1;
#X obj 940 870 nbx 5 14 -1e+09 1e+09 0 1 empty empty empty 0 -8 0 10
#fcfcfc #000000 #000000 10 256 0;
#X obj 900 990 sel 1;
#X obj 1100 900 ==;
#X obj 900 1050 bng 15 250 50 0 empty empty empty 17 7 0 10 #fcfcfc
#000000 #000000;
#X obj 1100 1050 bng 15 250 50 0 empty empty empty 17 7 0 10 #fcfcfc
#000000 #000000;
#X obj 900 900 !=;
#X obj 1100 1100 nbx 5 14 -1e+37 1e+37 0 1 empty empty empty 0 -8 0
10 #fcfcfc #000000 #000000 0 256 0;
#X obj 900 1100 nbx 5 14 -1e+37 1e+37 0 1 empty empty empty 0 -8 0
10 #fcfcfc #000000 #000000 1 256 0;
#X obj 900 230 float 64;
#X floatatom 900 420 5 0 0 0 - - -, f 5;
#X floatatom 700 420 5 0 0 0 - - -, f 5;
#X floatatom 1200 500 5 0 0 0 - - -, f 5;
#X obj 700 380 sq/logic/map 0 60 0 127;
#X obj 900 380 sq/logic/map 68 127 0 127;
#X text 500 100 this abstraction is a low/high pass filter. Algorithm
taken roughly from the TX-6 filter. Midi values 60-68 are in the dead
zone;
#X connect 0 0 17 0;
#X connect 1 0 0 0;
#X connect 2 0 1 0;
#X connect 4 0 8 0;
#X connect 4 0 47 0;
#X connect 4 0 48 0;
#X connect 5 0 7 0;
#X connect 6 0 29 0;
#X connect 6 0 40 0;
#X connect 6 0 37 0;
#X connect 7 0 6 0;
#X connect 9 0 4 0;
#X connect 10 0 43 0;
#X connect 12 0 13 0;
#X connect 14 0 30 0;
#X connect 14 0 16 0;
#X connect 15 0 12 0;
#X connect 16 0 15 0;
#X connect 17 0 16 1;
#X connect 18 0 23 1;
#X connect 19 0 25 0;
#X connect 20 0 15 1;
#X connect 21 0 26 1;
#X connect 22 0 24 0;
#X connect 23 0 19 0;
#X connect 24 0 27 0;
#X connect 25 0 28 0;
#X connect 26 0 22 0;
#X connect 27 0 20 0;
#X connect 28 0 20 0;
#X connect 29 0 30 1;
#X connect 30 0 31 0;
#X connect 31 0 12 1;
#X connect 32 0 31 1;
#X connect 33 0 37 1;
#X connect 34 0 39 0;
#X connect 35 0 40 1;
#X connect 36 0 38 0;
#X connect 37 0 34 0;
#X connect 38 0 42 0;
#X connect 39 0 41 0;
#X connect 40 0 36 0;
#X connect 41 0 32 0;
#X connect 42 0 32 0;
#X connect 43 0 4 0;
#X connect 44 0 5 0;
#X connect 44 0 46 0;
#X connect 45 0 2 0;
#X connect 46 0 26 0;
#X connect 46 0 23 0;
#X connect 47 0 45 0;
#X connect 48 0 44 0;
