#N canvas 681 72 1278 1343 10;
#X obj 1200 20 inlet;
#X obj 4107 582 f;
#X obj 1377 1972 f;
#X obj 580 620 moog~;
#X obj 890 560 hsl 128 15 0 3 0 0 empty empty empty -2 -8 0 10 #fcfcfc
#000000 #000000 1993 1;
#X floatatom 800 610 5 0 0 0 - - -, f 5;
#X floatatom 810 420 14 0 0 0 - - -, f 14;
#X obj 870 790 hsl 128 15 0 7 0 0 empty empty empty -2 -8 0 10 #fcfcfc
#000000 #000000 7166 1;
#X floatatom 870 840 5 0 0 0 - - -, f 5;
#X text 1010 790 <- volume compensation;
#X text 1040 560 <- resonance;
#X obj 490 780 +~;
#X obj 1560 210 hsl 128 15 40 7000 0 0 empty empty empty -2 -8 0 10
#fcfcfc #000000 #000000 0 1;
#X obj 1650 250 nbx 5 14 -1e+09 1e+09 0 1 empty empty empty 0 -8 0
10 #fcfcfc #000000 #000000 41 256 0;
#X floatatom 1560 320 5 0 0 0 - - -, f 5;
#X obj 1600 280 >;
#X obj 1660 370 nbx 5 14 -1e+09 1e+09 0 1 empty empty empty 0 -8 0
10 #fcfcfc #000000 #000000 -0.5 256 0;
#X obj 1660 320 sel 1;
#X obj 1772 252 nbx 5 14 -1e+09 1e+09 0 1 empty empty empty 0 -8 0
10 #fcfcfc #000000 #000000 42 256 0;
#X obj 1782 372 nbx 5 14 -1e+09 1e+09 0 1 empty empty empty 0 -8 0
10 #fcfcfc #000000 #000000 0 256 0;
#X obj 1782 322 sel 1;
#X obj 1722 282 <;
#X floatatom 470 640 5 0 0 0 - - -, f 5;
#X obj 430 680 *~;
#X obj 1200 90 hsl 128 15 0 127 0 1 empty empty empty -2 -8 0 10 #fcfcfc
#000000 #000000 1750 1;
#X floatatom 1510 630 5 0 0 0 - - -, f 5;
#X obj 1460 600 +;
#X floatatom 1370 640 5 0 0 0 - - -, f 5;
#X floatatom 1220 490 5 0 0 0 - - -, f 5;
#X obj 1170 460 +;
#X floatatom 1080 480 5 0 0 0 - - -, f 5;
#X obj 500 540 *~;
#X obj 930 320 +;
#X floatatom 842 282 5 0 0 0 - - -, f 5;
#X floatatom 1070 270 5 0 0 0 - - -, f 5;
#X floatatom 1270 180 5 0 0 0 - - -, f 5;
#X obj 490 840 outlet~;
#X obj 500 280 inlet~;
#X obj 980 270 - 1000;
#X floatatom 1580 610 5 0 0 0 - - -, f 5;
#X obj 1461 650 + 1;
#X msg 1430 320 float -0.5;
#X obj 550 680 *~;
#X obj 610 650 nbx 5 14 -1e+09 1e+09 0 1 empty empty empty 0 -8 0 10
#fcfcfc #000000 #000000 0.5 256 0;
#X text 400 100 okay I forgot to put a dead zone in the center. Now
that I'm done with this \, idk how it works so I can't fix it. If you
hate it \, fix it yourself;
#X obj 1400 560 sq/rmp/map 0 50 4 1;
#X obj 1540 560 sq/rmp/map 63.5 127 -1 3;
#X obj 870 220 sq/rmp/map 0 42 60 1000;
#X obj 1020 190 sq/rmp/map 42 127 1000 26000;
#X obj 1250 390 sq/rmp/map 63.5 100 0 0.5;
#X obj 1110 420 sq/rmp/map 0 63.5 0.65 0;
#X obj 1560 160 sq/rmp/map 64 127 40 7000;
#X connect 0 0 24 0;
#X connect 3 0 42 0;
#X connect 4 0 5 0;
#X connect 5 0 3 2;
#X connect 6 0 3 1;
#X connect 7 0 8 0;
#X connect 7 0 31 1;
#X connect 11 0 36 0;
#X connect 12 0 14 0;
#X connect 12 0 15 0;
#X connect 12 0 21 0;
#X connect 13 0 15 1;
#X connect 15 0 17 0;
#X connect 16 0 22 0;
#X connect 17 0 16 0;
#X connect 18 0 21 1;
#X connect 19 0 22 0;
#X connect 20 0 19 0;
#X connect 21 0 20 0;
#X connect 22 0 23 1;
#X connect 23 0 11 0;
#X connect 24 0 35 0;
#X connect 24 0 45 0;
#X connect 24 0 46 0;
#X connect 24 0 47 0;
#X connect 24 0 48 0;
#X connect 24 0 49 0;
#X connect 24 0 50 0;
#X connect 24 0 51 0;
#X connect 26 0 25 0;
#X connect 26 0 40 0;
#X connect 29 0 28 0;
#X connect 29 0 4 0;
#X connect 31 0 3 0;
#X connect 31 0 23 0;
#X connect 32 0 6 0;
#X connect 37 0 31 0;
#X connect 38 0 32 1;
#X connect 40 0 7 0;
#X connect 41 0 16 0;
#X connect 42 0 11 1;
#X connect 43 0 42 1;
#X connect 45 0 27 0;
#X connect 45 0 26 0;
#X connect 46 0 26 1;
#X connect 46 0 39 0;
#X connect 47 0 32 0;
#X connect 47 0 33 0;
#X connect 48 0 34 0;
#X connect 48 0 38 0;
#X connect 49 0 29 1;
#X connect 50 0 29 0;
#X connect 50 0 30 0;
#X connect 51 0 12 0;
