#N canvas 680 72 1279 1343 12;
#X obj 200 200 inlet~;
#X obj 200 1200 outlet~;
#X obj 440 200 inlet;
#X floatatom 300 370 0 0 0 0 - - -;
#X obj 360 700 *~;
#X obj 480 620 line~;
#X floatatom 500 430 0 0 0 0 - - -;
#X obj 480 570 pack 0 200;
#X obj 500 400 r window;
#X obj 300 340 r transpose;
#X obj 300 430 exp;
#X floatatom 300 460 6 0 0 1 speed_change - -, f 6;
#X obj 300 550 /;
#X obj 440 490 * 0.001;
#X obj 600 710 line~;
#X obj 600 660 pack 0 200;
#X floatatom 600 550 0 0 0 0 - - -;
#X obj 600 520 r delay;
#X obj 360 740 +~;
#X obj 300 780 cos~;
#X obj 300 810 *~;
#X obj 300 860 +~;
#X obj 390 660 wrap~;
#X obj 530 710 *~;
#X obj 530 750 +~;
#X obj 460 790 cos~;
#X obj 460 820 *~;
#X msg 700 440 \; transpose 0 \; window 100 \; delay 0;
#X obj 700 400 loadbang;
#X obj 440 520 t b f;
#X floatatom 300 580 6 0 0 1 rotation_freq - -, f 6;
#X obj 390 620 +~ 0.5;
#X obj 300 700 -~ 0.5;
#X obj 300 740 *~ 0.5;
#X obj 460 710 -~ 0.5;
#X obj 460 750 *~ 0.5;
#X obj 300 490 - 1;
#X obj 300 400 * 0.05776;
#X obj 300 520 * -1;
#X text 540 430 <--window (msec);
#X text 340 550 tape head;
#X obj 300 640 phasor~;
#X obj 600 580 max 1.5;
#X text 900 500 This is a classic rotating-tape-head style pitch shifter
using the [vd~] variable delay object. Ther are two moving tape heads
\, each of which is loudest at the middle of its trajectory \, and
enveloped out at the moment it has to jump back (or forward) to start
another scratch. Most of the brain work is in computing how fast the
tape heads have to move to get the desired transposition.;
#X text 900 620 The "window size" is the total trajectory of the read
points in the delay line \, in milliseconds. The delay times are controlled
by a [phasor~] object. The second delay time \, 180 degrees out of
phase from the first one \, is computed using the "wrap" object.;
#X text 900 710 The "window size" is the total trajectory of the read
points in the delay line \, in milliseconds. The delay times are controlled
by a [phasor~] object. The second delay time \, 180 degrees out of
phase from the first one \, is computed using the "wrap" object.;
#X text 900 800 The [cos~] objects compute the fadein and fadeout of
the two delay line outputs. They each traverse the positive half of
the cosine waveform (phase -0.25 to +0.25) over the time the phase
goes from one end to the other.;
#X floatatom 440 260 5 0 0 0 - - -, f 5;
#X text 900 400 based on the G09.pitchshift PD example;
#X text 630 550 delay (msec);
#X obj 500 460 max 0;
#X text 370 370 <-- transposition (semitones);
#X floatatom 600 620 5 0 0 0 - - -, f 5;
#X text 680 230 <- -12 is one octave down. +12 is one octave up;
#X text 570 270 as a little easter egg \, the conversion block accepts
more than the 0-127 range \, allowing you to go even lower or higher
;
#X obj 200 1100 sq/logic/bypass~;
#X obj 1630 1690 f;
#X obj 500 200 s \$0-inlet;
#X floatatom 500 960 5 0 0 0 - - -, f 5;
#X obj 500 900 r \$0-inlet;
#X obj 240 250 delwrite~ \$0-del 5000;
#X obj 360 780 vd~ \$0-del;
#X obj 530 790 vd~ \$0-del;
#X obj 500 990 sq/if/equal_to;
#X obj 600 900 loadbang;
#X msg 600 929 64;
#X obj 500 1030 sq/rmp/bangs_to_toggle;
#X obj 500 1070 tgl 15 0 empty empty empty 17 7 0 10 #fcfcfc #000000
#000000 1 1;
#X obj 500 930 int;
#X obj 440 230 sq/rmp/map -190.5 317.5 -48 48;
#X connect 0 0 55 0;
#X connect 0 0 60 0;
#X connect 2 0 57 0;
#X connect 2 0 69 0;
#X connect 3 0 37 0;
#X connect 4 0 18 0;
#X connect 5 0 4 1;
#X connect 5 0 23 1;
#X connect 6 0 50 0;
#X connect 7 0 5 0;
#X connect 8 0 6 0;
#X connect 9 0 3 0;
#X connect 10 0 11 0;
#X connect 11 0 36 0;
#X connect 12 0 30 0;
#X connect 13 0 29 0;
#X connect 14 0 18 1;
#X connect 14 0 24 1;
#X connect 15 0 14 0;
#X connect 16 0 42 0;
#X connect 17 0 16 0;
#X connect 18 0 61 0;
#X connect 19 0 20 0;
#X connect 20 0 21 0;
#X connect 21 0 55 1;
#X connect 22 0 23 0;
#X connect 22 0 34 0;
#X connect 23 0 24 0;
#X connect 24 0 62 0;
#X connect 25 0 26 0;
#X connect 26 0 21 1;
#X connect 28 0 27 0;
#X connect 29 0 12 0;
#X connect 29 1 12 1;
#X connect 30 0 41 0;
#X connect 31 0 22 0;
#X connect 32 0 33 0;
#X connect 33 0 19 0;
#X connect 34 0 35 0;
#X connect 35 0 25 0;
#X connect 36 0 38 0;
#X connect 37 0 10 0;
#X connect 38 0 12 0;
#X connect 41 0 4 0;
#X connect 41 0 32 0;
#X connect 41 0 31 0;
#X connect 42 0 52 0;
#X connect 47 0 3 0;
#X connect 50 0 13 0;
#X connect 50 0 7 0;
#X connect 52 0 15 0;
#X connect 55 0 1 0;
#X connect 58 0 63 1;
#X connect 59 0 68 0;
#X connect 61 0 20 1;
#X connect 62 0 26 1;
#X connect 63 0 66 0;
#X connect 63 1 66 1;
#X connect 64 0 65 0;
#X connect 65 0 63 2;
#X connect 66 1 67 0;
#X connect 67 0 55 2;
#X connect 68 0 58 0;
#X connect 69 0 47 0;
