#N canvas 987 191 874 670 12;
#X obj 200 200 inlet;
#X obj 300 200 inlet;
#X obj 200 500 outlet;
#X floatatom 200 350 5 0 0 0 - - -, f 5;
#X obj 300 400 sq/rmp/bitflip;
#X obj 300 500 outlet;
#X msg 300 250 0;
#X msg 200 250 1;
#X text 200 100 this abstraction converts bangs from the first inlet
to toggle on a box \, and bangs from a second inlet to toggle off a
box;
#X text 360 500 <-- outputs the opposite tbox output;
#X connect 0 0 7 0;
#X connect 1 0 6 0;
#X connect 3 0 2 0;
#X connect 3 0 4 0;
#X connect 4 0 5 0;
#X connect 6 0 3 0;
#X connect 7 0 3 0;
