#N canvas 756 267 848 725 12;
#X obj 200 200 inlet;
#X floatatom 200 400 5 0 0 0 - - -, f 5;
#X obj 200 500 outlet;
#X text 200 100 this abstraction converts BPM values into milliseconds
per beat;
#X obj 200 300 expr 60000 / $f1;
#X text 400 200 here's something interesting;
#X text 400 230 this is the exact same logic that the ms_to_bpm abstraction
has. the two are mathematical inverses of one another;
#X connect 0 0 4 0;
#X connect 1 0 2 0;
#X connect 4 0 1 0;
