#N canvas 1285 35 1265 1288 12;
#X obj 200 200 inlet;
#X obj 200 600 outlet;
#X obj 300 500 outlet;
#X obj 200 300 route 0;
#X obj 200 400 bng 15 250 50 0 empty empty empty 17 7 0 10 #fcfcfc
#000000 #000000;
#X obj 300 400 bng 15 250 50 0 empty empty empty 17 7 0 10 #fcfcfc
#000000 #000000;
#X obj 200 250 tgl 15 0 empty empty empty 17 7 0 10 #fcfcfc #000000
#000000 0 1;
#X text 260 600 <-- bangs when toggle box is active;
#X text 360 500 <-- bangs when toggle box is inactive;
#X text 200 100 this abstraction converts a toggle box input to two
different bangs;
#X text 400 200 this can be used to undo the sq/rmp/bangs_to_toggle
abstraction, f 71;
#X connect 0 0 6 0;
#X connect 3 0 4 0;
#X connect 3 1 5 0;
#X connect 4 0 2 0;
#X connect 5 0 1 0;
#X connect 6 0 3 0;
