#N canvas 916 359 730 729 12;
#X obj 400 700 moog~;
#X floatatom 650 360 5 0 0 0 - - -, f 5;
#X floatatom 510 510 5 0 0 0 - - -, f 5;
#X floatatom 200 360 5 0 0 0 - - -, f 5;
#X msg 340 590 reset;
#X obj 430 530 +~ 1;
#X floatatom 430 460 5 0 0 0 - - -, f 5;
#X floatatom 510 540 5 0 0 0 - - -, f 5;
#X obj 430 590 +~ 100;
#X obj 430 500 osc~ 0.25;
#X obj 430 560 *~ 2000;
#X obj 650 560 sig~ 3;
#X obj 200 556 phasor~ 110;
#X text 690 530 Q (1-4);
#X obj 200 200 inlet;
#X obj 350 200 inlet;
#X obj 500 200 inlet;
#X obj 650 200 inlet;
#X floatatom 200 260 5 0 0 0 - - -, f 5;
#X floatatom 350 260 5 0 0 0 - - -, f 5;
#X floatatom 500 260 5 0 0 0 - - -, f 5;
#X floatatom 650 260 5 0 0 0 - - -, f 5;
#X obj 400 900 outlet~;
#X obj 430 420 * 1;
#X obj 450 360 bng 15 250 50 0 empty empty empty 17 7 0 10 #fcfcfc
#000000 #000000;
#X floatatom 500 360 5 0 0 0 - - -, f 5;
#X floatatom 350 360 5 0 0 0 - - -, f 5;
#X text 200 100 A signal controlled "moog" resonant lowpass \, powered
by the "moog~" object;
#X obj 200 330 sq/rmp/map 0 127 0.1 600;
#X obj 350 300 sq/rmp/map 0 127 0 10;
#X obj 500 330 sq/rmp/map 0 127 1 10;
#X obj 650 300 sq/rmp/map 0 127 1 4;
#X connect 0 0 22 0;
#X connect 1 0 11 0;
#X connect 2 0 10 1;
#X connect 3 0 12 0;
#X connect 4 0 0 0;
#X connect 5 0 10 0;
#X connect 6 0 9 0;
#X connect 7 0 8 1;
#X connect 8 0 0 1;
#X connect 9 0 5 0;
#X connect 10 0 8 0;
#X connect 11 0 0 2;
#X connect 12 0 0 0;
#X connect 14 0 18 0;
#X connect 15 0 19 0;
#X connect 16 0 20 0;
#X connect 17 0 21 0;
#X connect 18 0 28 0;
#X connect 19 0 29 0;
#X connect 20 0 30 0;
#X connect 21 0 31 0;
#X connect 23 0 6 0;
#X connect 24 0 23 0;
#X connect 25 0 23 1;
#X connect 26 0 23 0;
#X connect 28 0 3 0;
#X connect 29 0 26 0;
#X connect 30 0 24 0;
#X connect 30 0 25 0;
#X connect 31 0 1 0;
