#N canvas 641 28 1279 1343 10;
#X obj 1898 21 f;
#X obj 200 -3000 inlet~;
#X obj 200 -2500 outlet~;
#X obj 400 -3000 inlet;
#X obj 300 -3000 inlet~;
#X obj 300 -2620 *~;
#X obj 200 -2620 *~;
#X floatatom 230 -2660 5 0 0 0 - - -, f 5;
#X floatatom 330 -2660 5 0 0 0 - - -, f 5;
#X obj 230 -2840 loadbang;
#X obj 230 -2815 float 1;
#X obj 9095 -3242 f;
#X obj 8571 -1447 f;
#X obj 3631 923 f;
#X obj 400 -2970 hradio 15 0 0 2 empty empty empty 0 -8 0 10 #fcfcfc
#000000 #000000 1;
#X msg 400 -2820 1;
#X msg 440 -2820 0;
#X msg 540 -2820 1;
#X msg 500 -2820 0;
#X obj 440 -2900 bng 15 250 50 0 empty empty empty 17 7 0 10 #fcfcfc
#000000 #000000;
#X obj 400 -2900 bng 15 250 50 0 empty empty empty 17 7 0 10 #fcfcfc
#000000 #000000;
#X text 100 -3060 there's probably a better vanilla way to do this
;
#X text 100 -3100 use a toggle box to toggle between two audio sources
;
#X obj 400 -2940 route 0;
#X obj 530 -2740 sq/logic/smooth 500;
#X obj 400 -2740 sq/logic/smooth 500;
#X connect 1 0 6 0;
#X connect 3 0 14 0;
#X connect 4 0 5 0;
#X connect 5 0 2 0;
#X connect 6 0 2 0;
#X connect 7 0 6 1;
#X connect 8 0 5 1;
#X connect 9 0 10 0;
#X connect 10 0 7 0;
#X connect 14 0 23 0;
#X connect 15 0 25 0;
#X connect 16 0 24 0;
#X connect 17 0 24 0;
#X connect 18 0 25 0;
#X connect 19 0 17 0;
#X connect 19 0 18 0;
#X connect 20 0 16 0;
#X connect 20 0 15 0;
#X connect 23 0 20 0;
#X connect 23 1 19 0;
#X connect 24 0 8 0;
#X connect 25 0 7 0;
