#N canvas 333 461 701 586 12;
#X obj 100 180 inlet~;
#X obj 400 180 inlet~;
#X obj 500 180 inlet;
#X obj 400 500 *~ 0;
#X obj 100 500 *~ 1;
#X floatatom 200 340 5 0 0 0 - - -, f 5;
#X obj 200 300 sq/logic/map 0 127 1 0;
#X obj 240 580 outlet~;
#X floatatom 500 340 5 0 0 0 - - -, f 5;
#X obj 500 300 sq/logic/map 0 127 0 1;
#X text 100 100 crossfade between two audio streams with a slider object
with this abstraction;
#X connect 0 0 4 0;
#X connect 1 0 3 0;
#X connect 2 0 9 0;
#X connect 2 0 6 0;
#X connect 3 0 7 0;
#X connect 4 0 7 0;
#X connect 5 0 4 1;
#X connect 6 0 5 0;
#X connect 8 0 3 1;
#X connect 9 0 8 0;
