#N canvas 643 402 1278 623 12;
#X obj 100 180 inlet~;
#X obj 200 180 inlet~;
#X obj 300 180 inlet;
#X obj 200 400 *~ 0;
#X obj 100 400 *~ 1;
#X obj 100 500 outlet~;
#X floatatom 300 340 5 0 0 0 - - -, f 5;
#X obj 300 300 sq/logic/map 0 127 1 -1;
#X text 100 100 move the slider to compare between two audio streams
with this abstraction;
#X obj 710 120 sq/logic/crossfade~;
#X text 600 100 this abstraction is pretty similar to the crossfader
object that I made ->;
#X connect 0 0 4 0;
#X connect 1 0 3 0;
#X connect 2 0 7 0;
#X connect 3 0 5 0;
#X connect 4 0 5 0;
#X connect 6 0 3 1;
#X connect 7 0 6 0;
