#N canvas 0 25 1278 1305 12;
#X obj 200 200 inlet~;
#X obj 600 200 inlet;
#X obj 300 500 *~ 0;
#X obj 200 500 *~ 1;
#X floatatom 300 340 5 0 0 0 - - -, f 5;
#X obj 200 600 outlet~;
#X floatatom 600 340 5 0 0 0 - - -, f 5;
#X obj 600 300 sq/logic/map 0 127 0 1;
#X obj 300 600 outlet~;
#X obj 300 300 sq/logic/map 0 127 1 0;
#X text 200 100 crossfade one stream to two streams with a slider object
with this abstraction;
#X connect 0 0 3 0;
#X connect 0 0 2 0;
#X connect 1 0 7 0;
#X connect 1 0 9 0;
#X connect 2 0 8 0;
#X connect 3 0 5 0;
#X connect 4 0 3 1;
#X connect 6 0 2 1;
#X connect 7 0 6 0;
#X connect 9 0 4 0;
