#N canvas 1456 309 944 936 12;
#X obj 100 200 inlet~;
#X obj 200 200 inlet~;
#X obj 300 200 inlet;
#X obj 200 500 *~ 0;
#X obj 100 500 *~ 1;
#X floatatom 300 330 5 0 0 0 - - -, f 5;
#X obj 100 600 outlet~;
#X floatatom 500 330 5 0 0 0 - - -, f 5;
#X text 100 100 crossfade between two audio streams with a slider object
with this abstraction;
#X obj 300 300 sq/rmp/map 0 127 1 0;
#X obj 500 300 sq/rmp/map 0 127 0 1;
#X connect 0 0 4 0;
#X connect 1 0 3 0;
#X connect 2 0 9 0;
#X connect 2 0 10 0;
#X connect 3 0 6 0;
#X connect 4 0 6 0;
#X connect 5 0 4 1;
#X connect 7 0 3 1;
#X connect 9 0 5 0;
#X connect 10 0 7 0;
