#N canvas 10 35 1265 1291 10;
#X floatatom 200 300 0 0 0 0 - - -;
#X obj 200 360 pack 0 200;
#X obj 200 330 max 0;
#X obj 200 390 line;
#X floatatom 200 420 5 0 0 0 - - -, f 5;
#X obj 200 500 outlet;
#X text 200 100 um I keep forgetting how to do this \, so I made a
shortcut. basically all it does is smooth the transition betweeen input
numbers. it's nice to have sometimes;
#X obj 200 200 inlet;
#X obj 300 230 float \$1;
#X obj 300 200 loadbang;
#X connect 0 0 2 0;
#X connect 1 0 3 0;
#X connect 2 0 1 0;
#X connect 3 0 4 0;
#X connect 4 0 5 0;
#X connect 7 0 0 0;
#X connect 8 0 1 1;
#X connect 9 0 8 0;
