#N canvas 1002 196 800 849 10;
#X obj 200 127 bng 15 250 50 0 empty empty empty 17 7 0 10 #fcfcfc
#000000 #000000;
#X obj 200 150 t b b;
#X obj 200 210 moses 3000;
#X floatatom 200 240 5 0 0 0 - - -, f 5;
#X msg 230 300 add2 \$1;
#X obj 230 420 list length;
#X obj 230 460 >= 4;
#X obj 200 500 spigot;
#X obj 430 370 > 4;
#X obj 400 400 spigot;
#X obj 400 440 list prepend set;
#X obj 400 420 list-delete 0 1;
#X obj 200 270 t b f;
#X obj 400 460 list trim;
#X msg 200 350 154.994 164.602 177.778 187.3;
#X obj 200 370 t a a a;
#X obj 200 600 unpack f f f f;
#X floatatom 200 660 5 0 0 1 time_between_bangs - -, f 5;
#X obj 200 630 expr ($f1+$f2+$f3+$f4)/16;
#X obj 200 180 realtime;
#X floatatom 200 720 5 0 0 1 detected_bpm - -, f 5;
#X obj 200 690 expr (60000/$f1)/4;
#X obj 200 100 inlet;
#X obj 200 750 outlet;
#X text 400 100 taken from here:https://github.com/defaultxr/xr-abstractions/blob/016e635e2a20a3efdd8ac4b6e1657619df553a2a/seq/taptempo.pd
;
#X connect 0 0 1 0;
#X connect 1 0 19 0;
#X connect 1 1 19 1;
#X connect 2 0 3 0;
#X connect 3 0 12 0;
#X connect 4 0 14 0;
#X connect 5 0 6 0;
#X connect 5 0 8 0;
#X connect 6 0 7 1;
#X connect 7 0 16 0;
#X connect 8 0 9 1;
#X connect 9 0 11 0;
#X connect 10 0 13 0;
#X connect 11 0 10 0;
#X connect 12 0 14 0;
#X connect 12 1 4 0;
#X connect 13 0 14 0;
#X connect 14 0 15 0;
#X connect 15 0 7 0;
#X connect 15 1 9 0;
#X connect 15 2 5 0;
#X connect 16 0 18 0;
#X connect 16 1 18 1;
#X connect 16 2 18 2;
#X connect 16 3 18 3;
#X connect 17 0 21 0;
#X connect 18 0 17 0;
#X connect 19 0 2 0;
#X connect 20 0 23 0;
#X connect 21 0 20 0;
#X connect 22 0 0 0;
#X coords 0 -1 1 1 67 17 1 101 177;
