#N canvas 903 308 881 814 10;
#X msg 330 320 1;
#X msg 430 320 0;
#X obj 200 500 list trim;
#X obj 200 610 outlet;
#X obj 300 180 r waitamoment;
#X obj 210 300 del;
#X obj 200 400 list prepend;
#X obj 200 370 list;
#X obj 270 500 list;
#X obj 200 180 inlet;
#X obj 480 310 s waitamoment;
#X obj 200 240 t b a a b;
#X obj 480 280 \$1;
#X obj 320 240 +;
#X obj 330 270 t f f;
#X msg 350 240 0;
#X obj 380 240 del 0;
#X obj 200 340 t b b;
#X obj 330 290 route list symbol;
#X msg 380 320 2;
#X obj 330 360 t f;
#X obj 200 450 route 0 1 2;
#X obj 310 500 symbol;
#X text 200 100 man theres gotta be some easier way to do this;
#X text 470 410 this abstraction delays whatever is input into it by the amount of miliseconds input into it (escond inlet);
#X obj 431 165 inlet;
#X connect 0 0 20 0;
#X connect 1 0 20 0;
#X connect 2 0 3 0;
#X connect 4 0 13 0;
#X connect 5 0 17 0;
#X connect 6 0 21 0;
#X connect 7 0 6 0;
#X connect 8 0 3 0;
#X connect 9 0 11 0;
#X connect 11 0 5 0;
#X connect 11 1 7 1;
#X connect 11 2 18 0;
#X connect 11 3 12 0;
#X connect 12 0 10 0;
#X connect 13 0 14 0;
#X connect 14 0 5 1;
#X connect 14 1 13 1;
#X connect 15 0 13 1;
#X connect 16 0 15 0;
#X connect 17 0 7 0;
#X connect 17 1 16 0;
#X connect 18 0 0 0;
#X connect 18 1 19 0;
#X connect 18 2 1 0;
#X connect 19 0 20 0;
#X connect 20 0 6 1;
#X connect 21 0 2 0;
#X connect 21 1 8 0;
#X connect 21 2 22 0;
#X connect 22 0 3 0;
#X connect 25 0 13 0;
