#N canvas 1320 69 1240 1346 10;
#X obj 300 230 bng 17 250 50 0 empty empty WOOF! 20 8 0 12 #00fc04
#000000 #000000;
#X obj 300 260 s \$0-trg-brk;
#X obj 1100 570 r \$0-trg-brk;
#X obj 200 1200 *~;
#X obj 1100 960 vline~;
#X obj 200 760 vcf~ 115;
#N canvas 432 346 1210 854 hv.tanh 0;
#X obj 200 200 inlet~;
#X obj 200 250 clip~ -3 3;
#X obj 240 300 *~;
#X obj 200 500 outlet~;
#X obj 240 420 /~;
#X obj 200 460 *~;
#X obj 290 340 *~ 9;
#X obj 240 380 +~ 27;
#X obj 290 380 +~ 27;
#X connect 0 0 1 0;
#X connect 1 0 2 0;
#X connect 1 0 2 1;
#X connect 1 0 5 0;
#X connect 2 0 7 0;
#X connect 2 0 6 0;
#X connect 4 0 5 1;
#X connect 5 0 3 0;
#X connect 6 0 8 0;
#X connect 7 0 4 0;
#X connect 8 0 4 1;
#X restore 400 960 pd hv.tanh;
#X obj 400 400 sig~ 2;
#X obj 370 600 *~ 430;
#X obj 260 760 vcf~ 115;
#X obj 320 760 vcf~ 115;
#X obj 380 760 vcf~ 115;
#X obj 440 760 vcf~ 115;
#X obj 500 760 vcf~ 115;
#X obj 560 760 vcf~ 115;
#X obj 620 760 vcf~ 115;
#X obj 680 760 vcf~ 115;
#X obj 740 760 vcf~ 115;
#X obj 800 760 vcf~ 115;
#X obj 860 760 vcf~ 115;
#X obj 920 760 vcf~ 115;
#X obj 980 760 vcf~ 115;
#X obj 500 200 r \$0-trg-brk;
#X obj 500 350 vline~;
#X obj 420 600 *~ 470;
#X obj 470 600 *~ 520;
#X obj 520 600 *~ 555;
#X obj 570 600 *~ 601;
#X obj 620 600 *~ 670;
#X obj 670 600 *~ 740;
#X obj 720 600 *~ 790;
#X obj 770 600 *~ 866;
#X obj 820 600 *~ 924;
#X obj 870 600 *~ 982;
#X obj 920 600 *~ 1052;
#X obj 970 600 *~ 1150;
#X obj 1020 600 *~ 1220;
#X obj 250 1130 +~;
#X obj 400 1000 hip~ 5512;
#X obj 400 1140 hip~ 5512;
#N canvas 80 78 819 669 hv.tanh 0;
#X obj 200 200 inlet~;
#X obj 200 250 clip~ -3 3;
#X obj 240 300 *~;
#X obj 200 500 outlet~;
#X obj 240 420 /~;
#X obj 200 460 *~;
#X obj 290 340 *~ 9;
#X obj 240 380 +~ 27;
#X obj 290 380 +~ 27;
#X connect 0 0 1 0;
#X connect 1 0 2 0;
#X connect 1 0 2 1;
#X connect 1 0 5 0;
#X connect 2 0 7 0;
#X connect 2 0 6 0;
#X connect 4 0 5 1;
#X connect 5 0 3 0;
#X connect 6 0 8 0;
#X connect 7 0 4 0;
#X connect 8 0 4 1;
#X restore 200 1370 pd hv.tanh;
#X obj 500 290 / -1000;
#X obj 500 230 random 126;
#X obj 500 260 + 125;
#X obj 400 980 hip~ 5512;
#X obj 700 1090 *~ 16;
#X obj 1300 570 r \$0-trg-brk;
#X obj 1300 600 t b b;
#X obj 1300 800 unpack f f;
#X obj 1300 900 lop~;
#X obj 1360 870 /;
#X msg 1360 840 1000 \$1;
#X obj 1340 700 del 50;
#X msg 1300 700 1 75;
#X obj 200 790 vcf~ 14.1;
#X obj 260 790 vcf~ 14.1;
#X obj 320 790 vcf~ 14.1;
#X obj 380 790 vcf~ 14.1;
#X obj 440 790 vcf~ 14.1;
#X obj 500 790 vcf~ 14.1;
#X obj 560 790 vcf~ 14.1;
#X obj 620 790 vcf~ 14.1;
#X obj 680 790 vcf~ 14.1;
#X obj 740 790 vcf~ 14.1;
#X obj 800 790 vcf~ 14.1;
#X obj 860 790 vcf~ 14.1;
#X obj 920 790 vcf~ 14.1;
#X obj 980 790 vcf~ 14.1;
#X obj 400 1200 *~;
#X obj 790 1150 +~;
#X obj 600 1030 bp~ 5000 5.76;
#X obj 600 1060 bp~ 5000 5.76;
#X obj 700 1030 bp~ 3400 5.76;
#X obj 700 1060 bp~ 3400 5.76;
#X obj 500 1030 bp~ 7000 5.76;
#X obj 500 1060 bp~ 7000 5.76;
#X obj 600 1090 *~ -8;
#X obj 1100 990 pow~ 1.25;
#X obj 790 1060 pow~ 0.75;
#X obj 1100 900 pack f f;
#X obj 1100 600 t b b;
#X obj 1170 770 + 30;
#X obj 1170 740 random 41;
#X obj 500 1090 *~ 16;
#X obj 400 1060 bp~ 10000 5.76;
#X obj 400 1030 bp~ 10000 5.76;
#X obj 400 1090 *~ 4;
#X obj 1100 1020 *~ 0.7;
#X obj 1300 930 *~ 0.3;
#X msg 1340 730 0 400;
#X obj 200 930 *~ 4;
#X obj 200 1130 +~;
#X obj 200 320 /~ 10;
#X msg 1100 930 1 \$2 \, 0 100 \$2;
#X obj 200 350 *~ 10;
#X obj 130 320 pow~ 500;
#X obj 200 900 hip~ 1220;
#X obj 200 820 *~ 0.3;
#X obj 260 820 *~ 0.3;
#X obj 320 820 *~ 0.4;
#X obj 440 820 *~ 1;
#X obj 380 820 *~ 1;
#X obj 500 820 *~ 1;
#X obj 560 820 *~ 1;
#X obj 620 820 *~ 1;
#X obj 680 820 *~ 1;
#X obj 740 820 *~ 1;
#X obj 800 820 *~ 1;
#X obj 860 820 *~ 1;
#X obj 920 820 *~ 1;
#X obj 980 820 *~ 1;
#X msg 500 320 \$1 \, 0 20 \, \$1 100 20;
#N canvas 539 405 819 724 hv.tanh 0;
#X obj 200 200 inlet~;
#X obj 200 250 clip~ -3 3;
#X obj 240 300 *~;
#X obj 200 500 outlet~;
#X obj 240 420 /~;
#X obj 200 460 *~;
#X obj 290 340 *~ 9;
#X obj 240 380 +~ 27;
#X obj 290 380 +~ 27;
#X connect 0 0 1 0;
#X connect 1 0 2 0;
#X connect 1 0 2 1;
#X connect 1 0 5 0;
#X connect 2 0 7 0;
#X connect 2 0 6 0;
#X connect 4 0 5 1;
#X connect 5 0 3 0;
#X connect 6 0 8 0;
#X connect 7 0 4 0;
#X connect 8 0 4 1;
#X restore 200 260 pd hv.tanh;
#X obj 200 290 *~ 1;
#X obj 200 200 noise~;
#X obj 200 230 *~ 2;
#X obj 290 1060 *~ 1;
#X obj 200 1030 bp~ 470 1.414;
#X obj 500 900 r \$0-trg-brk;
#X obj 500 920 random 100;
#X obj 500 940 + 400;
#X obj 290 1030 bp~ 900 0.667;
#X obj 290 1000 bp~ 900 0.667;
#X obj 200 1090 *~ 4;
#X obj 200 1060 bp~ 470 0.667;
#X obj 240 1270 tgl 17 1 empty empty LAYER-1 0 -8 0 10 #00fc04 #000000
#000000 1 1;
#X obj 200 1300 *~;
#X obj 340 1270 tgl 17 1 empty empty LAYER-2 0 -8 0 10 #00fc04 #000000
#000000 1 1;
#X obj 300 1300 *~;
#X obj 400 1170 *~ 1.4;
#X obj 790 1090 *~ 0.5;
#X text 1100 550 //MAIN ENVELOPE;
#X text 1300 550 //TAIL;
#X text 500 170 //PICH BEND;
#X text 300 930 //FORMANTS;
#X text 700 480 //DETERMINISTIC SIGNAL;
#X text 588 998 //STOCHASTIC SIGNAL (air);
#X obj 200 1400 *~ 0.7;
#X obj 200 1340 *~ 0.7;
#X obj 400 431 pow~;
#X obj 400 460 *~ 2;
#X obj 700 290 hsl 128 15 -1 1 0 1 empty empty PITCH -2 -8 0 10 #fcfcfc
#000000 #000000 6350 1;
#X msg 700 320 2 \$1;
#X obj 700 350 pow;
#X obj 300 200 inlet;
#X obj 200 1430 outlet~;
#X text 200 140 Formants at the end;
#X obj 700 200 inlet;
#X obj 700 230 sq/rmp/map 0 127 -1 1;
#X floatatom 700 260 5 0 0 0 - - -, f 5;
#X text 200 100 White noise through 14 bandpass filters with high q.
;
#X text 700 100 original patch from here:https://github.com/atosystem/sensor_your_music_test/blob/895cb37d083a55781f16aa6119da4af102ca1dde/sym_pd/externals/pd-mkmr-master/sound%20effects/bark~.pd
;
#X text 1100 100 extra references:https://freesound.org/people/crazymonke9/sounds/418105/https://patchstorage.com/dogbarking/
;
#X obj 600 200 loadbang;
#X msg 600 225 63.5;
#X connect 0 0 1 0;
#X connect 2 0 80 0;
#X connect 3 0 126 0;
#X connect 4 0 77 0;
#X connect 5 0 54 0;
#X connect 6 0 44 0;
#X connect 7 0 139 0;
#X connect 8 0 5 1;
#X connect 8 0 54 1;
#X connect 9 0 55 0;
#X connect 10 0 56 0;
#X connect 11 0 57 0;
#X connect 12 0 58 0;
#X connect 13 0 59 0;
#X connect 14 0 60 0;
#X connect 15 0 61 0;
#X connect 16 0 62 0;
#X connect 17 0 63 0;
#X connect 18 0 64 0;
#X connect 19 0 65 0;
#X connect 20 0 66 0;
#X connect 21 0 67 0;
#X connect 22 0 42 0;
#X connect 23 0 139 1;
#X connect 24 0 9 1;
#X connect 24 0 55 1;
#X connect 25 0 10 1;
#X connect 25 0 56 1;
#X connect 26 0 11 1;
#X connect 26 0 57 1;
#X connect 27 0 12 1;
#X connect 27 0 58 1;
#X connect 28 0 13 1;
#X connect 28 0 59 1;
#X connect 29 0 14 1;
#X connect 29 0 60 1;
#X connect 30 0 15 1;
#X connect 30 0 61 1;
#X connect 31 0 16 1;
#X connect 31 0 62 1;
#X connect 32 0 17 1;
#X connect 32 0 63 1;
#X connect 33 0 18 1;
#X connect 33 0 64 1;
#X connect 34 0 19 1;
#X connect 34 0 65 1;
#X connect 35 0 20 1;
#X connect 35 0 66 1;
#X connect 36 0 21 1;
#X connect 36 0 67 1;
#X connect 37 0 3 1;
#X connect 38 0 70 0;
#X connect 38 0 74 0;
#X connect 38 0 72 0;
#X connect 38 0 85 0;
#X connect 39 0 129 0;
#X connect 40 0 137 0;
#X connect 41 0 111 0;
#X connect 42 0 43 0;
#X connect 43 0 41 0;
#X connect 44 0 38 0;
#X connect 45 0 39 0;
#X connect 46 0 47 0;
#X connect 47 0 52 0;
#X connect 47 1 53 0;
#X connect 48 0 49 0;
#X connect 48 1 51 0;
#X connect 49 0 78 0;
#X connect 49 0 88 0;
#X connect 50 0 49 1;
#X connect 51 0 50 0;
#X connect 52 0 89 0;
#X connect 53 0 48 0;
#X connect 54 0 97 0;
#X connect 55 0 98 0;
#X connect 56 0 99 0;
#X connect 57 0 101 0;
#X connect 58 0 100 0;
#X connect 59 0 102 0;
#X connect 60 0 103 0;
#X connect 61 0 104 0;
#X connect 62 0 105 0;
#X connect 63 0 106 0;
#X connect 64 0 107 0;
#X connect 65 0 108 0;
#X connect 66 0 109 0;
#X connect 67 0 110 0;
#X connect 68 0 128 0;
#X connect 69 0 68 1;
#X connect 70 0 71 0;
#X connect 71 0 76 0;
#X connect 72 0 73 0;
#X connect 73 0 45 0;
#X connect 74 0 75 0;
#X connect 75 0 83 0;
#X connect 76 0 39 0;
#X connect 77 0 87 0;
#X connect 78 0 130 0;
#X connect 79 0 93 0;
#X connect 80 0 79 0;
#X connect 80 1 82 0;
#X connect 81 0 79 1;
#X connect 82 0 81 0;
#X connect 83 0 39 0;
#X connect 84 0 86 0;
#X connect 85 0 84 0;
#X connect 86 0 39 0;
#X connect 87 0 37 0;
#X connect 87 0 69 0;
#X connect 88 0 37 1;
#X connect 89 0 48 0;
#X connect 90 0 122 0;
#X connect 90 0 117 0;
#X connect 90 0 6 0;
#X connect 91 0 3 0;
#X connect 92 0 94 0;
#X connect 93 0 4 0;
#X connect 94 0 5 0;
#X connect 94 0 9 0;
#X connect 94 0 21 0;
#X connect 94 0 20 0;
#X connect 94 0 19 0;
#X connect 94 0 18 0;
#X connect 94 0 17 0;
#X connect 94 0 16 0;
#X connect 94 0 15 0;
#X connect 94 0 14 0;
#X connect 94 0 13 0;
#X connect 94 0 12 0;
#X connect 94 0 11 0;
#X connect 94 0 10 0;
#X connect 95 0 94 0;
#X connect 96 0 90 0;
#X connect 97 0 96 0;
#X connect 98 0 96 0;
#X connect 99 0 96 0;
#X connect 100 0 96 0;
#X connect 101 0 96 0;
#X connect 102 0 96 0;
#X connect 103 0 96 0;
#X connect 104 0 96 0;
#X connect 105 0 96 0;
#X connect 106 0 96 0;
#X connect 107 0 96 0;
#X connect 108 0 96 0;
#X connect 109 0 96 0;
#X connect 110 0 96 0;
#X connect 111 0 23 0;
#X connect 112 0 113 0;
#X connect 113 0 92 0;
#X connect 113 0 95 0;
#X connect 114 0 115 0;
#X connect 115 0 112 0;
#X connect 116 0 91 1;
#X connect 117 0 124 0;
#X connect 118 0 119 0;
#X connect 119 0 120 0;
#X connect 120 0 124 1;
#X connect 120 0 117 1;
#X connect 121 0 116 0;
#X connect 122 0 121 0;
#X connect 123 0 91 0;
#X connect 124 0 123 0;
#X connect 125 0 126 1;
#X connect 126 0 138 0;
#X connect 127 0 128 1;
#X connect 128 0 138 0;
#X connect 129 0 68 0;
#X connect 130 0 69 1;
#X connect 137 0 145 0;
#X connect 138 0 40 0;
#X connect 139 0 140 0;
#X connect 140 0 8 0;
#X connect 140 0 24 0;
#X connect 140 0 25 0;
#X connect 140 0 26 0;
#X connect 140 0 27 0;
#X connect 140 0 28 0;
#X connect 140 0 29 0;
#X connect 140 0 30 0;
#X connect 140 0 31 0;
#X connect 140 0 32 0;
#X connect 140 0 33 0;
#X connect 140 0 34 0;
#X connect 140 0 35 0;
#X connect 140 0 36 0;
#X connect 141 0 142 0;
#X connect 142 0 143 0;
#X connect 143 0 140 1;
#X connect 144 0 0 0;
#X connect 147 0 148 0;
#X connect 148 0 149 0;
#X connect 149 0 141 0;
#X connect 153 0 154 0;
#X connect 154 0 148 0;
