#N canvas 80 69 1240 1346 12;
#X obj 200 1300 outlet~;
#N canvas 1087 613 466 316 rh_scalelog 0;
#X obj 200 460 exp;
#X obj 200 400 *;
#X obj 200 430 +;
#X obj 300 250 log;
#X obj 400 250 log;
#X obj 300 300 t b f;
#X obj 300 330 -;
#X obj 200 500 outlet;
#X obj 200 200 inlet;
#X obj 300 200 inlet;
#X obj 400 200 inlet;
#X connect 0 0 7 0;
#X connect 1 0 2 0;
#X connect 2 0 0 0;
#X connect 3 0 2 1;
#X connect 3 0 5 0;
#X connect 4 0 6 0;
#X connect 5 0 6 0;
#X connect 5 1 6 1;
#X connect 6 0 1 1;
#X connect 8 0 1 0;
#X connect 9 0 3 0;
#X connect 10 0 4 0;
#X restore 900 1100 pd rh_scalelog;
#X msg 950 1070 0.1;
#X msg 990 1070 10;
#X obj 200 1250 *~ 1;
#N canvas 926 213 1586 1004 partial 0;
#X obj 800 560 sqrt;
#X text 240 500 relative frequency;
#X obj 200 800 *~;
#X obj 500 650 line~;
#X obj 500 680 *~;
#X obj 500 710 *~;
#X msg 500 620 0 \$1;
#X obj 800 590 sqrt;
#X obj 500 500 t b b;
#X text 540 560 relative duration;
#X msg 800 620 \$1 5;
#X obj 500 530 del 5;
#X obj 800 530 * 0.1;
#X text 840 500 get amplitude from argument 1;
#X text 850 530 normalize to 0.1;
#X text 850 620 attack time 5 msec;
#X text 550 530 decay after 5 msec;
#X text 800 470 attack;
#X obj 500 590 *;
#X text 540 590 actual duration;
#X obj 200 530 *;
#X obj 200 700 osc~;
#X text 240 530 times global freq.;
#X text 240 570 plus detune;
#X text 550 620 decay msg to line~;
#X text 260 100 1 amplitude \; 2 relative duration \; 3 relative frequency
\; 4 detune;
#X obj 200 200 inlet;
#X obj 500 560 f;
#X obj 800 500 f;
#X obj 200 500 f;
#X obj 440 340 unpack 0 0 0 0;
#X obj 200 570 +;
#X obj 200 300 route trigger freq duration;
#X obj 200 900 outlet~;
#X text 200 100 route:;
#X msg 400 500 0.25;
#X text 840 560 take fourth root (square root twice) because we'll
raise line~ output to fourth power;
#X text 540 690 raise to fourth power for natural-sounding decay shape
;
#X connect 0 0 7 0;
#X connect 2 0 33 0;
#X connect 3 0 4 0;
#X connect 3 0 4 1;
#X connect 4 0 5 0;
#X connect 4 0 5 1;
#X connect 5 0 2 1;
#X connect 6 0 3 0;
#X connect 7 0 10 0;
#X connect 8 0 11 0;
#X connect 8 1 28 0;
#X connect 10 0 3 0;
#X connect 11 0 27 0;
#X connect 12 0 0 0;
#X connect 18 0 6 0;
#X connect 20 0 31 0;
#X connect 21 0 2 0;
#X connect 26 0 32 0;
#X connect 27 0 18 0;
#X connect 28 0 12 0;
#X connect 29 0 20 0;
#X connect 30 0 28 1;
#X connect 30 1 27 1;
#X connect 30 2 29 1;
#X connect 30 3 31 1;
#X connect 31 0 21 0;
#X connect 32 0 29 0;
#X connect 32 0 8 0;
#X connect 32 0 35 0;
#X connect 32 1 20 1;
#X connect 32 2 18 1;
#X connect 32 3 30 0;
#X connect 35 0 21 1;
#X restore 560 780 pd partial;
#X msg 690 750 1 1 0.56 0;
#X msg 690 780 0.67 0.9 0.56 1;
#X msg 690 810 1 0.65 0.92 0;
#X msg 690 840 1.8 0.55 0.92 1.7;
#X msg 690 870 2.67 0.325 1.19 0;
#X msg 690 900 1.67 0.35 1.7 0;
#X msg 690 930 1.46 0.25 2 0;
#X msg 690 960 1.33 0.2 2.74 0;
#X msg 690 990 1 0.1 3.76 0;
#X msg 690 1020 1.33 0.075 4.07 0;
#N canvas 186 295 823 445 partial 0;
#X obj 800 560 sqrt;
#X text 240 500 relative frequency;
#X obj 200 800 *~;
#X obj 500 650 line~;
#X obj 500 680 *~;
#X obj 500 710 *~;
#X msg 500 620 0 \$1;
#X obj 800 590 sqrt;
#X obj 500 500 t b b;
#X text 540 560 relative duration;
#X msg 800 620 \$1 5;
#X obj 500 530 del 5;
#X obj 800 530 * 0.1;
#X text 840 500 get amplitude from argument 1;
#X text 850 530 normalize to 0.1;
#X text 850 620 attack time 5 msec;
#X text 550 530 decay after 5 msec;
#X text 800 470 attack;
#X obj 500 590 *;
#X text 540 590 actual duration;
#X obj 200 530 *;
#X obj 200 700 osc~;
#X text 240 530 times global freq.;
#X text 240 570 plus detune;
#X text 550 620 decay msg to line~;
#X text 260 100 1 amplitude \; 2 relative duration \; 3 relative frequency
\; 4 detune;
#X obj 200 200 inlet;
#X obj 500 560 f;
#X obj 800 500 f;
#X obj 200 500 f;
#X obj 440 340 unpack 0 0 0 0;
#X obj 200 570 +;
#X obj 200 300 route trigger freq duration;
#X obj 200 900 outlet~;
#X text 200 100 route:;
#X msg 400 500 0.25;
#X text 840 560 take fourth root (square root twice) because we'll
raise line~ output to fourth power;
#X text 540 690 raise to fourth power for natural-sounding decay shape
;
#X connect 0 0 7 0;
#X connect 2 0 33 0;
#X connect 3 0 4 0;
#X connect 3 0 4 1;
#X connect 4 0 5 0;
#X connect 4 0 5 1;
#X connect 5 0 2 1;
#X connect 6 0 3 0;
#X connect 7 0 10 0;
#X connect 8 0 11 0;
#X connect 8 1 28 0;
#X connect 10 0 3 0;
#X connect 11 0 27 0;
#X connect 12 0 0 0;
#X connect 18 0 6 0;
#X connect 20 0 31 0;
#X connect 21 0 2 0;
#X connect 26 0 32 0;
#X connect 27 0 18 0;
#X connect 28 0 12 0;
#X connect 29 0 20 0;
#X connect 30 0 28 1;
#X connect 30 1 27 1;
#X connect 30 2 29 1;
#X connect 30 3 31 1;
#X connect 31 0 21 0;
#X connect 32 0 29 0;
#X connect 32 0 8 0;
#X connect 32 0 35 0;
#X connect 32 1 20 1;
#X connect 32 2 18 1;
#X connect 32 3 30 0;
#X connect 35 0 21 1;
#X restore 560 810 pd partial;
#N canvas 186 306 827 449 partial 0;
#X obj 800 560 sqrt;
#X text 240 500 relative frequency;
#X obj 200 800 *~;
#X obj 500 650 line~;
#X obj 500 680 *~;
#X obj 500 710 *~;
#X msg 500 620 0 \$1;
#X obj 800 590 sqrt;
#X obj 500 500 t b b;
#X text 540 560 relative duration;
#X msg 800 620 \$1 5;
#X obj 500 530 del 5;
#X obj 800 530 * 0.1;
#X text 840 500 get amplitude from argument 1;
#X text 850 530 normalize to 0.1;
#X text 850 620 attack time 5 msec;
#X text 550 530 decay after 5 msec;
#X text 800 470 attack;
#X obj 500 590 *;
#X text 540 590 actual duration;
#X obj 200 530 *;
#X obj 200 700 osc~;
#X text 240 530 times global freq.;
#X text 240 570 plus detune;
#X text 550 620 decay msg to line~;
#X text 260 100 1 amplitude \; 2 relative duration \; 3 relative frequency
\; 4 detune;
#X obj 200 200 inlet;
#X obj 500 560 f;
#X obj 800 500 f;
#X obj 200 500 f;
#X obj 440 340 unpack 0 0 0 0;
#X obj 200 570 +;
#X obj 200 300 route trigger freq duration;
#X obj 200 900 outlet~;
#X text 200 100 route:;
#X msg 400 500 0.25;
#X text 840 560 take fourth root (square root twice) because we'll
raise line~ output to fourth power;
#X text 540 690 raise to fourth power for natural-sounding decay shape
;
#X connect 0 0 7 0;
#X connect 2 0 33 0;
#X connect 3 0 4 0;
#X connect 3 0 4 1;
#X connect 4 0 5 0;
#X connect 4 0 5 1;
#X connect 5 0 2 1;
#X connect 6 0 3 0;
#X connect 7 0 10 0;
#X connect 8 0 11 0;
#X connect 8 1 28 0;
#X connect 10 0 3 0;
#X connect 11 0 27 0;
#X connect 12 0 0 0;
#X connect 18 0 6 0;
#X connect 20 0 31 0;
#X connect 21 0 2 0;
#X connect 26 0 32 0;
#X connect 27 0 18 0;
#X connect 28 0 12 0;
#X connect 29 0 20 0;
#X connect 30 0 28 1;
#X connect 30 1 27 1;
#X connect 30 2 29 1;
#X connect 30 3 31 1;
#X connect 31 0 21 0;
#X connect 32 0 29 0;
#X connect 32 0 8 0;
#X connect 32 0 35 0;
#X connect 32 1 20 1;
#X connect 32 2 18 1;
#X connect 32 3 30 0;
#X connect 35 0 21 1;
#X restore 560 840 pd partial;
#N canvas 186 306 1196 877 partial 0;
#X obj 800 560 sqrt;
#X text 240 500 relative frequency;
#X obj 200 800 *~;
#X obj 500 650 line~;
#X obj 500 680 *~;
#X obj 500 710 *~;
#X msg 500 620 0 \$1;
#X obj 800 590 sqrt;
#X obj 500 500 t b b;
#X text 540 560 relative duration;
#X msg 800 620 \$1 5;
#X obj 500 530 del 5;
#X obj 800 530 * 0.1;
#X text 840 500 get amplitude from argument 1;
#X text 850 530 normalize to 0.1;
#X text 850 620 attack time 5 msec;
#X text 550 530 decay after 5 msec;
#X text 800 470 attack;
#X obj 500 590 *;
#X text 540 590 actual duration;
#X obj 200 530 *;
#X obj 200 700 osc~;
#X text 240 530 times global freq.;
#X text 240 570 plus detune;
#X text 550 620 decay msg to line~;
#X text 260 100 1 amplitude \; 2 relative duration \; 3 relative frequency
\; 4 detune;
#X obj 200 200 inlet;
#X obj 500 560 f;
#X obj 800 500 f;
#X obj 200 500 f;
#X obj 440 340 unpack 0 0 0 0;
#X obj 200 570 +;
#X obj 200 300 route trigger freq duration;
#X obj 200 900 outlet~;
#X text 200 100 route:;
#X msg 400 500 0.25;
#X text 840 560 take fourth root (square root twice) because we'll
raise line~ output to fourth power;
#X text 540 690 raise to fourth power for natural-sounding decay shape
;
#X connect 0 0 7 0;
#X connect 2 0 33 0;
#X connect 3 0 4 0;
#X connect 3 0 4 1;
#X connect 4 0 5 0;
#X connect 4 0 5 1;
#X connect 5 0 2 1;
#X connect 6 0 3 0;
#X connect 7 0 10 0;
#X connect 8 0 11 0;
#X connect 8 1 28 0;
#X connect 10 0 3 0;
#X connect 11 0 27 0;
#X connect 12 0 0 0;
#X connect 18 0 6 0;
#X connect 20 0 31 0;
#X connect 21 0 2 0;
#X connect 26 0 32 0;
#X connect 27 0 18 0;
#X connect 28 0 12 0;
#X connect 29 0 20 0;
#X connect 30 0 28 1;
#X connect 30 1 27 1;
#X connect 30 2 29 1;
#X connect 30 3 31 1;
#X connect 31 0 21 0;
#X connect 32 0 29 0;
#X connect 32 0 8 0;
#X connect 32 0 35 0;
#X connect 32 1 20 1;
#X connect 32 2 18 1;
#X connect 32 3 30 0;
#X connect 35 0 21 1;
#X restore 560 870 pd partial;
#X msg 500 580 duration \$1;
#X obj 400 740 t a;
#X obj 400 1100 +~;
#X msg 300 590 freq \$1;
#X obj 300 560 mtof;
#X obj 200 200 inlet;
#N canvas 1165 642 466 316 rh_scalelog 0;
#X obj 200 460 exp;
#X obj 200 400 *;
#X obj 200 430 +;
#X obj 300 250 log;
#X obj 400 250 log;
#X obj 300 300 t b f;
#X obj 300 330 -;
#X obj 200 500 outlet;
#X obj 200 200 inlet;
#X obj 300 200 inlet;
#X obj 400 200 inlet;
#X connect 0 0 7 0;
#X connect 1 0 2 0;
#X connect 2 0 0 0;
#X connect 3 0 2 1;
#X connect 3 0 5 0;
#X connect 4 0 6 0;
#X connect 5 0 6 0;
#X connect 5 1 6 1;
#X connect 6 0 1 1;
#X connect 8 0 1 0;
#X connect 9 0 3 0;
#X connect 10 0 4 0;
#X restore 500 550 pd rh_scalelog;
#X msg 540 520 50;
#X msg 580 520 5000;
#X obj 300 500 * 70;
#X obj 300 530 + 40;
#X msg 250 680 trigger bang;
#X obj 200 1200 *~;
#X msg 200 1100 0 5 \, 1 5 5;
#X obj 200 1130 vline~;
#X obj 200 600 t b b;
#X obj 300 200 inlet;
#X obj 500 200 inlet;
#X obj 300 400 hsl 128 15 0 1 0 0 empty empty pitch -2 -8 0 10 #fcfcfc
#000000 #000000 1400 1;
#X obj 500 400 hsl 128 15 0 1 0 0 empty empty duration -2 -8 0 10 #fcfcfc
#000000 #000000 12700 1;
#X obj 500 340 / 127;
#X obj 300 340 / 127;
#X obj 400 200 loadbang;
#X obj 700 200 inlet;
#X obj 700 400 hsl 128 15 0 1 0 0 empty empty gain -2 -8 0 10 #fcfcfc
#000000 #000000 5800 1;
#X obj 700 340 / 127;
#X obj 540 490 loadbang;
#X obj 600 700 loadbang;
#X obj 950 1040 loadbang;
#X msg 400 280 0.3;
#X msg 450 280 0.7;
#X msg 500 280 0.4;
#N canvas 186 295 823 445 partial 0;
#X obj 800 560 sqrt;
#X text 240 500 relative frequency;
#X obj 200 800 *~;
#X obj 500 650 line~;
#X obj 500 680 *~;
#X obj 500 710 *~;
#X msg 500 620 0 \$1;
#X obj 800 590 sqrt;
#X obj 500 500 t b b;
#X text 540 560 relative duration;
#X msg 800 620 \$1 5;
#X obj 500 530 del 5;
#X obj 800 530 * 0.1;
#X text 840 500 get amplitude from argument 1;
#X text 850 530 normalize to 0.1;
#X text 850 620 attack time 5 msec;
#X text 550 530 decay after 5 msec;
#X text 800 470 attack;
#X obj 500 590 *;
#X text 540 590 actual duration;
#X obj 200 530 *;
#X obj 200 700 osc~;
#X text 240 530 times global freq.;
#X text 240 570 plus detune;
#X text 550 620 decay msg to line~;
#X text 260 100 1 amplitude \; 2 relative duration \; 3 relative frequency
\; 4 detune;
#X obj 200 200 inlet;
#X obj 500 560 f;
#X obj 800 500 f;
#X obj 200 500 f;
#X obj 440 340 unpack 0 0 0 0;
#X obj 200 570 +;
#X obj 200 300 route trigger freq duration;
#X obj 200 900 outlet~;
#X text 200 100 route:;
#X msg 400 500 0.25;
#X text 840 560 take fourth root (square root twice) because we'll
raise line~ output to fourth power;
#X text 540 690 raise to fourth power for natural-sounding decay shape
;
#X connect 0 0 7 0;
#X connect 2 0 33 0;
#X connect 3 0 4 0;
#X connect 3 0 4 1;
#X connect 4 0 5 0;
#X connect 4 0 5 1;
#X connect 5 0 2 1;
#X connect 6 0 3 0;
#X connect 7 0 10 0;
#X connect 8 0 11 0;
#X connect 8 1 28 0;
#X connect 10 0 3 0;
#X connect 11 0 27 0;
#X connect 12 0 0 0;
#X connect 18 0 6 0;
#X connect 20 0 31 0;
#X connect 21 0 2 0;
#X connect 26 0 32 0;
#X connect 27 0 18 0;
#X connect 28 0 12 0;
#X connect 29 0 20 0;
#X connect 30 0 28 1;
#X connect 30 1 27 1;
#X connect 30 2 29 1;
#X connect 30 3 31 1;
#X connect 31 0 21 0;
#X connect 32 0 29 0;
#X connect 32 0 8 0;
#X connect 32 0 35 0;
#X connect 32 1 20 1;
#X connect 32 2 18 1;
#X connect 32 3 30 0;
#X connect 35 0 21 1;
#X restore 560 900 pd partial;
#N canvas 186 306 827 449 partial 0;
#X obj 800 560 sqrt;
#X text 240 500 relative frequency;
#X obj 200 800 *~;
#X obj 500 650 line~;
#X obj 500 680 *~;
#X obj 500 710 *~;
#X msg 500 620 0 \$1;
#X obj 800 590 sqrt;
#X obj 500 500 t b b;
#X text 540 560 relative duration;
#X msg 800 620 \$1 5;
#X obj 500 530 del 5;
#X obj 800 530 * 0.1;
#X text 840 500 get amplitude from argument 1;
#X text 850 530 normalize to 0.1;
#X text 850 620 attack time 5 msec;
#X text 550 530 decay after 5 msec;
#X text 800 470 attack;
#X obj 500 590 *;
#X text 540 590 actual duration;
#X obj 200 530 *;
#X obj 200 700 osc~;
#X text 240 530 times global freq.;
#X text 240 570 plus detune;
#X text 550 620 decay msg to line~;
#X text 260 100 1 amplitude \; 2 relative duration \; 3 relative frequency
\; 4 detune;
#X obj 200 200 inlet;
#X obj 500 560 f;
#X obj 800 500 f;
#X obj 200 500 f;
#X obj 440 340 unpack 0 0 0 0;
#X obj 200 570 +;
#X obj 200 300 route trigger freq duration;
#X obj 200 900 outlet~;
#X text 200 100 route:;
#X msg 400 500 0.25;
#X text 840 560 take fourth root (square root twice) because we'll
raise line~ output to fourth power;
#X text 540 690 raise to fourth power for natural-sounding decay shape
;
#X connect 0 0 7 0;
#X connect 2 0 33 0;
#X connect 3 0 4 0;
#X connect 3 0 4 1;
#X connect 4 0 5 0;
#X connect 4 0 5 1;
#X connect 5 0 2 1;
#X connect 6 0 3 0;
#X connect 7 0 10 0;
#X connect 8 0 11 0;
#X connect 8 1 28 0;
#X connect 10 0 3 0;
#X connect 11 0 27 0;
#X connect 12 0 0 0;
#X connect 18 0 6 0;
#X connect 20 0 31 0;
#X connect 21 0 2 0;
#X connect 26 0 32 0;
#X connect 27 0 18 0;
#X connect 28 0 12 0;
#X connect 29 0 20 0;
#X connect 30 0 28 1;
#X connect 30 1 27 1;
#X connect 30 2 29 1;
#X connect 30 3 31 1;
#X connect 31 0 21 0;
#X connect 32 0 29 0;
#X connect 32 0 8 0;
#X connect 32 0 35 0;
#X connect 32 1 20 1;
#X connect 32 2 18 1;
#X connect 32 3 30 0;
#X connect 35 0 21 1;
#X restore 560 930 pd partial;
#N canvas 186 295 1196 877 partial 0;
#X obj 800 560 sqrt;
#X text 240 500 relative frequency;
#X obj 200 800 *~;
#X obj 500 650 line~;
#X obj 500 680 *~;
#X obj 500 710 *~;
#X msg 500 620 0 \$1;
#X obj 800 590 sqrt;
#X obj 500 500 t b b;
#X text 540 560 relative duration;
#X msg 800 620 \$1 5;
#X obj 500 530 del 5;
#X obj 800 530 * 0.1;
#X text 840 500 get amplitude from argument 1;
#X text 850 530 normalize to 0.1;
#X text 850 620 attack time 5 msec;
#X text 550 530 decay after 5 msec;
#X text 800 470 attack;
#X obj 500 590 *;
#X text 540 590 actual duration;
#X obj 200 530 *;
#X obj 200 700 osc~;
#X text 240 530 times global freq.;
#X text 240 570 plus detune;
#X text 550 620 decay msg to line~;
#X text 260 100 1 amplitude \; 2 relative duration \; 3 relative frequency
\; 4 detune;
#X obj 200 200 inlet;
#X obj 500 560 f;
#X obj 800 500 f;
#X obj 200 500 f;
#X obj 440 340 unpack 0 0 0 0;
#X obj 200 570 +;
#X obj 200 300 route trigger freq duration;
#X obj 200 900 outlet~;
#X text 200 100 route:;
#X msg 400 500 0.25;
#X text 840 560 take fourth root (square root twice) because we'll
raise line~ output to fourth power;
#X text 540 690 raise to fourth power for natural-sounding decay shape
;
#X connect 0 0 7 0;
#X connect 2 0 33 0;
#X connect 3 0 4 0;
#X connect 3 0 4 1;
#X connect 4 0 5 0;
#X connect 4 0 5 1;
#X connect 5 0 2 1;
#X connect 6 0 3 0;
#X connect 7 0 10 0;
#X connect 8 0 11 0;
#X connect 8 1 28 0;
#X connect 10 0 3 0;
#X connect 11 0 27 0;
#X connect 12 0 0 0;
#X connect 18 0 6 0;
#X connect 20 0 31 0;
#X connect 21 0 2 0;
#X connect 26 0 32 0;
#X connect 27 0 18 0;
#X connect 28 0 12 0;
#X connect 29 0 20 0;
#X connect 30 0 28 1;
#X connect 30 1 27 1;
#X connect 30 2 29 1;
#X connect 30 3 31 1;
#X connect 31 0 21 0;
#X connect 32 0 29 0;
#X connect 32 0 8 0;
#X connect 32 0 35 0;
#X connect 32 1 20 1;
#X connect 32 2 18 1;
#X connect 32 3 30 0;
#X connect 35 0 21 1;
#X restore 560 960 pd partial;
#N canvas 186 306 827 449 partial 0;
#X obj 800 560 sqrt;
#X text 240 500 relative frequency;
#X obj 200 800 *~;
#X obj 500 650 line~;
#X obj 500 680 *~;
#X obj 500 710 *~;
#X msg 500 620 0 \$1;
#X obj 800 590 sqrt;
#X obj 500 500 t b b;
#X text 540 560 relative duration;
#X msg 800 620 \$1 5;
#X obj 500 530 del 5;
#X obj 800 530 * 0.1;
#X text 840 500 get amplitude from argument 1;
#X text 850 530 normalize to 0.1;
#X text 850 620 attack time 5 msec;
#X text 550 530 decay after 5 msec;
#X text 800 470 attack;
#X obj 500 590 *;
#X text 540 590 actual duration;
#X obj 200 530 *;
#X obj 200 700 osc~;
#X text 240 530 times global freq.;
#X text 240 570 plus detune;
#X text 550 620 decay msg to line~;
#X text 260 100 1 amplitude \; 2 relative duration \; 3 relative frequency
\; 4 detune;
#X obj 200 200 inlet;
#X obj 500 560 f;
#X obj 800 500 f;
#X obj 200 500 f;
#X obj 440 340 unpack 0 0 0 0;
#X obj 200 570 +;
#X obj 200 300 route trigger freq duration;
#X obj 200 900 outlet~;
#X text 200 100 route:;
#X msg 400 500 0.25;
#X text 840 560 take fourth root (square root twice) because we'll
raise line~ output to fourth power;
#X text 540 690 raise to fourth power for natural-sounding decay shape
;
#X connect 0 0 7 0;
#X connect 2 0 33 0;
#X connect 3 0 4 0;
#X connect 3 0 4 1;
#X connect 4 0 5 0;
#X connect 4 0 5 1;
#X connect 5 0 2 1;
#X connect 6 0 3 0;
#X connect 7 0 10 0;
#X connect 8 0 11 0;
#X connect 8 1 28 0;
#X connect 10 0 3 0;
#X connect 11 0 27 0;
#X connect 12 0 0 0;
#X connect 18 0 6 0;
#X connect 20 0 31 0;
#X connect 21 0 2 0;
#X connect 26 0 32 0;
#X connect 27 0 18 0;
#X connect 28 0 12 0;
#X connect 29 0 20 0;
#X connect 30 0 28 1;
#X connect 30 1 27 1;
#X connect 30 2 29 1;
#X connect 30 3 31 1;
#X connect 31 0 21 0;
#X connect 32 0 29 0;
#X connect 32 0 8 0;
#X connect 32 0 35 0;
#X connect 32 1 20 1;
#X connect 32 2 18 1;
#X connect 32 3 30 0;
#X connect 35 0 21 1;
#X restore 560 990 pd partial;
#N canvas 186 295 1196 877 partial 0;
#X obj 800 560 sqrt;
#X text 240 500 relative frequency;
#X obj 200 800 *~;
#X obj 500 650 line~;
#X obj 500 680 *~;
#X obj 500 710 *~;
#X msg 500 620 0 \$1;
#X obj 800 590 sqrt;
#X obj 500 500 t b b;
#X text 540 560 relative duration;
#X msg 800 620 \$1 5;
#X obj 500 530 del 5;
#X obj 800 530 * 0.1;
#X text 840 500 get amplitude from argument 1;
#X text 850 530 normalize to 0.1;
#X text 850 620 attack time 5 msec;
#X text 550 530 decay after 5 msec;
#X text 800 470 attack;
#X obj 500 590 *;
#X text 540 590 actual duration;
#X obj 200 530 *;
#X obj 200 700 osc~;
#X text 240 530 times global freq.;
#X text 240 570 plus detune;
#X text 550 620 decay msg to line~;
#X text 260 100 1 amplitude \; 2 relative duration \; 3 relative frequency
\; 4 detune;
#X obj 200 200 inlet;
#X obj 500 560 f;
#X obj 800 500 f;
#X obj 200 500 f;
#X obj 440 340 unpack 0 0 0 0;
#X obj 200 570 +;
#X obj 200 300 route trigger freq duration;
#X obj 200 900 outlet~;
#X text 200 100 route:;
#X msg 400 500 0.25;
#X text 840 560 take fourth root (square root twice) because we'll
raise line~ output to fourth power;
#X text 540 690 raise to fourth power for natural-sounding decay shape
;
#X connect 0 0 7 0;
#X connect 2 0 33 0;
#X connect 3 0 4 0;
#X connect 3 0 4 1;
#X connect 4 0 5 0;
#X connect 4 0 5 1;
#X connect 5 0 2 1;
#X connect 6 0 3 0;
#X connect 7 0 10 0;
#X connect 8 0 11 0;
#X connect 8 1 28 0;
#X connect 10 0 3 0;
#X connect 11 0 27 0;
#X connect 12 0 0 0;
#X connect 18 0 6 0;
#X connect 20 0 31 0;
#X connect 21 0 2 0;
#X connect 26 0 32 0;
#X connect 27 0 18 0;
#X connect 28 0 12 0;
#X connect 29 0 20 0;
#X connect 30 0 28 1;
#X connect 30 1 27 1;
#X connect 30 2 29 1;
#X connect 30 3 31 1;
#X connect 31 0 21 0;
#X connect 32 0 29 0;
#X connect 32 0 8 0;
#X connect 32 0 35 0;
#X connect 32 1 20 1;
#X connect 32 2 18 1;
#X connect 32 3 30 0;
#X connect 35 0 21 1;
#X restore 560 1020 pd partial;
#N canvas 186 295 1196 877 partial 0;
#X obj 800 560 sqrt;
#X text 240 500 relative frequency;
#X obj 200 800 *~;
#X obj 500 650 line~;
#X obj 500 680 *~;
#X obj 500 710 *~;
#X msg 500 620 0 \$1;
#X obj 800 590 sqrt;
#X obj 500 500 t b b;
#X text 540 560 relative duration;
#X msg 800 620 \$1 5;
#X obj 500 530 del 5;
#X obj 800 530 * 0.1;
#X text 840 500 get amplitude from argument 1;
#X text 850 530 normalize to 0.1;
#X text 850 620 attack time 5 msec;
#X text 550 530 decay after 5 msec;
#X text 800 470 attack;
#X obj 500 590 *;
#X text 540 590 actual duration;
#X obj 200 530 *;
#X obj 200 700 osc~;
#X text 240 530 times global freq.;
#X text 240 570 plus detune;
#X text 550 620 decay msg to line~;
#X text 260 100 1 amplitude \; 2 relative duration \; 3 relative frequency
\; 4 detune;
#X obj 200 200 inlet;
#X obj 500 560 f;
#X obj 800 500 f;
#X obj 200 500 f;
#X obj 440 340 unpack 0 0 0 0;
#X obj 200 570 +;
#X obj 200 300 route trigger freq duration;
#X obj 200 900 outlet~;
#X text 200 100 route:;
#X msg 400 500 0.25;
#X text 840 560 take fourth root (square root twice) because we'll
raise line~ output to fourth power;
#X text 540 690 raise to fourth power for natural-sounding decay shape
;
#X connect 0 0 7 0;
#X connect 2 0 33 0;
#X connect 3 0 4 0;
#X connect 3 0 4 1;
#X connect 4 0 5 0;
#X connect 4 0 5 1;
#X connect 5 0 2 1;
#X connect 6 0 3 0;
#X connect 7 0 10 0;
#X connect 8 0 11 0;
#X connect 8 1 28 0;
#X connect 10 0 3 0;
#X connect 11 0 27 0;
#X connect 12 0 0 0;
#X connect 18 0 6 0;
#X connect 20 0 31 0;
#X connect 21 0 2 0;
#X connect 26 0 32 0;
#X connect 27 0 18 0;
#X connect 28 0 12 0;
#X connect 29 0 20 0;
#X connect 30 0 28 1;
#X connect 30 1 27 1;
#X connect 30 2 29 1;
#X connect 30 3 31 1;
#X connect 31 0 21 0;
#X connect 32 0 29 0;
#X connect 32 0 8 0;
#X connect 32 0 35 0;
#X connect 32 1 20 1;
#X connect 32 2 18 1;
#X connect 32 3 30 0;
#X connect 35 0 21 1;
#X restore 560 1050 pd partial;
#X text 200 100 based on the preset "perk-bell" in this library: https://forum.pdpatchrepo.info/topic/1821/diy-library-part-i-diy-perk
;
#X obj 400 240 pipe 20;
#X connect 1 0 4 1;
#X connect 2 0 1 1;
#X connect 3 0 1 2;
#X connect 4 0 0 0;
#X connect 5 0 21 0;
#X connect 6 0 5 0;
#X connect 7 0 16 0;
#X connect 8 0 17 0;
#X connect 9 0 18 0;
#X connect 10 0 51 0;
#X connect 11 0 52 0;
#X connect 12 0 53 0;
#X connect 13 0 54 0;
#X connect 14 0 55 0;
#X connect 15 0 56 0;
#X connect 16 0 21 0;
#X connect 17 0 21 0;
#X connect 18 0 21 0;
#X connect 19 0 20 0;
#X connect 20 0 5 0;
#X connect 20 0 56 0;
#X connect 20 0 55 0;
#X connect 20 0 54 0;
#X connect 20 0 53 0;
#X connect 20 0 52 0;
#X connect 20 0 51 0;
#X connect 20 0 18 0;
#X connect 20 0 17 0;
#X connect 20 0 16 0;
#X connect 21 0 31 1;
#X connect 22 0 20 0;
#X connect 23 0 22 0;
#X connect 24 0 34 0;
#X connect 25 0 19 0;
#X connect 26 0 25 1;
#X connect 27 0 25 2;
#X connect 28 0 29 0;
#X connect 29 0 23 0;
#X connect 30 0 20 0;
#X connect 31 0 4 0;
#X connect 32 0 33 0;
#X connect 33 0 31 0;
#X connect 34 0 32 0;
#X connect 34 1 30 0;
#X connect 35 0 40 0;
#X connect 36 0 39 0;
#X connect 37 0 28 0;
#X connect 38 0 25 0;
#X connect 39 0 38 0;
#X connect 40 0 37 0;
#X connect 41 0 58 0;
#X connect 42 0 44 0;
#X connect 43 0 1 0;
#X connect 44 0 43 0;
#X connect 45 0 26 0;
#X connect 45 0 27 0;
#X connect 46 0 6 0;
#X connect 46 0 7 0;
#X connect 46 0 8 0;
#X connect 46 0 9 0;
#X connect 46 0 10 0;
#X connect 46 0 11 0;
#X connect 46 0 12 0;
#X connect 46 0 13 0;
#X connect 46 0 14 0;
#X connect 46 0 15 0;
#X connect 47 0 2 0;
#X connect 47 0 3 0;
#X connect 48 0 37 0;
#X connect 49 0 38 0;
#X connect 50 0 43 0;
#X connect 51 0 21 0;
#X connect 52 0 21 0;
#X connect 53 0 21 0;
#X connect 54 0 21 0;
#X connect 55 0 21 0;
#X connect 56 0 21 0;
#X connect 58 0 50 0;
#X connect 58 0 49 0;
#X connect 58 0 48 0;
