#N canvas 1275 448 1119 790 12;
#X obj 400 550 vline~;
#X obj 400 580 dbtorms~;
#X obj 200 700 noise~;
#X obj 200 800 *~;
#X obj 250 490 t b b;
#X obj 200 490 t b b;
#X obj 200 460 del 30;
#X obj 200 830 hip~ 800;
#X obj 200 530 1.5;
#X obj 230 530 50;
#X obj 260 530 0.7;
#X obj 290 530 0;
#X obj 200 430 t b b f;
#X obj 400 330 t f f;
#X obj 400 360 *;
#X obj 200 400 f;
#X obj 400 470 rmstodb;
#X msg 400 500 \$1 \, 0 34 \, \$1 0.5 10.5 \, 0 34 11 \, \$1 0 23 \,
0 34 23 \, \$1 0 31 \, 0 34 31 \, \$1 0 36 \, 0 230 36.5 \, 0 500 65
\, 0 2000 120;
#X obj 200 900 outlet~;
#X text 600 300 Author: Roman Haefeli;
#X obj 200 202 inlet;
#X obj 200 300 b;
#X text 600 200 externals:;
#X text 600 230 [bpq2~] from the iemabs (uses [filter~] from iemlib1)
;
#X text 600 330 Version: 2007-09-13;
#X obj 200 260 route bang trigger gain;
#X obj 400 300 / 127;
#X obj 400 200 loadbang;
#X obj 400 230 tof/argument 1 100;
#X obj 200 750 bpq2~ 1000 1 3000;
#X text 200 100 from here:https://github.com/patricksebastien/mtl/blob/dcc0e2a8085e8918aeb27b01cea0d315ca200d26/mtl/clap808~.pd#L4
;
#X obj 200 230 bng 15 250 50 0 empty empty empty 17 7 0 10 #fcfcfc
#000000 #000000;
#X obj 200 870 *~ 1.5;
#X connect 0 0 1 0;
#X connect 1 0 3 1;
#X connect 2 0 29 0;
#X connect 3 0 7 0;
#X connect 4 0 10 0;
#X connect 4 1 11 0;
#X connect 5 0 8 0;
#X connect 5 1 9 0;
#X connect 6 0 5 0;
#X connect 7 0 32 0;
#X connect 8 0 29 2;
#X connect 9 0 29 3;
#X connect 10 0 29 2;
#X connect 11 0 29 3;
#X connect 12 0 6 0;
#X connect 12 1 4 0;
#X connect 12 2 16 0;
#X connect 13 0 14 0;
#X connect 13 1 14 1;
#X connect 14 0 15 1;
#X connect 15 0 12 0;
#X connect 16 0 17 0;
#X connect 17 0 0 0;
#X connect 20 0 31 0;
#X connect 21 0 15 0;
#X connect 25 0 21 0;
#X connect 25 1 21 0;
#X connect 25 2 26 0;
#X connect 26 0 13 0;
#X connect 27 0 28 0;
#X connect 28 0 26 0;
#X connect 29 0 3 0;
#X connect 31 0 25 0;
#X connect 32 0 18 0;
