#N canvas 901 342 1525 957 10;
#X obj 500 600 del 2;
#X obj 300 680 line~;
#X obj 300 720 *~;
#X obj 200 300 bng 15 250 50 0 empty clap_bang empty 17 7 0 10 #fcfcfc
#000000 #000000;
#X obj 600 600 noise~;
#X obj 800 600 t b b;
#X obj 800 670 pack;
#X obj 800 640 f;
#X msg 800 700 0 \$1;
#X obj 800 730 line~;
#X obj 800 760 *~;
#X obj 600 800 *~;
#X floatatom 730 870 5 0 0 0 - - -, f 5;
#X obj 700 900 *;
#X obj 500 1000 *~;
#X msg 840 700 1 0;
#X msg 350 650 1 1.5;
#X obj 600 740 lop~ 1000;
#X obj 300 800 *~;
#X msg 300 650 0 20;
#X obj 450 600 del 22;
#X obj 400 600 del 24;
#X obj 300 1000 *~;
#X obj 350 600 del 44;
#X obj 300 600 del 46;
#X obj 100 600 t b b;
#X obj 100 730 pack;
#X obj 100 700 f;
#X msg 100 760 0 \$1;
#X obj 100 800 line~;
#X msg 140 760 1 0;
#X obj 580 400 + 2;
#X obj 540 400 + 20;
#X obj 500 400 + 22;
#X obj 500 740 lop~ 2500;
#X text 200 100 original patch is from user 'nuromantix' in this forum:https://forum.pdpatchrepo.info/topic/9511/looking-for-good-drum-synths/9
;
#X obj 300 1100 outlet~;
#X floatatom 500 330 5 0 0 0 - - -, f 5;
#X obj 800 200 inlet;
#X obj 1000 200 inlet;
#X obj 800 300 hsl 128 15 0 127 0 0 empty empty empty -2 -8 0 10 #fcfcfc
#000000 #000000 6400 1;
#X obj 1000 300 hsl 128 15 0 127 0 0 empty empty empty -2 -8 0 10 #fcfcfc
#000000 #000000 6400 1;
#X obj 900 200 loadbang;
#X obj 800 400 s \$0-clap_spacing;
#X obj 500 300 r \$0-clap_spacing;
#X text 800 170 Spacing;
#X obj 800 350 sq/rmp/map 0 127 8 60;
#X obj 2310 1900 f;
#X obj 1000 400 s \$0-clap_amp_decay;
#X obj 1000 350 sq/rmp/map 0 127 5 100;
#X obj 140 640 r \$0-clap_amp_decay;
#X floatatom 140 670 5 0 0 0 - - -, f 5;
#X text 140 610 amp decay;
#X text 1000 170 Claps Decay;
#X obj 1200 200 inlet;
#X obj 1200 300 hsl 128 15 0 127 0 0 empty empty empty -2 -8 0 10 #fcfcfc
#000000 #000000 6400 1;
#X text 1200 170 Reverb LPF;
#X obj 1200 350 sq/rmp/map 0 127 400 4000;
#X obj 1400 200 inlet;
#X obj 1400 300 hsl 128 15 0 127 0 0 empty empty empty -2 -8 0 10 #fcfcfc
#000000 #000000 6400 1;
#X text 1400 170 Reverb Decay;
#X obj 1400 400 s \$0-clap_noise_decay;
#X obj 1200 400 s \$0-clap_lpf;
#X obj 1400 350 sq/rmp/map 0 127 50 750;
#X obj 700 830 r \$0-clap_noise_level;
#X text 700 800 Reverb Level;
#X floatatom 680 710 5 0 0 0 - - -, f 5;
#X text 680 650 LPF;
#X obj 680 680 r \$0-clap_lpf;
#X obj 900 570 r \$0-clap_noise_decay;
#X floatatom 900 600 5 0 0 0 - - -, f 5;
#X msg 900 260 64;
#X obj 200 200 inlet;
#X obj 1600 200 inlet;
#X obj 1600 300 hsl 128 15 0 127 0 0 empty empty empty -2 -8 0 10 #fcfcfc
#000000 #000000 6400 1;
#X obj 1600 350 sq/rmp/map 0 127 0 0.6;
#X obj 1600 400 s \$0-clap_noise_level;
#X text 1600 170 Reverb Level;
#X obj 920 230 pipe 1;
#X connect 0 0 19 0;
#X connect 1 0 2 1;
#X connect 1 0 2 0;
#X connect 2 0 18 0;
#X connect 3 0 5 0;
#X connect 3 0 0 0;
#X connect 3 0 16 0;
#X connect 3 0 20 0;
#X connect 3 0 21 0;
#X connect 3 0 23 0;
#X connect 3 0 24 0;
#X connect 3 0 25 0;
#X connect 4 0 17 0;
#X connect 4 0 34 0;
#X connect 5 0 7 0;
#X connect 5 1 15 0;
#X connect 6 0 8 0;
#X connect 7 0 6 0;
#X connect 8 0 9 0;
#X connect 9 0 10 0;
#X connect 9 0 10 1;
#X connect 10 0 11 1;
#X connect 11 0 14 0;
#X connect 12 0 13 1;
#X connect 13 0 14 1;
#X connect 14 0 36 0;
#X connect 15 0 9 0;
#X connect 16 0 1 0;
#X connect 17 0 11 0;
#X connect 18 0 22 0;
#X connect 19 0 1 0;
#X connect 20 0 16 0;
#X connect 21 0 19 0;
#X connect 22 0 36 0;
#X connect 23 0 16 0;
#X connect 24 0 19 0;
#X connect 25 0 27 0;
#X connect 25 1 30 0;
#X connect 26 0 28 0;
#X connect 27 0 26 0;
#X connect 28 0 29 0;
#X connect 29 0 22 1;
#X connect 30 0 29 0;
#X connect 31 0 21 1;
#X connect 32 0 23 1;
#X connect 33 0 24 1;
#X connect 34 0 18 1;
#X connect 37 0 33 0;
#X connect 37 0 32 0;
#X connect 37 0 31 0;
#X connect 37 0 20 1;
#X connect 38 0 40 0;
#X connect 39 0 41 0;
#X connect 40 0 46 0;
#X connect 41 0 49 0;
#X connect 42 0 71 0;
#X connect 42 0 78 0;
#X connect 44 0 37 0;
#X connect 46 0 43 0;
#X connect 49 0 48 0;
#X connect 50 0 51 0;
#X connect 51 0 27 1;
#X connect 54 0 55 0;
#X connect 55 0 57 0;
#X connect 57 0 62 0;
#X connect 58 0 59 0;
#X connect 59 0 63 0;
#X connect 63 0 61 0;
#X connect 64 0 13 0;
#X connect 64 0 12 0;
#X connect 66 0 17 1;
#X connect 68 0 66 0;
#X connect 69 0 70 0;
#X connect 70 0 7 1;
#X connect 71 0 40 0;
#X connect 71 0 41 0;
#X connect 71 0 55 0;
#X connect 71 0 59 0;
#X connect 71 0 74 0;
#X connect 72 0 3 0;
#X connect 73 0 74 0;
#X connect 74 0 75 0;
#X connect 75 0 76 0;
#X connect 78 0 71 0;
