#N canvas 1201 259 1309 1088 10;
#X text 200 100 tutorial: https://www.youtube.com/watch?v=lBPWBZRowzc
;
#X msg 200 250 1 0 \, 0 11 0 \, 1 0 11 \, 0 12 11 \, 1 0 23 \, 0 8
23 \, 1 0 31 \, 0 50 31, f 62;
#X obj 200 300 vline~;
#X obj 200 325 pow~ 3;
#X obj 200 360 *~;
#X obj 200 400 *~ 0.7;
#X obj 300 300 noise~;
#X obj 220 450 bp~ 1000 5;
#X obj 200 500 lop~ 3000;
#X obj 200 525 hip~ 600;
#X msg 400 300 1 36 \, 0 440 36;
#X obj 400 330 vline~;
#X obj 400 360 pow~ 1.8;
#X obj 400 400 *~;
#X obj 400 450 bp~ 1100 3;
#X obj 400 500 *~ 0.4;
#X obj 300 600 *~ 0.5;
#X obj 300 700 outlet~;
#X obj 200 200 inlet;
#X connect 1 0 2 0;
#X connect 2 0 3 0;
#X connect 3 0 4 0;
#X connect 4 0 5 0;
#X connect 5 0 7 0;
#X connect 5 0 8 0;
#X connect 6 0 4 1;
#X connect 6 0 13 1;
#X connect 7 0 8 0;
#X connect 8 0 9 0;
#X connect 9 0 16 0;
#X connect 10 0 11 0;
#X connect 11 0 12 0;
#X connect 12 0 13 0;
#X connect 13 0 14 0;
#X connect 14 0 15 0;
#X connect 15 0 16 0;
#X connect 16 0 17 0;
#X connect 18 0 1 0;
#X connect 18 0 10 0;
