#N canvas 1404 269 1079 982 12;
#X floatatom 200 300 5 0 0 0 - - -, f 5;
#X obj 200 340 sig~;
#X obj 200 400 phasor~ 540;
#X obj 200 430 expr~ 2*($v1 - 0.5);
#X obj 200 598 *~ 0.75;
#X obj 400 400 *~ 1.48;
#X obj 400 430 phasor~ 800;
#X obj 400 460 expr~ 2*($v1 - 0.5);
#X obj 600 360 bng 15 250 50 0 empty empty empty 17 7 0 10 #fcfcfc
#000000 #000000;
#X obj 600 430 vline~;
#X obj 600 460 *~;
#X obj 200 698 *~;
#X obj 200 798 outlet~;
#X obj 200 200 inlet;
#X msg 600 400 1 0 \, 0 400 0;
#X text 200 100 tutorial: https://www.youtube.com/watch?v=vupgpGYUbPE
;
#X obj 200 750 *~ 0.1;
#X obj 400 200 loadbang;
#X msg 400 229 150;
#X text 250 300 <- sets the frequency the cowbell rings at;
#X connect 0 0 1 0;
#X connect 1 0 2 0;
#X connect 1 0 5 0;
#X connect 2 0 3 0;
#X connect 3 0 4 0;
#X connect 4 0 11 0;
#X connect 5 0 6 0;
#X connect 6 0 7 0;
#X connect 7 0 4 0;
#X connect 8 0 14 0;
#X connect 9 0 10 0;
#X connect 9 0 10 1;
#X connect 10 0 11 1;
#X connect 11 0 16 0;
#X connect 13 0 8 0;
#X connect 14 0 9 0;
#X connect 16 0 12 0;
#X connect 17 0 18 0;
#X connect 18 0 0 0;
