#N canvas 1177 212 1383 1156 12;
#X obj 100 440 sig~;
#X obj 200 530 sig~;
#X obj 200 700 *~;
#X obj 300 550 vline~;
#X obj 200 360 f;
#X obj 200 660 *~ 0.5;
#X obj 200 500 * 1.44;
#X obj 300 580 *~;
#X obj 200 400 + 4;
#X msg 300 520 0 \, 1 4 \, 0.2 \$1 4 \, 0 \$2 \$3;
#X obj 300 490 pack 50 480 54;
#X obj 200 820 *~;
#X obj 200 900 outlet~;
#X obj 600 560 +;
#X obj 600 500 t b f;
#X obj 600 530 f;
#X obj 550 620 delay;
#X obj 550 590 f;
#X msg 550 650 0;
#X obj 550 680 switch~;
#X obj 200 740 vcf~ 1;
#X obj 550 560 b;
#X obj 200 620 tabosc4~ \$0-cowwave;
#X msg 300 340 1;
#X obj 200 300 t b b;
#N canvas 906 527 828 540 cow-wave 1;
#X obj 200 340 f;
#X obj 250 340 + 1;
#X msg 260 290 0;
#X obj 400 480 ==;
#X obj 200 230 t b b;
#X obj 400 510 expr $f1 * 2 - 1;
#X msg 140 200 bang;
#X obj 200 500 f \$0;
#X obj 200 400 sel 256;
#X obj 300 400 expr $f1 \; if ($f1 > 104 \, 1 \, 0) \; if ($f1 > 232
\, 0 \, 1);
#X obj 300 290 f \$0;
#X obj 500 200 inlet~;
#X obj 600 200 inlet;
#X obj 500 300 outlet~;
#X obj 200 290 until;
#X msg 200 260 257;
#X obj 350 200 table \$0-cowwave 259;
#X msg 200 580 \; \$1-cowwave 100 -0.99 -0.97 -0.94 -0.9 -0.8 -0.5
0 0.5 0.8 0.9 0.94 0.97 0.99 \; \$1-cowwave 228 0.99 0.97 0.94 0.9
0.8 0.5 0 -0.5 -0.8 -0.9 -0.94 -0.97 -0.99;
#X obj 240 550 tabwrite \$0-cowwave;
#X msg 300 340 \; \$1-cowwave const -1;
#X obj 500 250 tabosc4~ \$0-cowwave;
#X obj 200 200 loadbang;
#X connect 0 0 1 0;
#X connect 0 0 8 0;
#X connect 1 0 0 1;
#X connect 2 0 0 1;
#X connect 3 0 5 0;
#X connect 4 0 15 0;
#X connect 4 1 2 0;
#X connect 4 1 10 0;
#X connect 5 0 18 0;
#X connect 6 0 4 0;
#X connect 7 0 17 0;
#X connect 8 0 7 0;
#X connect 8 1 9 0;
#X connect 9 0 18 1;
#X connect 9 1 3 0;
#X connect 9 2 3 1;
#X connect 10 0 19 0;
#X connect 11 0 20 0;
#X connect 12 0 20 1;
#X connect 14 0 0 0;
#X connect 15 0 14 0;
#X connect 20 0 13 0;
#X connect 21 0 4 0;
#X restore 100 480 pd cow-wave;
#X obj 300 370 s \$0-cow-switch-on;
#X msg 1170 540 10;
#X msg 1220 540 2000;
#X obj 1100 480 r \$0-decay1;
#X obj 1100 600 s \$0-decayd1;
#X obj 300 200 r \$0-decayd1;
#X obj 650 500 r \$0-cow-switch-on;
#X obj 400 400 r \$0-decayd2;
#X msg 1370 540 10;
#X msg 1420 540 2000;
#X obj 1290 480 r \$0-decay2;
#X obj 1300 600 s \$0-decayd2;
#N canvas 0 22 462 312 rh_scalelog 0;
#X obj 20 155 exp;
#X obj 20 107 *;
#X obj 20 130 +;
#X obj 98 87 log;
#X obj 194 84 log;
#X obj 123 123 t b f;
#X obj 123 145 -;
#X obj 20 183 outlet;
#X obj 20 19 inlet;
#X obj 98 23 inlet;
#X obj 194 24 inlet;
#X connect 0 0 7 0;
#X connect 1 0 2 0;
#X connect 2 0 0 0;
#X connect 3 0 2 1;
#X connect 3 0 5 0;
#X connect 4 0 6 0;
#X connect 5 0 6 0;
#X connect 5 1 6 1;
#X connect 6 0 1 1;
#X connect 8 0 1 0;
#X connect 9 0 3 0;
#X connect 10 0 4 0;
#X restore 1500 570 pd rh_scalelog;
#X msg 1570 540 100;
#X msg 1620 540 2000;
#X obj 1500 600 s \$0-cowbell-vcf;
#X obj 200 700 r \$0-cowbell-vcf;
#X obj 200 780 *~ 2;
#N canvas 702 254 1173 809 rh_scalelog 0;
#X obj 200 460 exp;
#X obj 200 400 *;
#X obj 200 430 +;
#X obj 300 250 log;
#X obj 400 250 log;
#X obj 300 300 t b f;
#X obj 300 330 -;
#X obj 200 500 outlet;
#X obj 200 200 inlet;
#X obj 300 200 inlet;
#X obj 400 200 inlet;
#X connect 0 0 7 0;
#X connect 1 0 2 0;
#X connect 2 0 0 0;
#X connect 3 0 2 1;
#X connect 3 0 5 0;
#X connect 4 0 6 0;
#X connect 5 0 6 0;
#X connect 5 1 6 1;
#X connect 6 0 1 1;
#X connect 8 0 1 0;
#X connect 9 0 3 0;
#X connect 10 0 4 0;
#X restore 400 760 pd rh_scalelog;
#X obj 400 700 r \$0-gain;
#X msg 470 730 0.1;
#X msg 520 730 10;
#X obj 900 600 s \$0-pitchd;
#X obj 900 480 r \$0-pitch;
#X obj 100 400 r \$0-pitchd;
#X obj 1500 480 r \$0-vcf;
#X msg 1020 540 10000;
#X msg 970 540 100;
#X obj 200 200 inlet;
#X obj 200 860 tanh~;
#X obj 360 700 * 2;
#X obj 360 630 * 10;
#X obj 360 660 + 1;
#X obj 360 600 r \$0-vcfQ;
#X obj 3030 1590 f;
#X obj 899 101 inlet;
#X obj 1099 101 inlet;
#X obj 899 301 hsl 128 15 0 1 0 0 empty empty pitch -2 -8 0 10 #fcfcfc
#000000 #000000 3810 1;
#X obj 1099 301 hsl 128 15 0 1 0 0 empty empty decay1 -2 -8 0 10 #fcfcfc
#000000 #000000 1270 1;
#X obj 1099 241 / 127;
#X obj 899 241 / 127;
#X obj 1000 100 loadbang;
#X obj 1299 101 inlet;
#X obj 1299 301 hsl 128 15 0 1 0 0 empty empty decay2 -2 -8 0 10 #fcfcfc
#000000 #000000 9525 1;
#X obj 1299 241 / 127;
#X msg 999 181 0.3;
#X obj 999 141 pipe 20;
#X obj 1500 100 inlet;
#X obj 1500 300 hsl 128 15 0 1 0 0 empty empty vcf -2 -8 0 10 #fcfcfc
#000000 #000000 3810 1;
#X obj 1500 240 / 127;
#X obj 1700 100 inlet;
#X obj 1700 300 hsl 128 15 0 1 0 0 empty empty vcfQ -2 -8 0 10 #fcfcfc
#000000 #000000 0 1;
#X obj 1700 240 / 127;
#X obj 1900 100 inlet;
#X obj 1900 300 hsl 128 15 0 1 0 0 empty empty gain -2 -8 0 10 #fcfcfc
#000000 #000000 6223 1;
#X obj 1900 240 / 127;
#X obj 900 400 s \$0-pitch;
#X obj 1100 400 s \$0-decay1;
#X obj 1300 400 s \$0-decay2;
#X obj 1500 400 s \$0-vcf;
#X obj 1700 400 s \$0-vcfQ;
#X obj 1900 400 s \$0-gain;
#X msg 1049 181 0.1;
#X msg 1099 181 0.75;
#X msg 1150 180 0.3;
#X msg 1200 180 0;
#X msg 1250 180 0.49;
#X obj 470 700 loadbang;
#X text 200 100 based on the preset "perk-cowbell" in this library:
https://forum.pdpatchrepo.info/topic/1821/diy-library-part-i-diy-perk
;
#N canvas 702 254 1173 809 rh_scalelog 0;
#X obj 200 460 exp;
#X obj 200 400 *;
#X obj 200 430 +;
#X obj 300 250 log;
#X obj 400 250 log;
#X obj 300 300 t b f;
#X obj 300 330 -;
#X obj 200 500 outlet;
#X obj 200 200 inlet;
#X obj 300 200 inlet;
#X obj 400 200 inlet;
#X connect 0 0 7 0;
#X connect 1 0 2 0;
#X connect 2 0 0 0;
#X connect 3 0 2 1;
#X connect 3 0 5 0;
#X connect 4 0 6 0;
#X connect 5 0 6 0;
#X connect 5 1 6 1;
#X connect 6 0 1 1;
#X connect 8 0 1 0;
#X connect 9 0 3 0;
#X connect 10 0 4 0;
#X restore 900 570 pd rh_scalelog;
#N canvas 702 254 1173 809 rh_scalelog 0;
#X obj 200 460 exp;
#X obj 200 400 *;
#X obj 200 430 +;
#X obj 300 250 log;
#X obj 400 250 log;
#X obj 300 300 t b f;
#X obj 300 330 -;
#X obj 200 500 outlet;
#X obj 200 200 inlet;
#X obj 300 200 inlet;
#X obj 400 200 inlet;
#X connect 0 0 7 0;
#X connect 1 0 2 0;
#X connect 2 0 0 0;
#X connect 3 0 2 1;
#X connect 3 0 5 0;
#X connect 4 0 6 0;
#X connect 5 0 6 0;
#X connect 5 1 6 1;
#X connect 6 0 1 1;
#X connect 8 0 1 0;
#X connect 9 0 3 0;
#X connect 10 0 4 0;
#X restore 1100 570 pd rh_scalelog;
#N canvas 702 254 1173 809 rh_scalelog 0;
#X obj 200 460 exp;
#X obj 200 400 *;
#X obj 200 430 +;
#X obj 300 250 log;
#X obj 400 250 log;
#X obj 300 300 t b f;
#X obj 300 330 -;
#X obj 200 500 outlet;
#X obj 200 200 inlet;
#X obj 300 200 inlet;
#X obj 400 200 inlet;
#X connect 0 0 7 0;
#X connect 1 0 2 0;
#X connect 2 0 0 0;
#X connect 3 0 2 1;
#X connect 3 0 5 0;
#X connect 4 0 6 0;
#X connect 5 0 6 0;
#X connect 5 1 6 1;
#X connect 6 0 1 1;
#X connect 8 0 1 0;
#X connect 9 0 3 0;
#X connect 10 0 4 0;
#X restore 1300 570 pd rh_scalelog;
#X obj 970 510 loadbang;
#X obj 1170 510 loadbang;
#X obj 1370 510 loadbang;
#X obj 1570 510 loadbang;
#X connect 0 0 25 0;
#X connect 1 0 22 0;
#X connect 2 0 20 0;
#X connect 3 0 7 0;
#X connect 3 0 7 1;
#X connect 4 0 10 0;
#X connect 5 0 2 0;
#X connect 6 0 1 0;
#X connect 7 0 2 1;
#X connect 8 0 10 2;
#X connect 8 0 14 0;
#X connect 9 0 3 0;
#X connect 10 0 9 0;
#X connect 11 0 55 0;
#X connect 13 0 17 1;
#X connect 14 0 15 0;
#X connect 14 1 13 1;
#X connect 15 0 13 0;
#X connect 16 0 18 0;
#X connect 17 0 16 0;
#X connect 18 0 19 0;
#X connect 20 0 43 0;
#X connect 21 0 17 0;
#X connect 22 0 5 0;
#X connect 23 0 26 0;
#X connect 24 0 4 0;
#X connect 24 1 23 0;
#X connect 25 0 5 0;
#X connect 27 0 96 1;
#X connect 28 0 96 2;
#X connect 29 0 96 0;
#X connect 31 0 4 1;
#X connect 31 0 8 0;
#X connect 32 0 19 0;
#X connect 32 0 21 0;
#X connect 33 0 10 1;
#X connect 33 0 15 0;
#X connect 34 0 97 1;
#X connect 35 0 97 2;
#X connect 36 0 97 0;
#X connect 38 0 41 0;
#X connect 39 0 38 1;
#X connect 40 0 38 2;
#X connect 42 0 20 1;
#X connect 43 0 11 0;
#X connect 44 0 11 1;
#X connect 45 0 44 0;
#X connect 46 0 44 1;
#X connect 47 0 44 2;
#X connect 49 0 95 0;
#X connect 50 0 6 0;
#X connect 50 0 0 0;
#X connect 51 0 38 0;
#X connect 52 0 95 2;
#X connect 53 0 95 1;
#X connect 54 0 24 0;
#X connect 55 0 12 0;
#X connect 56 0 43 1;
#X connect 57 0 58 0;
#X connect 58 0 56 1;
#X connect 58 0 20 2;
#X connect 59 0 57 0;
#X connect 61 0 66 0;
#X connect 62 0 65 0;
#X connect 63 0 82 0;
#X connect 64 0 83 0;
#X connect 65 0 64 0;
#X connect 66 0 63 0;
#X connect 67 0 72 0;
#X connect 68 0 70 0;
#X connect 69 0 84 0;
#X connect 70 0 69 0;
#X connect 71 0 63 0;
#X connect 72 0 89 0;
#X connect 72 0 88 0;
#X connect 72 0 71 0;
#X connect 72 0 90 0;
#X connect 72 0 91 0;
#X connect 72 0 92 0;
#X connect 73 0 75 0;
#X connect 74 0 85 0;
#X connect 75 0 74 0;
#X connect 76 0 78 0;
#X connect 77 0 86 0;
#X connect 78 0 77 0;
#X connect 79 0 81 0;
#X connect 80 0 87 0;
#X connect 81 0 80 0;
#X connect 88 0 64 0;
#X connect 89 0 69 0;
#X connect 90 0 74 0;
#X connect 91 0 77 0;
#X connect 92 0 80 0;
#X connect 93 0 46 0;
#X connect 93 0 47 0;
#X connect 95 0 48 0;
#X connect 96 0 30 0;
#X connect 97 0 37 0;
#X connect 98 0 53 0;
#X connect 98 0 52 0;
#X connect 99 0 27 0;
#X connect 99 0 28 0;
#X connect 100 0 34 0;
#X connect 100 0 35 0;
#X connect 101 0 39 0;
#X connect 101 0 40 0;
