#N canvas 1175 260 1309 1088 10;
#X obj 200 700 outlet~;
#X obj 200 200 inlet;
#X text 200 100 tutorial: https://www.youtube.com/watch?v=hS1KTGjn9CY
;
#X msg 200 300 550;
#X msg 300 300 830;
#X obj 200 350 phasor~;
#X obj 300 350 phasor~;
#X obj 200 400 -~ 0.5;
#X obj 300 440 bp~ 830 0.4;
#X obj 300 400 -~ 0.5;
#X msg 490 300 1 4 \, 0 250 4;
#X msg 590 300 0.5 4 \, 0 600 4;
#X obj 490 330 vline~;
#X obj 590 330 vline~;
#X obj 490 360 pow~ 6;
#X obj 590 360 pow~ 3;
#X obj 200 600 *~;
#X obj 200 650 *~ 0.25;
#X connect 1 0 3 0;
#X connect 1 0 4 0;
#X connect 1 0 10 0;
#X connect 1 0 11 0;
#X connect 3 0 5 0;
#X connect 4 0 6 0;
#X connect 5 0 7 0;
#X connect 6 0 9 0;
#X connect 7 0 16 0;
#X connect 8 0 16 0;
#X connect 9 0 8 0;
#X connect 10 0 12 0;
#X connect 11 0 13 0;
#X connect 12 0 14 0;
#X connect 13 0 15 0;
#X connect 14 0 16 1;
#X connect 15 0 16 1;
#X connect 16 0 17 0;
#X connect 17 0 0 0;
