#N canvas 1265 480 966 697 10;
#N canvas 994 385 1090 898 cymbal 0;
#X obj 200 300 noise~;
#X floatatom 600 270 5 0 0 0 - - -, f 5;
#N canvas 891 569 858 387 six_pulse_oscs 0;
#X obj 200 200 inlet;
#X obj 200 330 phasor~;
#X obj 200 360 expr~ $v1 > 0.55;
#X obj 200 400 *~ 0.9;
#X obj 300 300 * 1.342;
#X obj 300 330 phasor~;
#X obj 300 360 expr~ $v1 > 0.55;
#X obj 400 330 phasor~;
#X obj 400 359 expr~ $v1 > 0.55;
#X obj 500 330 phasor~;
#X obj 500 359 expr~ $v1 > 0.55;
#X obj 600 330 phasor~;
#X obj 600 359 expr~ $v1 > 0.55;
#X obj 700 330 phasor~;
#X obj 700 359 expr~ $v1 > 0.55;
#X obj 400 300 * 1.2312;
#X obj 500 300 * 1.6532;
#X obj 600 300 * 1.9523;
#X obj 700 300 * 2.1523;
#X obj 200 500 outlet~;
#X obj 200 300 * 1;
#X connect 0 0 4 0;
#X connect 0 0 18 0;
#X connect 0 0 17 0;
#X connect 0 0 16 0;
#X connect 0 0 15 0;
#X connect 0 0 20 0;
#X connect 1 0 2 0;
#X connect 2 0 3 0;
#X connect 3 0 19 0;
#X connect 4 0 5 0;
#X connect 5 0 6 0;
#X connect 6 0 3 0;
#X connect 7 0 8 0;
#X connect 8 0 3 0;
#X connect 9 0 10 0;
#X connect 10 0 3 0;
#X connect 11 0 12 0;
#X connect 12 0 3 0;
#X connect 13 0 14 0;
#X connect 14 0 3 0;
#X connect 15 0 7 0;
#X connect 16 0 9 0;
#X connect 17 0 11 0;
#X connect 18 0 13 0;
#X connect 20 0 1 0;
#X restore 600 300 pd six_pulse_oscs;
#X obj 200 650 *~;
#X floatatom 500 230 5 0 0 0 - - -, f 5;
#X obj 400 230 bng 15 250 50 0 empty empty empty 17 7 0 10 #fcfcfc
#000000 #000000;
#X obj 200 401 *~;
#N canvas 0 23 305 203 vol_env 0;
#X obj 74 76 f 250;
#X obj 72 43 inlet;
#X obj 128 38 inlet;
#X obj 76 126 vline~;
#X obj 76 147 outlet~;
#X msg 76 105 1 2 \, 0.4 \$1 2 \, 0 \$1 \$1;
#X connect 0 0 5 0;
#X connect 1 0 0 0;
#X connect 2 0 0 1;
#X connect 3 0 4 0;
#X connect 5 0 3 0;
#X restore 240 620 pd vol_env;
#N canvas 1167 661 688 684 noise_env 0;
#X obj 200 200 inlet;
#X obj 300 200 inlet;
#X obj 200 420 line~;
#X msg 200 380 1 \, 0.6 \$1;
#X obj 200 300 f 250;
#X obj 200 340 * 0.5;
#X obj 200 500 outlet~;
#X connect 0 0 4 0;
#X connect 1 0 4 1;
#X connect 2 0 6 0;
#X connect 3 0 2 0;
#X connect 4 0 5 0;
#X connect 5 0 3 0;
#X restore 240 360 pd noise_env;
#X obj 200 580 freeverb~;
#X obj 240 720 delread~ \$0-del 5;
#X obj 240 690 delwrite~ \$0-del 10;
#N canvas 831 336 981 795 filters 0;
#X obj 200 200 inlet~;
#X obj 200 480 biquad~ 1.86507 -0.892661 0.894294 -1.78859 0.894294
;
#X obj 200 360 biquad~ 0.88843 -0.568945 0.614344 -1.22869 0.614344
;
#X obj 200 420 biquad~ 0.88843 -0.568945 0.614344 -1.22869 0.614344
;
#X obj 200 300 biquad~ 0.638282 -0.176456 0.134544 0.269087 0.134544
;
#X text 300 330 6800Hz resonant hipass \, Q=1.5;
#X text 300 270 7000Hz resonant lowpass \, Q=0.6;
#X text 300 390 6800Hz resonant hipass \, Q=1.5;
#X text 300 450 1200Hz resonant hipass \, Q=1.5;
#X obj 200 600 outlet~;
#X connect 0 0 4 0;
#X connect 1 0 9 0;
#X connect 2 0 3 0;
#X connect 3 0 1 0;
#X connect 4 0 2 0;
#X restore 200 540 pd filters;
#X obj 400 200 inlet;
#X obj 500 200 inlet;
#X obj 600 200 inlet;
#X text 650 180 basefreq;
#X text 490 170 dur;
#X text 400 170 trig;
#X obj 200 800 outlet~;
#X obj 200 760 *~ 0.5;
#X obj 650 198 loadbang;
#X msg 650 230 220;
#X connect 0 0 6 0;
#X connect 1 0 2 0;
#X connect 2 0 12 0;
#X connect 3 0 11 0;
#X connect 3 0 20 0;
#X connect 4 0 7 1;
#X connect 4 0 8 1;
#X connect 5 0 7 0;
#X connect 5 0 8 0;
#X connect 6 0 12 0;
#X connect 7 0 3 1;
#X connect 8 0 6 1;
#X connect 9 0 3 0;
#X connect 10 0 20 0;
#X connect 12 0 9 0;
#X connect 13 0 5 0;
#X connect 14 0 4 0;
#X connect 15 0 1 0;
#X connect 20 0 19 0;
#X connect 21 0 22 0;
#X connect 22 0 1 0;
#X restore 200 500 pd cymbal;
#X obj 200 300 bng 15 250 50 0 empty empty empty 17 7 0 10 #fcfcfc
#000000 #000000;
#X floatatom 300 400 5 0 0 1 decay - -, f 5;
#X obj 300 250 vsl 15 128 50 2000 1 0 empty hh_decay empty 0 -9 0 10
#fcfcfc #000000 #000000 5541 1;
#X floatatom 400 400 5 0 0 1 pitch - -, f 5;
#X obj 400 250 vsl 15 128 100 1000 1 0 empty hh_pitch empty 0 -9 0
10 #fcfcfc #000000 #000000 5054 1;
#X msg 500 300 \; hh_decay 250 \; hh_pitch 250 \;;
#X msg 600 300 \; hh_decay 70 \; hh_pitch 500 \;;
#X msg 500 360 \; hh_decay 170 \; hh_pitch 200 \;;
#X msg 600 360 \; hh_decay 750 \; hh_pitch 450 \;;
#X obj 200 200 inlet;
#X obj 200 600 outlet~;
#X obj 500 200 loadbang;
#X text 200 100 tutorial: https://www.youtube.com/watch?v=kemL3pBSYfQ
;
#X connect 0 0 11 0;
#X connect 1 0 0 0;
#X connect 2 0 0 1;
#X connect 3 0 2 0;
#X connect 4 0 0 2;
#X connect 5 0 4 0;
#X connect 10 0 1 0;
#X connect 12 0 6 0;
