#N canvas 1373 313 875 829 12;
#X obj 200 300 noise~;
#X obj 200 329 hip~ 20000;
#X obj 200 358 hip~ 10000;
#X obj 200 600 *~;
#X obj 200 700 outlet~;
#X msg 300 500 \$1 \, 0 40 1;
#X obj 300 529 vline~;
#X obj 300 460 *;
#X obj 300 300 t f b;
#X obj 350 350 random 10;
#X obj 350 380 / 20;
#X obj 350 410 + 0.7;
#X obj 200 200 inlet;
#X msg 200 240 1;
#X text 200 100 tutorial: https://www.youtube.com/watch?v=wYlOw8YXoBs
;
#X connect 0 0 1 0;
#X connect 1 0 2 0;
#X connect 2 0 3 0;
#X connect 3 0 4 0;
#X connect 5 0 6 0;
#X connect 6 0 3 1;
#X connect 7 0 5 0;
#X connect 8 0 7 0;
#X connect 8 1 9 0;
#X connect 9 0 10 0;
#X connect 10 0 11 0;
#X connect 11 0 7 1;
#X connect 12 0 13 0;
#X connect 13 0 8 0;
