#N canvas 589 409 965 730 12;
#X msg 200 300 0 \, 1 200;
#X obj 200 330 line~;
#X obj 200 360 sqrt~;
#X obj 200 390 *~ 20;
#X obj 200 420 -~ 0.25;
#X obj 200 450 cos~;
#X text 200 100 tutorial: https://www.youtube.com/shorts/t2U5hQn2z_E
;
#X obj 200 200 inlet;
#X obj 200 500 outlet~;
#X connect 0 0 1 0;
#X connect 1 0 2 0;
#X connect 2 0 3 0;
#X connect 3 0 4 0;
#X connect 4 0 5 0;
#X connect 5 0 8 0;
#X connect 7 0 0 0;
