#N canvas 80 71 1240 1344 10;
#X obj 200 600 outlet~;
#X obj 200 200 inlet;
#X msg 200 300 0.2 0 \, 0 1 0;
#X obj 200 325 vline~;
#X obj 300 325 vline~;
#X obj 400 325 vline~;
#X obj 600 330 vline~;
#X msg 300 300 250 0 \, 50 10 0;
#X msg 400 300 1 4 \, 0.9 65 4 \, 0 660 69;
#X msg 600 300 0.05 4 \, 0 100 4;
#X obj 300 440 *~;
#X obj 300 360 osc~;
#X obj 400 360 pow~ 1.5;
#X obj 500 500 *~;
#X obj 430 430 noise~;
#X obj 430 455 lop~ 300;
#X text 200 100 tutorial: https://www.youtube.com/watch?v=4kc4MD1lTEo
;
#X connect 1 0 8 0;
#X connect 1 0 7 0;
#X connect 1 0 2 0;
#X connect 1 0 9 0;
#X connect 2 0 3 0;
#X connect 3 0 0 0;
#X connect 4 0 11 0;
#X connect 5 0 12 0;
#X connect 6 0 13 1;
#X connect 7 0 4 0;
#X connect 8 0 5 0;
#X connect 9 0 6 0;
#X connect 10 0 0 0;
#X connect 11 0 10 0;
#X connect 12 0 10 1;
#X connect 13 0 0 0;
#X connect 14 0 15 0;
#X connect 15 0 13 0;
