#N canvas 80 71 1240 1344 10;
#X obj 100 470 vline~;
#X obj 100 500 *~;
#X obj 20 590 +~ 140;
#X obj 70 590 +~ 275;
#X obj 120 590 +~ 455;
#X obj 300 600 *~;
#X obj 260 350 t b b;
#X obj 170 770 *~ 30;
#X obj 130 770 *~ 40;
#X obj 210 770 *~ 10;
#X obj 140 700 vcf~ 75;
#X obj 190 700 vcf~ 64;
#X obj 240 700 vcf~ 55;
#X obj 80 700 vcf~ 150;
#X obj 80 770 *~ 300;
#X obj 400 490 vline~;
#X obj 400 530 *~;
#X obj 400 550 *~;
#X msg 400 470 1 0 0 \, 0 50 1;
#X obj 270 550 lop~ 1200;
#X obj 170 590 +~ 645;
#X obj 220 590 +~ 1155;
#X obj 250 770 *~ 7;
#X obj 290 700 vcf~ 45;
#X msg 100 440 6 1 0 \, 0 100 1;
#X obj 200 1100 outlet~;
#X obj 200 200 inlet bang;
#X obj 500 680 switch~;
#X msg 500 650 1;
#X msg 530 650 0;
#X obj 530 590 sel 0;
#X obj 200 240 t b b b;
#N canvas 949 488 741 718 noise 0;
#X obj 200 400 +~;
#X obj 200 430 wrap~;
#X obj 200 520 -~ 0.5;
#X obj 200 490 wrap~;
#X msg 200 250 0;
#X obj 200 300 phasor~ 0.01;
#X obj 230 370 *~ 6789;
#X obj 200 460 *~ 98765;
#X obj 200 600 outlet~;
#X obj 200 200 inlet;
#X obj 200 550 *~ 2;
#X obj 200 330 *~ 10000;
#X connect 0 0 1 0;
#X connect 1 0 7 0;
#X connect 2 0 10 0;
#X connect 3 0 2 0;
#X connect 4 0 5 1;
#X connect 5 0 11 0;
#X connect 6 0 0 1;
#X connect 7 0 3 0;
#X connect 9 0 4 0;
#X connect 10 0 8 0;
#X connect 11 0 0 0;
#X connect 11 0 6 0;
#X restore 270 490 pd noise;
#X obj 270 510 *~ 9.99999e+06;
#X obj 270 530 clip~ -0.5 0.5;
#X obj 200 900 *~;
#X msg 400 770 1 5;
#X obj 400 800 vline~;
#X msg 530 530 1 0 \, 0 150;
#X obj 530 560 line 1 150;
#X obj 530 620 del 5;
#X msg 440 770 0 4;
#X obj 21 279 * 140;
#X obj 61 279 * 275;
#X obj 101 279 * 455;
#X obj 140 280 * 645;
#X obj 180 280 * 1155;
#X obj 20 200 r \$0-pitch;
#X obj 300 900 r \$0-gain;
#N canvas 80 71 2480 1344 rh_scalelog 0;
#X obj 200 460 exp;
#X obj 200 400 *;
#X obj 200 430 +;
#X obj 300 250 log;
#X obj 400 250 log;
#X obj 300 300 t b f;
#X obj 300 330 -;
#X obj 200 500 outlet;
#X obj 200 200 inlet;
#X obj 300 200 inlet;
#X obj 400 200 inlet;
#X connect 0 0 7 0;
#X connect 1 0 2 0;
#X connect 2 0 0 0;
#X connect 3 0 2 1;
#X connect 3 0 5 0;
#X connect 4 0 6 0;
#X connect 5 0 6 0;
#X connect 5 1 6 1;
#X connect 6 0 1 1;
#X connect 8 0 1 0;
#X connect 9 0 3 0;
#X connect 10 0 4 0;
#X restore 300 960 pd rh_scalelog;
#X msg 360 930 0.1;
#X msg 400 930 10;
#X obj 200 1000 *~;
#X obj 20 240 + 0.4;
#X obj 20 220 * 0.6;
#X obj 80 820 *~ 1;
#X obj 500 200 inlet;
#X obj 700 200 inlet;
#X obj 500 300 hsl 128 15 0 1 0 0 empty empty pitch -2 -8 0 10 #fcfcfc
#000000 #000000 6223 1;
#X obj 700 300 hsl 128 15 0 1 0 0 empty empty gain -2 -8 0 10 #fcfcfc
#000000 #000000 6223 1;
#X obj 700 240 / 127;
#X obj 500 240 / 127;
#X obj 600 200 loadbang;
#X obj 700 340 s \$0-gain;
#X obj 500 340 s \$0-pitch;
#X msg 600 240 0.49;
#X msg 650 241 0.49;
#X obj 360 900 loadbang;
#X text 100 100 based on the preset "perk-lowtom" in this library:
https://forum.pdpatchrepo.info/topic/1821/diy-library-part-i-diy-perk
;
#X text 500 100 I tried my best to make this abstraction flow together
\, but it's very complicated so it still doesn't look very good;
#X connect 0 0 1 0;
#X connect 0 0 1 1;
#X connect 1 0 2 0;
#X connect 1 0 3 0;
#X connect 1 0 4 0;
#X connect 1 0 20 0;
#X connect 1 0 21 0;
#X connect 2 0 13 1;
#X connect 3 0 10 1;
#X connect 4 0 11 1;
#X connect 5 0 10 0;
#X connect 5 0 11 0;
#X connect 5 0 12 0;
#X connect 5 0 13 0;
#X connect 5 0 23 0;
#X connect 6 0 18 0;
#X connect 6 1 24 0;
#X connect 7 0 55 0;
#X connect 8 0 55 0;
#X connect 9 0 55 0;
#X connect 10 0 8 0;
#X connect 11 0 7 0;
#X connect 12 0 9 0;
#X connect 13 0 14 0;
#X connect 14 0 55 0;
#X connect 15 0 16 0;
#X connect 15 0 16 1;
#X connect 16 0 17 0;
#X connect 16 0 17 1;
#X connect 17 0 5 0;
#X connect 18 0 15 0;
#X connect 19 0 5 1;
#X connect 20 0 12 1;
#X connect 21 0 23 1;
#X connect 22 0 55 0;
#X connect 23 0 22 0;
#X connect 24 0 0 0;
#X connect 26 0 31 0;
#X connect 28 0 27 0;
#X connect 29 0 27 0;
#X connect 30 0 40 0;
#X connect 30 0 41 0;
#X connect 31 0 38 0;
#X connect 31 0 32 0;
#X connect 31 0 36 0;
#X connect 31 1 6 0;
#X connect 31 2 28 0;
#X connect 32 0 33 0;
#X connect 33 0 34 0;
#X connect 34 0 19 0;
#X connect 35 0 52 0;
#X connect 36 0 37 0;
#X connect 37 0 35 1;
#X connect 38 0 39 0;
#X connect 39 0 30 0;
#X connect 40 0 29 0;
#X connect 41 0 37 0;
#X connect 42 0 2 1;
#X connect 43 0 3 1;
#X connect 44 0 4 1;
#X connect 45 0 20 1;
#X connect 46 0 21 1;
#X connect 47 0 54 0;
#X connect 48 0 49 0;
#X connect 49 0 52 1;
#X connect 50 0 49 1;
#X connect 51 0 49 2;
#X connect 52 0 25 0;
#X connect 53 0 42 0;
#X connect 53 0 43 0;
#X connect 53 0 44 0;
#X connect 53 0 45 0;
#X connect 53 0 46 0;
#X connect 54 0 53 0;
#X connect 55 0 35 0;
#X connect 56 0 61 0;
#X connect 57 0 60 0;
#X connect 58 0 64 0;
#X connect 59 0 63 0;
#X connect 60 0 59 0;
#X connect 61 0 58 0;
#X connect 62 0 65 0;
#X connect 62 0 66 0;
#X connect 65 0 58 0;
#X connect 66 0 59 0;
#X connect 67 0 50 0;
#X connect 67 0 51 0;
