#N canvas 937 575 1353 726 10;
#X obj 200 420 *~;
#X obj 200 330 vline~;
#X obj 300 420 osc~;
#X obj 300 330 vline~;
#X obj 260 450 *~;
#X obj 300 390 +~ 20;
#X obj 300 360 *~ 7000;
#X msg 300 300 1 \, 0 10 0;
#X obj 200 360 *~;
#X obj 200 390 *~;
#X obj 200 450 *~ 0.5;
#X obj 150 360 noise~;
#X obj 200 200 inlet;
#X obj 200 600 outlet~;
#X msg 200 300 1 \, 0 10 0;
#N canvas 1095 619 872 636 spark6formant 0;
#X obj 60 230 inlet~;
#X obj 100 200 * 4600;
#X obj 150 200 * 7200;
#X obj 200 200 * 480;
#X obj 260 200 * 720;
#X obj 100 300 bp~ 1 5;
#X obj 150 300 bp~ 1 5;
#X obj 200 300 bp~ 1 7;
#X obj 260 300 bp~ 1 8;
#X obj 100 340 *~ 2;
#X obj 200 340 *~ 1.2;
#X obj 260 340 *~ 2.5;
#X obj 100 400 bp~ 2500 0.5;
#X obj 100 500 outlet~;
#X obj 100 100 inlet;
#X connect 0 0 5 0;
#X connect 0 0 6 0;
#X connect 0 0 7 0;
#X connect 0 0 8 0;
#X connect 1 0 5 1;
#X connect 2 0 6 1;
#X connect 3 0 7 1;
#X connect 4 0 8 1;
#X connect 5 0 9 0;
#X connect 6 0 9 0;
#X connect 7 0 10 0;
#X connect 8 0 11 0;
#X connect 9 0 12 0;
#X connect 10 0 12 0;
#X connect 11 0 12 0;
#X connect 12 0 13 0;
#X connect 14 0 4 0;
#X connect 14 0 3 0;
#X connect 14 0 2 0;
#X connect 14 0 1 0;
#X restore 200 500 pd spark6formant;
#X floatatom 600 300 5 0 0 0 - - -, f 5;
#X obj 600 200 inlet;
#X obj 600 230 hsl 128 15 0 127 0 0 empty empty empty -2 -8 0 10 #fcfcfc
#000000 #000000 0 1;
#X obj 600 260 sq/rmp/map 0 127 0.15 1;
#X obj 500 200 loadbang;
#X msg 500 230 0;
#X obj 200 550 *~ 3;
#X text 200 100 this is supposed to be a snap sound \, but it's not
made very well \, so it sounds more like a lazer, f 49;
#X text 600 100 source:https://github.com/critterandguitari/Organelle_Patches/blob/a86cdf049394d6752294b5cd24f46ea1596c6eb8/Synthesizers/FunFX/SoundFX/snap.pd
;
#X connect 0 0 10 0;
#X connect 1 0 8 0;
#X connect 1 0 8 1;
#X connect 2 0 4 1;
#X connect 3 0 4 0;
#X connect 3 0 6 0;
#X connect 4 0 15 0;
#X connect 5 0 2 0;
#X connect 6 0 5 0;
#X connect 7 0 3 0;
#X connect 8 0 9 0;
#X connect 8 0 9 1;
#X connect 9 0 0 1;
#X connect 10 0 15 0;
#X connect 11 0 0 0;
#X connect 12 0 7 0;
#X connect 12 0 14 0;
#X connect 14 0 1 0;
#X connect 15 0 22 0;
#X connect 16 0 15 1;
#X connect 17 0 18 0;
#X connect 18 0 19 0;
#X connect 19 0 16 0;
#X connect 20 0 21 0;
#X connect 21 0 18 0;
#X connect 22 0 13 0;
