#N canvas 338 482 921 761 10;
#X obj 200 530 *~ 0.25;
#X obj 200 300 bng 15 250 50 0 empty empty empty 17 7 0 10 #fcfcfc
#000000 #000000;
#X floatatom 298 400 5 0 0 1 Decay - -, f 5;
#X obj 300 250 vsl 15 128 50 2000 0 0 empty tr808sn_decay empty 0 -9
0 10 #fcfcfc #000000 #000000 2931 1;
#X floatatom 400 400 5 0 0 1 Noise - -, f 5;
#X obj 400 250 vsl 15 128 100 10000 1 0 empty tr808sn_noise empty 0
-9 0 10 #fcfcfc #000000 #000000 10788 1;
#X msg 630 300 \; tr808sn_decay 200 \; tr808sn_noise 300 \;;
#X msg 500 300 \; tr808sn_decay 500 \; tr808sn_noise 5000 \;;
#X msg 500 350 \; tr808sn_decay 800 \; tr808sn_noise 3000 \;;
#X msg 630 350 \; tr808sn_decay 300 \; tr808sn_noise 6000 \;;
#X obj 500 200 loadbang;
#X obj 200 600 outlet~;
#X obj 200 200 inlet;
#N canvas 744 487 746 614 snare 0;
#X obj 200 100 inlet;
#X obj 200 540 vcf~ 3;
#X obj 230 370 noise~;
#X obj 200 440 *~;
#X floatatom 300 130 5 0 0 1 Decay - -, f 5;
#X obj 200 570 hip~ 50;
#X obj 300 330 +~ 100;
#X obj 300 300 *~ 8000;
#X obj 270 540 vcf~ 5;
#X obj 370 300 *~ 5000;
#X obj 370 330 +~ 200;
#X obj 300 100 inlet;
#X obj 200 601 outlet~;
#X obj 400 100 inlet;
#X obj 400 200 * 0.6;
#N canvas 381 231 604 484 vol_env 0;
#X obj 200 200 inlet;
#X obj 200 350 *~;
#X obj 200 400 outlet~;
#X obj 200 300 vline~;
#X msg 200 250 1 0.5 \, 0 \$1 0.5;
#X connect 0 0 4 0;
#X connect 1 0 2 0;
#X connect 3 0 1 0;
#X connect 3 0 1 1;
#X connect 4 0 3 0;
#X restore 200 300 pd vol_env;
#X obj 200 170 f 250;
#N canvas 381 220 735 724 cutoff_env 0;
#X obj 200 200 inlet;
#X obj 200 350 *~;
#X obj 200 400 outlet~;
#X obj 200 300 vline~;
#X msg 200 250 1 0.5 \, 0 \$1 0.5;
#X connect 0 0 4 0;
#X connect 1 0 2 0;
#X connect 3 0 1 0;
#X connect 3 0 1 1;
#X connect 4 0 3 0;
#X restore 300 250 pd cutoff_env;
#X obj 300 200 * 2;
#X text 440 100 Noise;
#N canvas 1095 634 747 622 FM_osc 0;
#X obj 200 300 osc~ 150;
#X obj 200 260 +~;
#X obj 200 200 sig~ 150;
#X obj 300 200 osc~ 50;
#X obj 300 230 *~ 30;
#X obj 200 350 *~;
#X obj 400 300 *~;
#X obj 400 200 inlet~;
#X obj 200 400 outlet~;
#X connect 0 0 5 0;
#X connect 1 0 0 0;
#X connect 2 0 1 0;
#X connect 3 0 4 0;
#X connect 4 0 1 1;
#X connect 5 0 8 0;
#X connect 6 0 5 1;
#X connect 7 0 6 0;
#X connect 7 0 6 1;
#X restore 240 500 pd FM_osc;
#X obj 230 400 hip~ 100;
#X connect 0 0 16 0;
#X connect 1 0 5 0;
#X connect 2 0 21 0;
#X connect 3 0 1 0;
#X connect 4 0 16 1;
#X connect 5 0 12 0;
#X connect 6 0 1 1;
#X connect 7 0 6 0;
#X connect 8 0 5 0;
#X connect 9 0 10 0;
#X connect 10 0 8 1;
#X connect 11 0 4 0;
#X connect 13 0 14 0;
#X connect 13 0 7 1;
#X connect 14 0 9 1;
#X connect 15 0 3 0;
#X connect 15 0 20 0;
#X connect 16 0 15 0;
#X connect 16 0 18 0;
#X connect 17 0 7 0;
#X connect 17 0 9 0;
#X connect 18 0 17 0;
#X connect 20 0 1 0;
#X connect 20 0 8 0;
#X connect 21 0 3 1;
#X restore 200 500 pd snare;
#X text 200 100 tutorial: https://www.youtube.com/watch?v=OF-7Cl3j4G4
;
#X connect 0 0 11 0;
#X connect 1 0 13 0;
#X connect 2 0 13 1;
#X connect 3 0 2 0;
#X connect 4 0 13 2;
#X connect 5 0 4 0;
#X connect 10 0 7 0;
#X connect 12 0 1 0;
#X connect 13 0 0 0;
