#N canvas 80 69 1240 1346 10;
#X text 1400 170 Tone Decay;
#X text 1201 170 End Pitch;
#X text 800 170 Start Pitch;
#X text 1000 170 Fall Time;
#X text 2000 170 Noise Decay;
#X text 2200 170 Noise Level;
#X text 1600 170 Tone HPF;
#X text 1800 167 Noise LPF;
#X text 400 170 FM Pitch;
#X text 600 170 FM Depth;
#X obj 200 300 bng 15 250 50 0 empty snare_bang empty 17 7 0 10 #fcfcfc
#000000 #000000;
#X obj 200 700 hip~ 400;
#X obj 200 730 hip~ 400;
#X obj 3530 2780 f;
#X obj 300 170 loadbang;
#X msg 300 200 63.5;
#X obj 400 230 hsl 128 15 0 127 0 0 empty empty empty -2 -8 0 10 #fcfcfc
#000000 #000000 6350 1;
#X obj 400 200 inlet;
#X obj 600 230 hsl 128 15 0 127 0 0 empty empty empty -2 -8 0 10 #fcfcfc
#000000 #000000 6350 1;
#X obj 600 260 sq/rmp/map 0 127 0 84;
#X obj 600 200 inlet;
#X floatatom 300 630 5 0 0 0 - - -, f 5;
#X obj 300 600 r snare_hpf;
#X text 300 570 HPF;
#X obj 800 230 hsl 128 15 0 127 0 0 empty empty empty -2 -8 0 10 #fcfcfc
#000000 #000000 6350 1;
#X obj 800 200 inlet;
#X obj 1000 230 hsl 128 15 0 127 0 0 empty empty empty -2 -8 0 10 #fcfcfc
#000000 #000000 6350 1;
#X obj 1000 200 inlet;
#X obj 1200 230 hsl 128 15 0 127 0 0 empty empty empty -2 -8 0 10 #fcfcfc
#000000 #000000 6350 1;
#X obj 1200 200 inlet;
#X obj 1400 230 hsl 128 15 0 127 0 0 empty empty empty -2 -8 0 10 #fcfcfc
#000000 #000000 6350 1;
#X obj 1400 200 inlet;
#X obj 2200 230 hsl 128 15 0 127 0 0 empty empty empty -2 -8 0 10 #fcfcfc
#000000 #000000 6350 1;
#X obj 2200 200 inlet;
#X obj 2000 230 hsl 128 15 0 127 0 0 empty empty empty -2 -8 0 10 #fcfcfc
#000000 #000000 6350 1;
#X obj 2000 200 inlet;
#X obj 1800 230 hsl 128 15 0 127 0 0 empty empty empty -2 -8 0 10 #fcfcfc
#000000 #000000 6350 1;
#X obj 1800 200 inlet;
#X obj 1600 230 hsl 128 15 0 127 0 0 empty empty empty -2 -8 0 10 #fcfcfc
#000000 #000000 6350 1;
#X obj 1600 200 inlet;
#X obj 1800 400 s snare_lpf;
#X obj 1000 260 sq/rmp/map 0 127 2 178;
#X obj 2200 260 sq/rmp/map 0 127 0 0.6;
#X obj 2000 260 sq/rmp/map 0 127 5 261;
#X obj 200 200 inlet;
#N canvas 607 169 1240 1346 fm 0;
#X obj 300 900 osc~;
#X obj 300 460 t b b;
#X obj 300 800 line~;
#X obj 300 700 pack;
#X msg 300 725 \$1 \$2;
#X obj 500 630 pack;
#X msg 200 760 0 0;
#X obj 200 700 loadbang;
#X obj 200 730 del 2;
#X obj 500 600 f;
#X obj 300 600 f;
#X obj 300 500 del 1;
#X msg 500 660 \$1 0;
#X obj 400 760 osc~;
#X obj 300 860 +~;
#X obj 400 800 *~ 130;
#X obj 300 200 inlet;
#X obj 300 1140 outlet~;
#X obj 300 1100 *~;
#X obj 600 200 inlet;
#X obj 700 200 inlet;
#X obj 800 200 inlet;
#X obj 500 200 inlet;
#X obj 430 200 inlet;
#X obj 900 200 inlet;
#N canvas 80 69 1240 1346 fm_decay 0;
#X obj 200 240 t b b;
#X obj 200 360 pack;
#X obj 200 320 f;
#X msg 200 400 0 \$1;
#X obj 200 280 del 2;
#X obj 200 440 line~;
#X obj 200 470 *~;
#X obj 200 200 inlet;
#X obj 200 500 outlet~;
#X obj 300 200 inlet;
#X msg 250 400 1 1.5;
#X connect 0 0 4 0;
#X connect 0 1 10 0;
#X connect 1 0 3 0;
#X connect 2 0 1 0;
#X connect 3 0 5 0;
#X connect 4 0 2 0;
#X connect 5 0 6 1;
#X connect 5 0 6 0;
#X connect 6 0 8 0;
#X connect 7 0 0 0;
#X connect 9 0 2 1;
#X connect 10 0 5 0;
#X restore 700 600 pd fm_decay;
#X connect 0 0 18 0;
#X connect 1 0 11 0;
#X connect 1 1 9 0;
#X connect 2 0 14 0;
#X connect 3 0 4 0;
#X connect 4 0 2 0;
#X connect 5 0 12 0;
#X connect 6 0 2 0;
#X connect 7 0 8 0;
#X connect 8 0 6 0;
#X connect 9 0 5 0;
#X connect 10 0 3 0;
#X connect 11 0 10 0;
#X connect 12 0 2 0;
#X connect 13 0 15 0;
#X connect 14 0 0 0;
#X connect 15 0 14 1;
#X connect 16 0 1 0;
#X connect 16 0 25 0;
#X connect 18 0 17 0;
#X connect 19 0 9 1;
#X connect 20 0 3 1;
#X connect 21 0 10 1;
#X connect 22 0 15 1;
#X connect 23 0 13 0;
#X connect 24 0 25 1;
#X connect 25 0 18 1;
#X restore 200 500 pd fm;
#N canvas 1320 69 1240 1346 noise 0;
#X obj 300 401 noise~;
#X obj 300 500 *~;
#X obj 500 530 *;
#X obj 300 600 *~;
#X obj 300 450 lop~ 1000;
#X floatatom 500 500 5 0 0 0 - - -, f 5;
#N canvas 80 69 1240 1346 snare_decay 0;
#X obj 200 240 t b b;
#X obj 200 320 pack;
#X obj 200 280 f;
#X msg 200 360 0 \$1;
#X obj 200 400 line~;
#X obj 200 440 *~;
#X msg 240 360 1 0;
#X obj 200 200 inlet;
#X obj 200 500 outlet~;
#X obj 300 200 inlet;
#X connect 0 0 2 0;
#X connect 0 1 6 0;
#X connect 1 0 3 0;
#X connect 2 0 1 0;
#X connect 3 0 4 0;
#X connect 4 0 5 0;
#X connect 4 0 5 1;
#X connect 5 0 8 0;
#X connect 6 0 4 0;
#X connect 7 0 0 0;
#X connect 9 0 2 1;
#X restore 400 400 pd snare_decay;
#X obj 300 200 inlet;
#X obj 500 200 inlet;
#X obj 600 200 inlet;
#X obj 700 200 inlet;
#X obj 300 700 outlet~;
#X connect 0 0 4 0;
#X connect 1 0 3 0;
#X connect 2 0 3 1;
#X connect 3 0 11 0;
#X connect 4 0 1 0;
#X connect 5 0 2 0;
#X connect 5 0 2 1;
#X connect 6 0 1 1;
#X connect 7 0 6 0;
#X connect 8 0 4 1;
#X connect 9 0 6 1;
#X connect 10 0 5 0;
#X restore 500 500 pd noise;
#X text 200 100 original patch is labeled 'FMsnare.pd' in the folder
'PD analogue drums.zip'from user 'nuromantix' in this forum:https://forum.pdpatchrepo.info/topic/9511/looking-for-good-drum-synths/9
;
#X obj 200 900 outlet~;
#X floatatom 400 300 5 0 0 0 - - -, f 5;
#X floatatom 600 300 5 0 0 0 - - -, f 5;
#X floatatom 800 300 5 0 0 0 - - -, f 5;
#X floatatom 1000 300 5 0 0 0 - - -, f 5;
#X floatatom 1200 300 5 0 0 0 - - -, f 5;
#X floatatom 1400 300 5 0 0 0 - - -, f 5;
#X floatatom 1600 300 5 0 0 0 - - -, f 5;
#X floatatom 2000 300 5 0 0 0 - - -, f 5;
#X floatatom 2200 300 5 0 0 0 - - -, f 5;
#X floatatom 1800 300 5 0 0 0 - - -, f 5;
#X obj 400 260 sq/rmp/map 0 127 0 580;
#X obj 800 260 sq/rmp/map 0 127 0 580;
#X obj 1200 260 sq/rmp/map 0 127 0 124;
#X obj 1400 260 sq/rmp/map 0 127 1 126;
#X obj 1600 260 sq/rmp/map 0 127 0 488;
#X obj 1800 260 sq/rmp/map 0 127 0 9510;
#X text 700 100 the snare doesn't make the same sound as the original
and I have no idea why. All the parameters are the same. Maybe it's
because I put eveything inside subpatches?;
#X obj 200 800 *~ 2;
#X connect 10 0 45 0;
#X connect 10 0 46 0;
#X connect 11 0 12 0;
#X connect 12 0 66 0;
#X connect 14 0 15 0;
#X connect 15 0 16 0;
#X connect 15 0 18 0;
#X connect 15 0 26 0;
#X connect 15 0 24 0;
#X connect 15 0 28 0;
#X connect 15 0 30 0;
#X connect 15 0 38 0;
#X connect 15 0 36 0;
#X connect 15 0 34 0;
#X connect 15 0 32 0;
#X connect 16 0 59 0;
#X connect 17 0 16 0;
#X connect 18 0 19 0;
#X connect 19 0 50 0;
#X connect 20 0 18 0;
#X connect 21 0 11 1;
#X connect 21 0 12 1;
#X connect 22 0 21 0;
#X connect 24 0 60 0;
#X connect 25 0 24 0;
#X connect 26 0 41 0;
#X connect 27 0 26 0;
#X connect 28 0 61 0;
#X connect 29 0 28 0;
#X connect 30 0 62 0;
#X connect 31 0 30 0;
#X connect 32 0 42 0;
#X connect 33 0 32 0;
#X connect 34 0 43 0;
#X connect 35 0 34 0;
#X connect 36 0 64 0;
#X connect 37 0 36 0;
#X connect 38 0 63 0;
#X connect 39 0 38 0;
#X connect 41 0 52 0;
#X connect 42 0 57 0;
#X connect 43 0 56 0;
#X connect 44 0 10 0;
#X connect 45 0 11 0;
#X connect 46 0 66 0;
#X connect 49 0 45 1;
#X connect 50 0 45 2;
#X connect 51 0 45 3;
#X connect 52 0 45 4;
#X connect 53 0 45 5;
#X connect 54 0 45 6;
#X connect 55 0 46 1;
#X connect 56 0 46 2;
#X connect 57 0 46 3;
#X connect 58 0 40 0;
#X connect 59 0 49 0;
#X connect 60 0 51 0;
#X connect 61 0 53 0;
#X connect 62 0 54 0;
#X connect 63 0 55 0;
#X connect 64 0 58 0;
#X connect 66 0 48 0;
