#N canvas 1320 69 1240 1346 10;
#X obj 200 950 osc~;
#X obj 600 600 t b b;
#X obj 200 999 *~;
#X obj 600 700 pack;
#X obj 600 670 f;
#X msg 600 730 0 \$1;
#X obj 600 640 del 2;
#X text 640 570 amp decay;
#X obj 600 760 line~;
#X obj 600 800 *~;
#X obj 200 900 line~;
#X obj 200 700 pack;
#X msg 200 730 \$1 \$2;
#X obj 400 730 pack;
#X obj 200 250 bng 15 250 50 0 empty tom_bang empty 17 7 0 10 #fcfcfc
#000000 #000000;
#X msg 100 760 0 0;
#X obj 100 700 loadbang;
#X obj 100 730 del 2;
#X obj 400 700 f;
#X obj 200 600 f;
#X obj 200 500 del 1;
#X msg 400 755 \$1 0;
#X msg 640 700 1 1.5;
#X obj 200 1100 hip~ 400;
#X obj 200 1130 hip~ 400;
#X text 300 970 HPF;
#X obj 500 200 inlet;
#X obj 700 200 inlet;
#X obj 500 300 hsl 128 15 0 127 0 0 empty empty empty -2 -8 0 10 #fcfcfc
#000000 #000000 6400 1;
#X obj 700 300 hsl 128 15 0 127 0 0 empty empty empty -2 -8 0 10 #fcfcfc
#000000 #000000 6400 1;
#X obj 600 200 loadbang;
#X obj 900 200 inlet;
#X obj 900 300 hsl 128 15 0 127 0 0 empty empty empty -2 -8 0 10 #fcfcfc
#000000 #000000 6400 1;
#X obj 1100 200 inlet;
#X obj 1100 300 hsl 128 15 0 127 0 0 empty empty empty -2 -8 0 10 #fcfcfc
#000000 #000000 6400 1;
#X msg 600 240 64;
#X obj 1300 200 inlet;
#X obj 1300 300 hsl 128 15 0 127 0 0 empty empty empty -2 -8 0 10 #fcfcfc
#000000 #000000 6400 1;
#X text 500 170 Start Pitch;
#X text 700 170 Fall Time;
#X text 900 170 End Pitch;
#X text 1100 170 Amp Deccay;
#X text 1300 170 HPF;
#X obj 500 350 sq/rmp/map 0 127 0 500;
#X obj 700 350 sq/rmp/map 0 127 150 550;
#X obj 900 350 sq/rmp/map 0 127 0 140;
#X obj 1100 350 sq/rmp/map 0 127 5 1400;
#X obj 1300 350 sq/rmp/map 0 127 0 500;
#X obj 500 400 s \$0-tom_max_pitch;
#X obj 700 400 s \$0-tom_fall_time;
#X obj 900 400 s \$0-tom_end_pitch;
#X obj 1100 400 s \$0-tom_amp_decay;
#X obj 1300 400 s \$0-tom_hpf;
#X floatatom 640 640 5 0 0 0 - - -, f 5;
#X obj 640 600 r \$0-tom_amp_decay;
#X floatatom 300 1030 5 0 0 0 - - -, f 5;
#X obj 300 1000 r \$0-tom_hpf;
#X obj 200 1200 outlet~;
#X floatatom 440 670 5 0 0 0 - - -, f 5;
#X text 440 610 max pitch;
#X obj 440 640 r \$0-tom_max_pitch;
#X floatatom 250 670 5 0 0 0 - - -, f 5;
#X obj 250 640 r \$0-tom_fall_time;
#X text 250 610 fall time;
#X floatatom 250 560 5 0 0 0 - - -, f 5;
#X text 250 500 end pitch;
#X obj 250 530 r \$0-tom_end_pitch;
#X obj 200 200 inlet;
#X text 200 100 original patch is labeled 'tom.pd' in the folder 'PD
analogue drums.zip'from user 'nuromantix' in this forum:https://forum.pdpatchrepo.info/topic/9511/looking-for-good-drum-synths/9
;
#X obj 200 300 t b b b;
#X connect 0 0 2 0;
#X connect 1 0 6 0;
#X connect 1 1 22 0;
#X connect 2 0 23 0;
#X connect 3 0 5 0;
#X connect 4 0 3 0;
#X connect 5 0 8 0;
#X connect 6 0 4 0;
#X connect 8 0 9 1;
#X connect 8 0 9 0;
#X connect 9 0 2 1;
#X connect 10 0 0 0;
#X connect 11 0 12 0;
#X connect 12 0 10 0;
#X connect 13 0 21 0;
#X connect 14 0 69 0;
#X connect 15 0 10 0;
#X connect 16 0 17 0;
#X connect 17 0 15 0;
#X connect 18 0 13 0;
#X connect 19 0 11 0;
#X connect 20 0 19 0;
#X connect 21 0 10 0;
#X connect 22 0 8 0;
#X connect 23 0 24 0;
#X connect 24 0 57 0;
#X connect 26 0 28 0;
#X connect 27 0 29 0;
#X connect 28 0 43 0;
#X connect 29 0 44 0;
#X connect 30 0 35 0;
#X connect 31 0 32 0;
#X connect 32 0 45 0;
#X connect 33 0 34 0;
#X connect 34 0 46 0;
#X connect 35 0 28 0;
#X connect 35 0 29 0;
#X connect 35 0 32 0;
#X connect 35 0 34 0;
#X connect 35 0 37 0;
#X connect 36 0 37 0;
#X connect 37 0 47 0;
#X connect 43 0 48 0;
#X connect 44 0 49 0;
#X connect 45 0 50 0;
#X connect 46 0 51 0;
#X connect 47 0 52 0;
#X connect 53 0 4 1;
#X connect 54 0 53 0;
#X connect 55 0 24 1;
#X connect 55 0 23 1;
#X connect 56 0 55 0;
#X connect 58 0 18 1;
#X connect 60 0 58 0;
#X connect 61 0 11 1;
#X connect 62 0 61 0;
#X connect 64 0 19 1;
#X connect 66 0 64 0;
#X connect 67 0 14 0;
#X connect 69 0 20 0;
#X connect 69 1 18 0;
#X connect 69 2 1 0;
