#N canvas 1320 69 1240 1346 10;
#X obj 700 1400 outlet~;
#X obj 700 500 loadbang;
#X obj 700 560 /;
#N canvas 80 69 1240 1346 allpass100ms 0;
#X obj 200 200 inlet~;
#X obj 200 361 +~;
#X obj 240 330 *~;
#X obj 600 200 inlet;
#X obj 600 230 * -1;
#X obj 440 470 *~;
#X obj 400 500 +~;
#X obj 400 600 outlet~;
#X text 200 530 0 - 100 mSec allpass;
#X text 600 170 gain;
#X text 300 170 time;
#X text 200 170 sound;
#X obj 200 500 delwrite~ \$0-short-4 100;
#X obj 500 200 inlet;
#X msg 500 230 clear;
#X obj 300 200 inlet;
#X obj 300 230 delread~ \$0-short-4;
#X connect 0 0 1 0;
#X connect 1 0 5 0;
#X connect 1 0 12 0;
#X connect 2 0 1 1;
#X connect 3 0 2 1;
#X connect 3 0 4 0;
#X connect 4 0 5 1;
#X connect 5 0 6 1;
#X connect 6 0 7 0;
#X connect 13 0 14 0;
#X connect 14 0 12 0;
#X connect 15 0 16 0;
#X connect 16 0 2 0;
#X connect 16 0 6 0;
#X restore 700 900 pd allpass100ms;
#X obj 400 600 vline~;
#X obj 400 500 r \$0-hht-trg;
#X obj 500 600 r \$0-hht-trg;
#X msg 500 630 seed 1234;
#X obj 500 660 noise~;
#X obj 400 740 *~;
#X obj 1020 730 r \$0-hht-trg;
#X msg 1000 1000 clear;
#X obj 810 800 loadbang;
#X msg 730 860 1000 \$1;
#X obj 730 880 /;
#N canvas 1320 69 1240 1346 allpass100ms 0;
#X obj 200 200 inlet~;
#X obj 200 360 +~;
#X obj 240 330 *~;
#X obj 600 200 inlet;
#X obj 600 230 * -1;
#X obj 440 470 *~;
#X obj 400 500 +~;
#X obj 400 600 outlet~;
#X text 202 532 0 - 100 mSec allpass;
#X text 600 170 gain;
#X text 300 170 time;
#X text 200 170 sound;
#X obj 500 200 inlet;
#X msg 500 230 clear;
#X obj 300 200 inlet;
#X obj 200 500 delwrite~ \$0-short-3 100;
#X obj 300 230 delread~ \$0-short-3;
#X connect 0 0 1 0;
#X connect 1 0 5 0;
#X connect 1 0 15 0;
#X connect 2 0 1 1;
#X connect 3 0 2 1;
#X connect 3 0 4 0;
#X connect 4 0 5 1;
#X connect 5 0 6 1;
#X connect 6 0 7 0;
#X connect 12 0 13 0;
#X connect 13 0 15 0;
#X connect 14 0 16 0;
#X connect 16 0 2 0;
#X connect 16 0 6 0;
#X restore 700 1000 pd allpass100ms;
#X obj 810 900 loadbang;
#X msg 730 960 1000 \$1;
#X obj 730 980 /;
#N canvas 80 69 1240 1346 allpass100ms 0;
#X obj 200 200 inlet~;
#X obj 200 360 +~;
#X obj 240 330 *~;
#X obj 600 200 inlet;
#X obj 600 230 * -1;
#X obj 440 470 *~;
#X obj 400 500 +~;
#X obj 400 600 outlet~;
#X text 200 530 0 - 100 mSec allpass;
#X text 600 170 gain;
#X text 300 170 time;
#X text 200 170 sound;
#X obj 500 200 inlet;
#X msg 500 230 clear;
#X obj 300 200 inlet;
#X obj 200 500 delwrite~ \$0-short-2 100;
#X obj 300 230 delread~ \$0-short-2;
#X connect 0 0 1 0;
#X connect 1 0 5 0;
#X connect 1 0 15 0;
#X connect 2 0 1 1;
#X connect 3 0 2 1;
#X connect 3 0 4 0;
#X connect 4 0 5 1;
#X connect 5 0 6 1;
#X connect 6 0 7 0;
#X connect 12 0 13 0;
#X connect 13 0 15 0;
#X connect 14 0 16 0;
#X connect 16 0 2 0;
#X connect 16 0 6 0;
#X restore 700 1100 pd allpass100ms;
#X obj 810 1000 loadbang;
#X msg 730 1060 1000 \$1;
#X obj 730 1080 /;
#X msg 700 530 1000 1142;
#X obj 100 600 vline~;
#X obj 100 740 *~;
#X msg 730 940 647;
#X obj 700 865 +~;
#X msg 730 1040 806;
#X obj 700 620 *~ 0.5;
#X obj 900 500 r \$0-ohh-trg;
#X obj 100 500 r \$0-ohh-trg;
#X msg 760 1040 -0.5;
#X msg 760 940 0.55;
#X obj 100 640 pow~ 6;
#X msg 900 530 0.9;
#X msg 1000 530 0.7;
#X msg 100 570 1 10 \, 0 2500 10;
#X obj 1000 1100 env~;
#X obj 1000 1130 change;
#X obj 1000 1160 sel 0;
#X msg 1000 1190 0;
#X msg 1050 1000 1;
#X obj 1000 1220 switch~ 1 1 1;
#X obj 1000 500 r \$0-hht-trg;
#X obj 1000 700 r \$0-ohh-trg;
#X msg 400 570 0.95 4 \, 0 50 4;
#X obj 700 590 delread~ \$0-hih-1;
#X obj 800 1300 delwrite~ \$0-hih-1;
#X obj 400 640 pow~ 6;
#X msg 730 840 1531;
#X msg 160 640 clear;
#X msg 210 570 1 10 \, 0 150 10;
#X obj 100 680 lop~ 5;
#X msg 500 570 1 1 \, 0 \$2 1;
#X obj 400 530 pack f f;
#X msg 770 840 0.5;
#X obj 100 800 hip~ 11025;
#X obj 400 800 hip~ 8820;
#X obj 150 710 pow~ 60;
#X obj 100 830 hip~ 4410;
#X obj 700 1200 lop~ 6500;
#X obj 700 1230 hip~ 200;
#X obj 700 1260 hip~ 100;
#X obj 2737 2367 f;
#X obj 1000 800 bng 15 250 50 0 empty empty empty 17 7 0 10 #fcfcfc
#000000 #000000;
#X obj 100 400 s \$0-hht-trg;
#X obj 300 400 s \$0-ohh-trg;
#X obj 100 300 sq/if/equal_to 1;
#X obj 300 300 sq/if/equal_to 2;
#X floatatom 100 250 5 0 0 0 - - -, f 5;
#X obj 100 200 inlet;
#X text 100 100 this abstraction sends a closed hi-hat if sent a 1
\, and an open hi-hat if sent a 2;
#X text 500 100 original patch from here:https://github.com/MikeMorenoDSP/pd-mkmr/blob/master/instruments/hihat~.pd
;
#X floatatom 600 550 5 0 0 0 - - -, f 5;
#X obj 600 500 loadbang;
#X msg 600 525 80;
#X obj 300 350 bng 15 250 50 0 empty empty empty 17 7 0 10 #fcfcfc
#000000 #000000;
#X obj 100 350 bng 15 250 50 0 empty empty empty 17 7 0 10 #fcfcfc
#000000 #000000;
#X text 320 350 <- Open Hihat;
#X text 120 350 <- Closed Hihat;
#X obj 700 1340 *~ 0.7;
#X connect 1 0 23 0;
#X connect 2 0 47 0;
#X connect 3 0 15 0;
#X connect 4 0 49 0;
#X connect 5 0 52 0;
#X connect 5 0 51 0;
#X connect 5 0 55 0;
#X connect 6 0 7 0;
#X connect 7 0 8 0;
#X connect 8 0 9 1;
#X connect 8 0 59 0;
#X connect 9 0 58 0;
#X connect 10 0 65 0;
#X connect 11 0 62 0;
#X connect 11 0 61 0;
#X connect 11 0 63 0;
#X connect 11 0 48 0;
#X connect 12 0 50 0;
#X connect 12 0 56 0;
#X connect 13 0 14 0;
#X connect 14 0 3 1;
#X connect 15 0 19 0;
#X connect 16 0 26 0;
#X connect 16 0 33 0;
#X connect 17 0 18 0;
#X connect 18 0 15 1;
#X connect 19 0 61 0;
#X connect 20 0 28 0;
#X connect 20 0 32 0;
#X connect 21 0 22 0;
#X connect 22 0 19 1;
#X connect 23 0 2 0;
#X connect 24 0 34 0;
#X connect 25 0 57 0;
#X connect 26 0 17 0;
#X connect 27 0 3 0;
#X connect 28 0 21 0;
#X connect 29 0 27 1;
#X connect 30 0 35 0;
#X connect 31 0 37 0;
#X connect 31 0 46 0;
#X connect 31 0 51 0;
#X connect 32 0 19 2;
#X connect 33 0 15 2;
#X connect 34 0 53 0;
#X connect 35 0 29 1;
#X connect 36 0 29 1;
#X connect 37 0 24 0;
#X connect 38 0 39 0;
#X connect 39 0 40 0;
#X connect 40 0 41 0;
#X connect 41 0 43 0;
#X connect 42 0 43 0;
#X connect 44 0 36 0;
#X connect 45 0 65 0;
#X connect 46 0 4 0;
#X connect 47 0 29 0;
#X connect 49 0 9 0;
#X connect 50 0 13 0;
#X connect 51 0 53 0;
#X connect 52 0 24 0;
#X connect 53 0 25 0;
#X connect 54 0 4 0;
#X connect 55 0 54 0;
#X connect 56 0 3 3;
#X connect 57 0 60 0;
#X connect 58 0 60 0;
#X connect 59 0 25 1;
#X connect 60 0 27 0;
#X connect 61 0 62 0;
#X connect 62 0 63 0;
#X connect 63 0 38 0;
#X connect 63 0 48 0;
#X connect 63 0 81 0;
#X connect 65 0 3 2;
#X connect 65 0 15 3;
#X connect 65 0 19 3;
#X connect 65 0 11 0;
#X connect 65 0 42 0;
#X connect 68 0 78 0;
#X connect 69 0 77 0;
#X connect 70 0 69 1;
#X connect 70 0 68 1;
#X connect 71 0 70 0;
#X connect 74 0 55 1;
#X connect 75 0 76 0;
#X connect 76 0 74 0;
#X connect 77 0 67 0;
#X connect 78 0 66 0;
#X connect 81 0 0 0;
