#N canvas 1281 291 1098 1078 12;
#X text 200 160 tutorial: https://www.youtube.com/watch?v=ENMlT1Ar5L0
;
#X obj 200 200 loadbang;
#X obj 200 300 *~ 2;
#N canvas 727 559 703 633 square 0;
#X obj 200 200 inlet~;
#X obj 200 270 phasor~;
#X obj 200 310 expr~ if($v1>0.5 \, 1 \, 0);
#X obj 200 400 outlet~;
#X connect 0 0 1 0;
#X connect 1 0 2 0;
#X connect 2 0 3 0;
#X restore 200 330 pd square;
#X obj 200 900 outlet~;
#X msg 200 229 40;
#N canvas 727 548 703 633 square 0;
#X obj 200 200 inlet~;
#X obj 200 270 phasor~;
#X obj 200 310 expr~ if($v1>0.5 \, 1 \, 0);
#X obj 200 400 outlet~;
#X connect 0 0 1 0;
#X connect 1 0 2 0;
#X connect 2 0 3 0;
#X restore 300 330 pd square;
#X obj 300 300 *~ 3;
#N canvas 727 548 703 633 square 0;
#X obj 200 200 inlet~;
#X obj 200 270 phasor~;
#X obj 200 310 expr~ if($v1>0.5 \, 1 \, 0);
#X obj 200 400 outlet~;
#X connect 0 0 1 0;
#X connect 1 0 2 0;
#X connect 2 0 3 0;
#X restore 400 330 pd square;
#X obj 400 300 *~ 4.16;
#N canvas 727 548 703 633 square 0;
#X obj 200 200 inlet~;
#X obj 200 270 phasor~;
#X obj 200 310 expr~ if($v1>0.5 \, 1 \, 0);
#X obj 200 400 outlet~;
#X connect 0 0 1 0;
#X connect 1 0 2 0;
#X connect 2 0 3 0;
#X restore 500 330 pd square;
#X obj 500 300 *~ 5.43;
#N canvas 727 548 703 633 square 0;
#X obj 200 200 inlet~;
#X obj 200 270 phasor~;
#X obj 200 310 expr~ if($v1>0.5 \, 1 \, 0);
#X obj 200 400 outlet~;
#X connect 0 0 1 0;
#X connect 1 0 2 0;
#X connect 2 0 3 0;
#X restore 600 330 pd square;
#X obj 600 300 *~ 6.79;
#N canvas 727 548 703 633 square 0;
#X obj 200 200 inlet~;
#X obj 200 270 phasor~;
#X obj 200 310 expr~ if($v1>0.5 \, 1 \, 0);
#X obj 200 400 outlet~;
#X connect 0 0 1 0;
#X connect 1 0 2 0;
#X connect 2 0 3 0;
#X restore 700 330 pd square;
#X obj 700 300 *~ 8.12;
#X obj 200 529 hip~ 7000;
#X obj 200 558 hip~ 7000;
#X obj 200 587 hip~ 7000;
#X obj 200 616 hip~ 7000;
#X obj 800 500 bng 15 250 50 0 empty empty empty 17 7 0 10 #fcfcfc
#000000 #000000;
#X obj 900 500 bng 15 250 50 0 empty empty empty 17 7 0 10 #fcfcfc
#000000 #000000;
#X msg 800 600 1 2 \, 0 90 2;
#X obj 800 640 vline~;
#X obj 800 680 pow~ 4;
#X msg 840 550 0 4, f 4;
#X obj 900 640 vline~;
#X obj 900 680 pow~ 4;
#X msg 900 600 1 2 \, 0.7 540 2 \, 0 90 542;
#X obj 200 800 *~;
#X obj 200 500 bp~ 10000 20;
#X obj 800 300 sq/if/equal_to 1;
#X obj 930 300 sq/if/equal_to 2;
#X floatatom 798 250 5 0 0 0 - - -, f 5;
#X obj 798 201 inlet;
#X text 200 100 this abstraction sends a closed hi-hat if sent a 1
\, and an open hi-hat if sent a 2;
#X obj 200 850 *~ 7;
#X connect 1 0 5 0;
#X connect 2 0 3 0;
#X connect 3 0 30 0;
#X connect 5 0 2 0;
#X connect 5 0 7 0;
#X connect 5 0 9 0;
#X connect 5 0 11 0;
#X connect 5 0 13 0;
#X connect 5 0 15 0;
#X connect 6 0 30 0;
#X connect 7 0 6 0;
#X connect 8 0 30 0;
#X connect 9 0 8 0;
#X connect 10 0 30 0;
#X connect 11 0 10 0;
#X connect 12 0 30 0;
#X connect 13 0 12 0;
#X connect 14 0 30 0;
#X connect 15 0 14 0;
#X connect 16 0 17 0;
#X connect 17 0 18 0;
#X connect 18 0 19 0;
#X connect 19 0 29 0;
#X connect 20 0 22 0;
#X connect 20 0 25 0;
#X connect 21 0 28 0;
#X connect 22 0 23 0;
#X connect 23 0 24 0;
#X connect 24 0 29 1;
#X connect 25 0 26 0;
#X connect 26 0 27 0;
#X connect 27 0 29 1;
#X connect 28 0 26 0;
#X connect 29 0 36 0;
#X connect 30 0 16 0;
#X connect 31 0 20 0;
#X connect 32 0 21 0;
#X connect 33 0 32 1;
#X connect 33 0 31 1;
#X connect 34 0 33 0;
#X connect 36 0 4 0;
