#N canvas 1285 78 1265 1288 10;
#X obj 200 200 inlet~;
#X obj 200 1100 outlet~;
#X obj 250 710 expr~ round($v1 / $f2);
#X obj 250 750 *~;
#X obj 400 606 expr pow(2 \, $f1) - 1;
#X floatatom 400 631 5 0 0 0 - - -, f 5;
#X obj 400 655 expr 1 / $f1;
#X floatatom 400 680 12 0 0 0 - - -, f 12;
#X text 450 631 <- resolution;
#X text 450 582 <- bit depth;
#X floatatom 400 330 5 0 0 0 - - -, f 5;
#X obj 400 360 hradio 15 0 0 31 empty empty empty 0 -8 0 10 #fcfcfc
#000000 #000000 30;
#X msg 400 460 2;
#X obj 2200 710 f;
#X msg 430 460 2.1;
#X msg 460 460 2.2;
#X msg 490 460 2.3;
#X msg 520 460 2.4;
#X msg 550 460 2.5;
#X msg 580 460 2.7;
#X msg 610 460 2.9;
#X msg 640 460 3.1;
#X msg 670 460 3.3;
#X msg 700 460 3.5;
#X msg 730 460 3.8;
#X msg 760 460 4.1;
#X msg 790 460 4.4;
#X msg 820 460 4.7;
#X msg 850 460 5.1;
#X msg 880 460 5.5;
#X msg 910 460 5.9;
#X msg 940 460 6.4;
#X msg 970 460 6.9;
#X msg 1000 460 7.4;
#X msg 1030 460 8;
#X msg 1060 460 8.6;
#X msg 1090 460 9.3;
#X msg 1120 460 9.9;
#X msg 1150 460 10.7;
#X msg 1190 460 11.4;
#X msg 1230 460 12;
#X msg 1260 460 13;
#X msg 1290 460 14;
#X msg 1320 460 15;
#X msg 1350 460 16;
#X obj 400 390 route 0 1 2 3 4 5 6 7 8 9 10 11 12 13 14 15 16 17 18
19 20 21 22 23 24 25 26 27 28 29 30 31;
#X obj 400 200 inlet;
#X obj 400 300 int;
#X floatatom 400 580 6 0 0 0 - - -, f 6;
#X text 200 100 this abstraction is a bitcruncher;
#X text 700 100 tutorial here: https://www.youtube.com/watch?v=YmSQ-AMS860
;
#X obj 600 200 loadbang;
#X obj 200 900 sq/logic/bypass~;
#X obj 300 800 tgl 15 0 empty empty empty 17 7 0 10 #fcfcfc #000000
#000000 0 127;
#X text 200 130 I tried to copy the knob progression from the terminal/BITS
effect on the OP-1 Field \, but it's not algorithmically linear \,
so I had to make all the boxes you see. Oh \, also \, I made 16 bit
a passthrough because at that point \, you might as well be using 32
bit or whatever puredata uses these days, f 78;
#X obj 400 270 sq/rmp/map 0 127 31 0;
#X msg 600 300 31;
#X connect 0 0 2 0;
#X connect 0 0 52 0;
#X connect 2 0 3 0;
#X connect 3 0 52 1;
#X connect 4 0 5 0;
#X connect 5 0 6 0;
#X connect 6 0 7 0;
#X connect 7 0 2 1;
#X connect 7 0 3 1;
#X connect 10 0 11 0;
#X connect 11 0 45 0;
#X connect 12 0 48 0;
#X connect 14 0 48 0;
#X connect 15 0 48 0;
#X connect 16 0 48 0;
#X connect 17 0 48 0;
#X connect 18 0 48 0;
#X connect 19 0 48 0;
#X connect 20 0 48 0;
#X connect 21 0 48 0;
#X connect 22 0 48 0;
#X connect 23 0 48 0;
#X connect 24 0 48 0;
#X connect 25 0 48 0;
#X connect 26 0 48 0;
#X connect 27 0 48 0;
#X connect 28 0 48 0;
#X connect 29 0 48 0;
#X connect 30 0 48 0;
#X connect 31 0 48 0;
#X connect 32 0 48 0;
#X connect 33 0 48 0;
#X connect 34 0 48 0;
#X connect 35 0 48 0;
#X connect 36 0 48 0;
#X connect 37 0 48 0;
#X connect 38 0 48 0;
#X connect 39 0 48 0;
#X connect 40 0 48 0;
#X connect 41 0 48 0;
#X connect 42 0 48 0;
#X connect 43 0 48 0;
#X connect 44 0 48 0;
#X connect 45 0 12 0;
#X connect 45 1 14 0;
#X connect 45 2 15 0;
#X connect 45 3 16 0;
#X connect 45 4 17 0;
#X connect 45 5 18 0;
#X connect 45 6 19 0;
#X connect 45 7 20 0;
#X connect 45 8 21 0;
#X connect 45 9 22 0;
#X connect 45 10 23 0;
#X connect 45 11 24 0;
#X connect 45 12 25 0;
#X connect 45 13 26 0;
#X connect 45 14 27 0;
#X connect 45 15 28 0;
#X connect 45 16 29 0;
#X connect 45 17 30 0;
#X connect 45 18 31 0;
#X connect 45 19 32 0;
#X connect 45 20 33 0;
#X connect 45 21 34 0;
#X connect 45 22 35 0;
#X connect 45 23 36 0;
#X connect 45 24 37 0;
#X connect 45 25 38 0;
#X connect 45 25 39 0;
#X connect 45 26 40 0;
#X connect 45 27 41 0;
#X connect 45 28 42 0;
#X connect 45 29 43 0;
#X connect 45 30 44 0;
#X connect 46 0 53 0;
#X connect 46 0 55 0;
#X connect 47 0 10 0;
#X connect 48 0 4 0;
#X connect 51 0 56 0;
#X connect 52 0 1 0;
#X connect 53 0 52 2;
#X connect 55 0 47 0;
#X connect 56 0 10 0;
