#N canvas 80 69 1240 1346 10;
#X obj 200 200 inlet~;
#X obj 200 1000 outlet~;
#X obj 400 200 inlet;
#X obj 400 700 clip~;
#X floatatom 500 500 5 0 0 0 - - -, f 5;
#X floatatom 700 500 5 0 0 0 - - -, f 5;
#X text 200 100 this abstraction clips the incoming audio;
#X obj 400 260 hsl 128 15 0 127 0 0 empty empty empty -2 -8 0 10 #fcfcfc
#000000 #000000 0 1;
#X obj 1000 1600 f;
#X obj 500 400 sq/rmp/map 0 127 -1 0;
#X obj 700 400 sq/rmp/map 0 127 1 0;
#X floatatom 400 340 5 0 0 0 - - -, f 5;
#X obj 400 300 clip 0 126.95;
#X obj 200 900 sq/logic/bypass~;
#X obj 400 800 expr~ $v1 * pow(1 - ($f2/127) \, -1);
#X text 630 800 <- volume compensation;
#X text 320 900 <- bypass because clip~ has no passive mode;
#X connect 0 0 3 0;
#X connect 0 0 13 0;
#X connect 2 0 7 0;
#X connect 3 0 14 0;
#X connect 4 0 3 1;
#X connect 5 0 3 2;
#X connect 7 0 12 0;
#X connect 9 0 4 0;
#X connect 10 0 5 0;
#X connect 11 0 9 0;
#X connect 11 0 10 0;
#X connect 11 0 13 2;
#X connect 11 0 14 1;
#X connect 12 0 11 0;
#X connect 13 0 1 0;
#X connect 14 0 13 1;
