#N canvas 80 69 1240 1346 10;
#X obj 200 200 inlet~;
#X obj 200 800 outlet~;
#X obj 400 200 inlet;
#X obj 300 600 clip~;
#X floatatom 400 500 5 0 0 0 - - -, f 5;
#X floatatom 600 500 5 0 0 0 - - -, f 5;
#X text 200 100 this abstraction clips the incoming audio;
#X obj 400 250 hsl 128 15 0 127 0 0 empty empty empty -2 -8 0 10 #fcfcfc
#000000 #000000 0 1;
#X obj 1000 1600 f;
#X obj 400 400 sq/rmp/map 0 127 -1 0;
#X obj 600 400 sq/rmp/map 0 127 1 0;
#X floatatom 400 350 5 0 0 0 - - -, f 5;
#X obj 200 700 sq/logic/bypass~;
#X text 320 700 <- bypass because clip~ has no passive mode;
#X obj 400 300 sq/rmp/map 0 127 0 126;
#X connect 0 0 3 0;
#X connect 0 0 12 0;
#X connect 2 0 7 0;
#X connect 3 0 12 1;
#X connect 4 0 3 1;
#X connect 5 0 3 2;
#X connect 7 0 14 0;
#X connect 9 0 4 0;
#X connect 10 0 5 0;
#X connect 11 0 9 0;
#X connect 11 0 10 0;
#X connect 11 0 12 2;
#X connect 12 0 1 0;
#X connect 14 0 11 0;
