#N canvas 1179 473 1278 668 12;
#X obj 200 200 inlet~;
#X obj 300 400 osc~;
#X obj 200 750 outlet~;
#X obj 400 300 hsl 128 15 0 0.5 0 0 empty empty empty -2 -8 0 10 #fcfcfc
#000000 #000000 0 1;
#X obj 400 500 hsl 128 15 0 1.6 0 0 empty empty empty -2 -8 0 10 #fcfcfc
#000000 #000000 0 1;
#X obj 300 600 *~ 1;
#X floatatom 400 540 5 0 0 0 - - -, f 5;
#X floatatom 400 340 5 0 0 0 - - -, f 5;
#X obj 1000 200 inlet;
#X text 200 100 this abstaction is a basic distortion filter thing
;
#X text 550 300 <- IDK how this works. All I know is that this range
is the only range that matters;
#X obj 1000 380 sq/logic/map 0 64 0 1.6;
#X text 560 500 <- this is a weird one. 0-1 are audible \, but after
1 (1-1.6) \, the audio gets harder to hear \, but if you pass the audio
through some other filter later \, it'll hear it just fine;
#X text 200 140 try pairing it with the oscilloscope. for some reason
\, it moves the entire image up or down;
#X connect 0 0 2 0;
#X connect 0 0 1 0;
#X connect 1 0 5 0;
#X connect 3 0 7 0;
#X connect 4 0 6 0;
#X connect 5 0 2 0;
#X connect 6 0 5 1;
#X connect 7 0 1 1;
#X connect 8 0 11 0;
#X connect 11 0 4 0;
