#N canvas 957 254 1512 1021 10;
#X obj 200 500 outlet~;
#X obj 260 300 bp~ 1250 0.83;
#X obj 200 200 inlet~;
#X text 200 100 this simple filter thing applies the same "green" bandpass
filter found in the sq/synth/noise/green~ noise generator. maybe it'll
help incoming sounds sound more natural.;
#X obj 200 400 sq/logic/crossfade~;
#X obj 400 200 inlet;
#X obj 400 230 hsl 128 15 0 127 0 0 empty empty empty -2 -8 0 10 #fcfcfc
#000000 #000000 0 1;
#X floatatom 400 260 5 0 0 0 - - -, f 5;
#X connect 1 0 4 1;
#X connect 2 0 1 0;
#X connect 2 0 4 0;
#X connect 4 0 0 0;
#X connect 5 0 6 0;
#X connect 6 0 7 0;
#X connect 7 0 4 2;
