#N canvas 1281 25 1279 1305 12;
#X obj 300 910 samphold~;
#X obj 200 200 inlet~;
#X obj 200 1290 outlet~;
#X obj 500 650 phasor~ 20000;
#X text 550 622 <- bit depth;
#X floatatom 500 330 5 0 0 0 - - -, f 5;
#X obj 500 360 hradio 15 0 0 34 empty empty empty 0 -8 0 10 #fcfcfc
#000000 #000000 33;
#X obj 2533 1372 f;
#X obj 500 200 inlet;
#X obj 500 300 int;
#X floatatom 500 620 6 0 0 0 - - -, f 6;
#X obj 700 200 loadbang;
#X msg 500 500 100;
#X msg 529 500 150;
#X msg 558 500 220;
#X msg 587 500 310;
#X msg 616 500 410;
#X msg 645 500 540;
#X msg 674 500 700;
#X msg 703 500 870;
#X msg 732 500 1000;
#X msg 768 500 1300;
#X msg 804 500 1500;
#X msg 840 500 1800;
#X msg 876 500 2200;
#X msg 912 500 2600;
#X msg 948 500 3000;
#X msg 984 500 3400;
#X msg 1020 500 4000;
#X msg 1056 500 4500;
#X msg 1092 500 5100;
#X msg 1128 500 5800;
#X msg 1164 500 6500;
#X msg 1200 500 7200;
#X msg 1236 500 8100;
#X msg 1272 500 8900;
#X msg 1308 500 9900;
#X msg 1344 500 10900;
#X msg 1387 500 102000;
#X msg 1437 500 13100;
#X msg 1480 500 14300;
#X msg 1523 500 15600;
#X msg 1566 500 17000;
#X msg 1609 500 18400;
#X msg 1652 500 19900;
#X msg 1695 500 20000;
#X obj 500 430 route 0 1 2 3 4 5 6 7 8 9 10 11 12 13 14 15 16 17 18
19 20 21 22 23 24 25 26 27 28 29 30 31 32 33;
#X obj 200 1100 sq/logic/bypass~;
#X obj 410 990 tgl 15 0 empty empty empty 17 7 0 10 #fcfcfc #000000
#000000 0 94.5;
#X obj 500 270 sq/logic/map 0 127 33 0;
#X obj 700 300 float 33;
#X floatatom 410 270 5 0 0 0 - - -, f 5;
#X text 200 100 this abstraction is HZ based bitcruncher;
#X text 330 1100 <- there's still some noise at the highest possible
bitcruncher setting \, so I made this thing to just disable the filter
when the knob is down all the way;
#X text 200 130 I tried to copy the knob progression from the terminal/HZ
effect on the OP-1 Field \, but it's not algorithmically linear \,
so I had to make all the boxes you see below;
#X connect 0 0 47 1;
#X connect 1 0 0 0;
#X connect 1 0 47 0;
#X connect 3 0 0 1;
#X connect 5 0 6 0;
#X connect 6 0 46 0;
#X connect 8 0 49 0;
#X connect 8 0 51 0;
#X connect 9 0 5 0;
#X connect 10 0 3 0;
#X connect 11 0 50 0;
#X connect 12 0 10 0;
#X connect 13 0 10 0;
#X connect 14 0 10 0;
#X connect 15 0 10 0;
#X connect 16 0 10 0;
#X connect 17 0 10 0;
#X connect 18 0 10 0;
#X connect 19 0 10 0;
#X connect 20 0 10 0;
#X connect 21 0 10 0;
#X connect 22 0 10 0;
#X connect 23 0 10 0;
#X connect 24 0 10 0;
#X connect 25 0 10 0;
#X connect 26 0 10 0;
#X connect 27 0 10 0;
#X connect 28 0 10 0;
#X connect 29 0 10 0;
#X connect 30 0 10 0;
#X connect 31 0 10 0;
#X connect 32 0 10 0;
#X connect 33 0 10 0;
#X connect 34 0 10 0;
#X connect 35 0 10 0;
#X connect 36 0 10 0;
#X connect 37 0 10 0;
#X connect 38 0 10 0;
#X connect 39 0 10 0;
#X connect 40 0 10 0;
#X connect 41 0 10 0;
#X connect 42 0 10 0;
#X connect 43 0 10 0;
#X connect 44 0 10 0;
#X connect 45 0 10 0;
#X connect 46 0 12 0;
#X connect 46 1 13 0;
#X connect 46 2 14 0;
#X connect 46 3 15 0;
#X connect 46 4 16 0;
#X connect 46 5 17 0;
#X connect 46 6 18 0;
#X connect 46 7 19 0;
#X connect 46 8 20 0;
#X connect 46 9 21 0;
#X connect 46 10 22 0;
#X connect 46 11 23 0;
#X connect 46 12 24 0;
#X connect 46 13 25 0;
#X connect 46 14 26 0;
#X connect 46 15 27 0;
#X connect 46 16 28 0;
#X connect 46 17 29 0;
#X connect 46 18 30 0;
#X connect 46 19 31 0;
#X connect 46 20 32 0;
#X connect 46 21 33 0;
#X connect 46 22 34 0;
#X connect 46 23 35 0;
#X connect 46 24 36 0;
#X connect 46 25 37 0;
#X connect 46 25 38 0;
#X connect 46 26 39 0;
#X connect 46 27 40 0;
#X connect 46 28 41 0;
#X connect 46 29 42 0;
#X connect 46 30 43 0;
#X connect 46 31 44 0;
#X connect 46 32 45 0;
#X connect 47 0 2 0;
#X connect 48 0 47 2;
#X connect 49 0 9 0;
#X connect 50 0 5 0;
#X connect 51 0 48 0;
