#N canvas 136 69 1119 1170 10;
#X obj 500 500 phasor~;
#X obj 300 630 cos~;
#X obj 300 660 +~ 1;
#X obj 300 690 *~ 0.5;
#X obj 300 730 *~;
#X obj 500 630 cos~;
#X obj 500 660 +~ 1;
#X obj 500 690 *~ 0.5;
#X obj 500 730 *~;
#X obj 700 630 cos~;
#X obj 700 660 +~ 1;
#X obj 700 690 *~ 0.5;
#X obj 700 730 *~;
#X obj 700 600 +~ 0.66;
#X obj 300 760 vd~ CHORUS;
#X obj 500 760 vd~ CHORUS;
#X obj 700 760 vd~ CHORUS;
#X obj 500 600 +~ 0.33;
#X obj 300 780 *~ 0.33;
#X obj 500 780 *~ 0.33;
#X obj 700 780 *~ 0.33;
#N canvas 0 0 450 300 (subpatch) 0;
#X array array1 4 float 1 black black;
#A 0 128 128 128 128;
#X coords 0 128 3 0 100 70 1;
#X restore 300 400 graph;
#X obj 700 400 hsl 128 15 0.5 90 1 1 empty empty depth -2 -8 0 10 #fcfcfc
#000000 #000000 10604 1;
#X obj 500 400 hsl 128 15 0.05 1 1 1 speed empty speed -2 -8 0 10 #fcfcfc
#000000 #000000 0 1;
#X obj 120 200 delwrite~ CHORUS 10000;
#X obj 100 100 inlet~;
#X floatatom 700 430 5 0 0 0 - - -, f 5;
#X floatatom 500 430 5 0 0 0 - - -, f 5;
#X obj 300 200 hsl 128 15 0 127 0 0 empty empty empty -2 -8 0 10 #fcfcfc
#000000 #000000 5350 1;
#X floatatom 300 223 5 0 0 0 - - -, f 5;
#X obj 500 300 sq/logic/map 0 127 0.005 0.1;
#X obj 700 300 sq/logic/map 0 127 0.5 90;
#X obj 100 1100 sq/logic/bypass~;
#X obj 200 800 tgl 15 0 empty empty empty 17 7 0 10 #fcfcfc #000000
#000000 53.5 53.5;
#X obj 100 1200 outlet~;
#X obj 300 100 inlet;
#X obj 300 600 +~ 0;
#X text 500 100 a neat chorusing effect. mostly taken from user 'mod'
on this one pd forum;
#X text 500 140 https://forum.pdpatchrepo.info/topic/5713/chorus-effect/3
;
#X text 230 1100 <- I don't like the harsh transition when moving to
the bypass filter. but I can't find a way to make the chorus thing
act the same as the input signal ) \; ;
#X connect 0 0 36 0;
#X connect 0 0 17 0;
#X connect 0 0 13 0;
#X connect 1 0 2 0;
#X connect 2 0 3 0;
#X connect 3 0 4 0;
#X connect 4 0 14 0;
#X connect 5 0 6 0;
#X connect 6 0 7 0;
#X connect 7 0 8 0;
#X connect 8 0 15 0;
#X connect 9 0 10 0;
#X connect 10 0 11 0;
#X connect 11 0 12 0;
#X connect 12 0 16 0;
#X connect 13 0 9 0;
#X connect 14 0 18 0;
#X connect 15 0 19 0;
#X connect 16 0 20 0;
#X connect 17 0 5 0;
#X connect 18 0 32 1;
#X connect 19 0 32 1;
#X connect 20 0 32 1;
#X connect 22 0 26 0;
#X connect 23 0 27 0;
#X connect 25 0 24 0;
#X connect 25 0 32 0;
#X connect 26 0 4 1;
#X connect 26 0 8 1;
#X connect 26 0 12 1;
#X connect 27 0 0 0;
#X connect 28 0 29 0;
#X connect 29 0 30 0;
#X connect 29 0 31 0;
#X connect 29 0 33 0;
#X connect 30 0 23 0;
#X connect 31 0 22 0;
#X connect 32 0 34 0;
#X connect 33 0 32 2;
#X connect 35 0 28 0;
#X connect 36 0 1 0;
